{"glyphs":{"0":{"ha":922,"x_min":86,"x_max":836,"o":"m 461 -11 q 204 28 281 -11 q 107 161 128 67 q 86 478 86 256 q 107 794 86 700 q 204 928 128 889 q 461 967 281 967 q 718 928 642 967 q 815 794 794 889 q 836 478 836 700 q 815 161 836 256 q 718 28 794 67 q 461 -11 642 -11 m 461 156 q 588 172 556 156 q 630 247 621 188 q 639 478 639 307 q 630 708 639 649 q 588 784 621 768 q 461 800 556 800 q 334 784 367 800 q 292 708 301 768 q 283 478 283 649 q 292 247 283 307 q 334 172 301 188 q 461 156 367 156 z "},"1":{"ha":539,"x_min":33,"x_max":417,"o":"m 219 0 l 219 736 l 33 657 l 33 828 l 281 956 l 417 956 l 417 0 l 219 0 z "},"2":{"ha":847,"x_min":81,"x_max":764,"o":"m 272 169 l 764 169 l 764 0 l 81 0 l 81 128 q 90 307 81 247 q 134 407 100 367 q 244 478 168 447 l 276 490 q 463 567 338 517 q 530 599 510 585 q 558 634 550 614 q 565 693 565 654 q 549 764 565 742 q 492 793 532 786 q 369 800 453 800 q 246 794 322 800 q 100 779 169 789 l 100 936 q 258 958 164 950 q 431 967 351 967 q 607 949 536 967 q 721 873 678 931 q 764 706 764 815 q 746 567 764 621 q 692 482 728 514 q 596 426 656 450 q 457 371 485 382 l 347 328 q 309 310 322 318 q 289 292 296 303 q 276 258 279 278 q 272 204 272 238 l 272 169 z "},"3":{"ha":840,"x_min":74,"x_max":754,"o":"m 374 -11 q 219 -3 304 -11 q 74 18 135 6 l 74 172 q 356 156 243 156 q 475 163 436 156 q 533 194 514 169 q 553 275 553 219 q 540 353 553 326 q 495 390 526 379 q 406 400 464 400 l 239 400 l 239 567 l 406 567 q 513 590 481 567 q 544 682 544 613 q 527 762 544 738 q 469 793 510 786 q 342 800 429 800 q 209 794 283 800 q 79 782 135 789 l 79 938 q 221 958 138 950 q 375 967 304 967 q 662 905 579 967 q 744 715 744 843 q 704 561 744 614 q 581 490 664 508 l 581 485 q 711 415 668 465 q 754 256 754 365 q 723 112 754 169 q 608 22 692 54 q 374 -11 525 -11 z "},"4":{"ha":897,"x_min":53,"x_max":847,"o":"m 524 0 l 524 199 l 53 199 l 53 347 l 401 956 l 618 956 l 265 367 l 525 367 l 579 621 l 721 621 l 721 367 l 847 367 l 847 199 l 721 199 l 721 0 l 524 0 z "},"5":{"ha":864,"x_min":101,"x_max":782,"o":"m 101 172 q 382 156 272 156 q 508 167 467 156 q 566 206 550 178 q 582 292 582 235 q 565 381 582 353 q 506 418 547 410 q 374 426 464 426 q 247 422 321 426 q 113 410 174 417 l 113 956 l 711 956 l 711 786 l 289 786 l 289 582 q 475 592 376 592 q 664 560 597 592 q 756 467 731 528 q 782 308 782 407 q 751 122 782 190 q 638 22 719 54 q 403 -11 556 -11 q 248 -3 333 -11 q 101 17 163 4 l 101 172 z "},"6":{"ha":921,"x_min":86,"x_max":840,"o":"m 476 -11 q 307 -2 371 -11 q 199 34 243 7 q 129 115 156 61 q 96 250 106 164 q 86 472 86 336 q 95 671 86 590 q 126 804 104 751 q 245 931 163 896 q 486 967 328 967 q 629 958 544 967 q 786 938 714 950 l 786 781 q 525 800 618 800 q 365 780 414 800 q 301 706 317 760 q 286 526 286 651 l 294 526 q 526 593 357 593 q 708 571 642 593 q 807 488 774 549 q 840 314 840 428 q 811 118 840 186 q 705 19 782 50 q 476 -11 628 -11 m 465 154 q 582 163 546 154 q 633 199 618 171 q 647 288 647 226 q 633 383 647 354 q 583 419 619 411 q 465 428 547 428 q 349 416 386 428 q 300 381 311 404 q 289 310 289 357 q 305 204 289 236 q 355 163 321 172 q 465 154 389 154 z "},"7":{"ha":789,"x_min":50,"x_max":733,"o":"m 158 0 l 521 786 l 50 786 l 50 956 l 733 956 l 733 801 l 376 0 l 158 0 z "},"8":{"ha":946,"x_min":85,"x_max":860,"o":"m 472 -11 q 232 20 317 -11 q 116 108 147 51 q 85 256 85 165 q 104 378 85 333 q 160 447 124 424 q 258 485 197 471 l 258 490 q 133 560 172 508 q 93 715 93 613 q 128 855 93 800 q 245 938 163 910 q 472 967 328 967 q 699 938 617 967 q 817 855 782 910 q 851 715 851 800 q 811 561 851 614 q 686 490 771 508 l 686 485 q 784 447 747 471 q 840 378 821 424 q 860 256 860 333 q 828 109 860 167 q 711 20 796 51 q 472 -11 626 -11 m 472 561 q 587 569 550 561 q 638 603 624 578 q 651 681 651 628 q 638 760 651 735 q 588 794 624 785 q 472 803 551 803 q 357 794 393 803 q 308 760 321 785 q 294 681 294 736 q 308 603 294 628 q 358 569 322 578 q 472 561 394 561 m 472 153 q 590 160 551 153 q 644 194 628 168 q 660 276 660 219 q 644 361 660 335 q 591 396 629 388 q 472 404 553 404 q 353 396 390 404 q 301 361 315 388 q 286 276 286 335 q 302 194 286 219 q 355 160 318 168 q 472 153 392 153 z "},"9":{"ha":921,"x_min":81,"x_max":835,"o":"m 433 -11 q 290 -3 375 -11 q 133 18 206 6 l 133 175 q 394 156 301 156 q 554 176 506 156 q 619 250 603 196 q 635 429 635 304 l 626 429 q 394 363 564 363 q 213 385 279 363 q 113 467 146 407 q 81 642 81 526 q 110 838 81 769 q 216 936 139 906 q 443 967 293 967 q 626 956 558 967 q 735 912 693 944 q 800 814 778 879 q 827 681 819 760 q 835 483 835 601 q 823 265 835 351 q 782 125 811 179 q 660 19 742 50 q 433 -11 579 -11 m 454 528 q 571 540 533 528 q 619 575 608 551 q 631 646 631 599 q 615 751 631 719 q 565 792 599 783 q 454 801 531 801 q 339 793 375 801 q 288 757 303 785 q 274 668 274 729 q 288 573 274 601 q 337 536 301 544 q 454 528 372 528 z "},"\u0000":{"ha":0,"x_min":0,"x_max":0,"o":""},"\r":{"ha":342,"x_min":0,"x_max":0,"o":""}," ":{"ha":342,"x_min":0,"x_max":0,"o":""},"A":{"ha":954,"x_min":21,"x_max":933,"o":"m 729 0 l 660 206 l 288 206 l 219 0 l 21 0 l 344 956 l 610 956 l 933 0 l 729 0 m 476 769 l 469 769 l 340 378 l 607 378 l 476 769 z "},"Á":{"ha":950,"x_min":21,"x_max":933,"o":"m 729 0 l 660 206 l 288 206 l 219 0 l 21 0 l 344 956 l 610 956 l 933 0 l 729 0 m 476 769 l 469 769 l 340 378 l 607 378 l 476 769 m 365 1042 l 365 1049 l 496 1242 l 682 1242 l 682 1235 l 499 1042 l 365 1042 z "},"Ă":{"ha":954,"x_min":21,"x_max":933,"o":"m 729 0 l 660 206 l 288 206 l 219 0 l 21 0 l 344 956 l 610 956 l 933 0 l 729 0 m 476 769 l 469 769 l 340 378 l 607 378 l 476 769 m 682 1233 q 668 1121 682 1164 q 609 1053 654 1078 q 475 1028 564 1028 q 344 1053 388 1028 q 286 1121 300 1078 q 272 1233 272 1164 l 378 1233 q 383 1177 378 1196 q 408 1147 388 1158 q 475 1136 429 1136 q 542 1147 521 1136 q 569 1177 564 1158 q 575 1233 575 1196 l 682 1233 z "},"Ắ":{"ha":954,"x_min":21,"x_max":933,"o":"m 729 0 l 660 206 l 288 206 l 219 0 l 21 0 l 344 956 l 610 956 l 933 0 l 729 0 m 476 769 l 469 769 l 340 378 l 607 378 l 476 769 m 683 1233 q 669 1121 683 1164 q 610 1053 656 1078 q 476 1028 565 1028 q 345 1053 389 1028 q 288 1121 301 1078 q 274 1233 274 1164 l 379 1233 q 384 1177 379 1196 q 410 1147 389 1158 q 476 1136 431 1136 q 544 1147 522 1136 q 571 1177 565 1158 q 576 1233 576 1196 l 683 1233 m 399 1274 l 399 1281 l 529 1474 l 715 1474 l 715 1467 l 532 1274 l 399 1274 z "},"Ặ":{"ha":954,"x_min":21,"x_max":933,"o":"m 729 0 l 660 206 l 288 206 l 219 0 l 21 0 l 344 956 l 610 956 l 933 0 l 729 0 m 476 769 l 469 769 l 340 378 l 607 378 l 476 769 m 376 -274 l 376 -86 l 579 -86 l 579 -274 l 376 -274 m 682 1233 q 668 1121 682 1164 q 609 1053 654 1078 q 475 1028 564 1028 q 344 1053 388 1028 q 286 1121 300 1078 q 272 1233 272 1164 l 378 1233 q 383 1177 378 1196 q 408 1147 388 1158 q 475 1136 429 1136 q 542 1147 521 1136 q 569 1177 564 1158 q 575 1233 575 1196 l 682 1233 z "},"Ằ":{"ha":954,"x_min":21,"x_max":933,"o":"m 729 0 l 660 206 l 288 206 l 219 0 l 21 0 l 344 956 l 610 956 l 933 0 l 729 0 m 476 769 l 469 769 l 340 378 l 607 378 l 476 769 m 693 1233 q 679 1121 693 1164 q 620 1053 665 1078 q 486 1028 575 1028 q 355 1053 399 1028 q 297 1121 311 1078 q 283 1233 283 1164 l 389 1233 q 394 1177 389 1196 q 419 1147 399 1158 q 486 1136 440 1136 q 553 1147 532 1136 q 581 1177 575 1158 q 586 1233 586 1196 l 693 1233 m 438 1274 l 256 1467 l 256 1474 l 440 1474 l 572 1281 l 572 1274 l 438 1274 z "},"Ẳ":{"ha":954,"x_min":21,"x_max":933,"o":"m 729 0 l 660 206 l 288 206 l 219 0 l 21 0 l 344 956 l 610 956 l 933 0 l 729 0 m 476 769 l 469 769 l 340 378 l 607 378 l 476 769 m 682 1233 q 668 1121 682 1164 q 609 1053 654 1078 q 475 1028 564 1028 q 344 1053 388 1028 q 286 1121 300 1078 q 272 1233 272 1164 l 378 1233 q 383 1177 378 1196 q 408 1147 388 1158 q 475 1136 429 1136 q 542 1147 521 1136 q 569 1177 564 1158 q 575 1233 575 1196 l 682 1233 m 397 1246 q 410 1306 397 1289 q 463 1333 422 1322 l 489 1342 q 536 1359 526 1351 q 546 1388 546 1367 q 537 1419 546 1410 q 509 1430 528 1428 q 446 1432 490 1432 q 303 1425 369 1432 l 303 1514 q 385 1524 336 1519 q 475 1528 435 1528 q 583 1520 543 1528 q 644 1485 622 1513 q 667 1400 667 1457 q 647 1324 667 1346 q 572 1288 626 1303 l 547 1281 q 505 1264 513 1271 q 497 1238 497 1257 l 397 1238 l 397 1246 z "},"Ẵ":{"ha":954,"x_min":21,"x_max":933,"o":"m 729 0 l 660 206 l 288 206 l 219 0 l 21 0 l 344 956 l 610 956 l 933 0 l 729 0 m 476 769 l 469 769 l 340 378 l 607 378 l 476 769 m 679 1233 q 665 1121 679 1164 q 606 1053 651 1078 q 472 1028 561 1028 q 341 1053 385 1028 q 283 1121 297 1078 q 269 1233 269 1164 l 375 1233 q 380 1177 375 1196 q 406 1147 385 1158 q 472 1136 426 1136 q 540 1147 518 1136 q 567 1177 561 1158 q 572 1233 572 1196 l 679 1233 m 742 1511 q 735 1401 742 1439 q 702 1343 728 1364 q 622 1322 676 1322 q 552 1328 586 1322 q 458 1350 518 1335 q 410 1362 447 1353 q 347 1371 372 1371 q 315 1359 321 1371 q 310 1307 310 1347 l 213 1307 q 219 1416 213 1378 q 252 1475 226 1454 q 333 1496 278 1496 q 404 1489 369 1496 q 496 1468 439 1482 q 608 1447 576 1447 q 640 1459 635 1447 q 646 1511 646 1471 l 742 1511 z "},"Ǎ":{"ha":954,"x_min":21,"x_max":933,"o":"m 729 0 l 660 206 l 288 206 l 219 0 l 21 0 l 344 956 l 610 956 l 933 0 l 729 0 m 476 769 l 469 769 l 340 378 l 607 378 l 476 769 m 389 1032 l 256 1224 l 256 1233 l 376 1233 l 478 1115 l 579 1233 l 701 1233 l 701 1224 l 567 1032 l 389 1032 z "},"Â":{"ha":950,"x_min":21,"x_max":933,"o":"m 729 0 l 660 206 l 288 206 l 219 0 l 21 0 l 344 956 l 610 956 l 933 0 l 729 0 m 476 769 l 469 769 l 340 378 l 607 378 l 476 769 m 253 1042 l 253 1051 l 386 1243 l 564 1243 l 699 1051 l 699 1042 l 576 1042 l 474 1160 l 374 1042 l 253 1042 z "},"Ấ":{"ha":954,"x_min":21,"x_max":933,"o":"m 729 0 l 660 206 l 288 206 l 219 0 l 21 0 l 344 956 l 610 956 l 933 0 l 729 0 m 476 769 l 469 769 l 340 378 l 607 378 l 476 769 m 251 1033 l 251 1043 l 385 1235 l 563 1235 l 697 1043 l 697 1033 l 575 1033 l 472 1151 l 372 1033 l 251 1033 m 503 1275 l 503 1282 l 633 1475 l 819 1475 l 819 1468 l 636 1275 l 503 1275 z "},"Ậ":{"ha":954,"x_min":21,"x_max":933,"o":"m 729 0 l 660 206 l 288 206 l 219 0 l 21 0 l 344 956 l 610 956 l 933 0 l 729 0 m 476 769 l 469 769 l 340 378 l 607 378 l 476 769 m 376 -274 l 376 -86 l 579 -86 l 579 -274 l 376 -274 m 256 1032 l 256 1042 l 389 1233 l 567 1233 l 701 1042 l 701 1032 l 579 1032 l 476 1150 l 376 1032 l 256 1032 z "},"Ầ":{"ha":954,"x_min":21,"x_max":933,"o":"m 729 0 l 660 206 l 288 206 l 219 0 l 21 0 l 344 956 l 610 956 l 933 0 l 729 0 m 476 769 l 469 769 l 340 378 l 607 378 l 476 769 m 253 1033 l 253 1043 l 386 1235 l 564 1235 l 699 1043 l 699 1033 l 576 1033 l 474 1151 l 374 1033 l 253 1033 m 563 1275 l 381 1468 l 381 1475 l 565 1475 l 697 1282 l 697 1275 l 563 1275 z "},"Ẩ":{"ha":954,"x_min":21,"x_max":933,"o":"m 729 0 l 660 206 l 288 206 l 219 0 l 21 0 l 344 956 l 610 956 l 933 0 l 729 0 m 476 769 l 469 769 l 340 378 l 607 378 l 476 769 m 256 1033 l 256 1043 l 389 1235 l 567 1235 l 701 1043 l 701 1033 l 579 1033 l 476 1151 l 376 1033 l 256 1033 m 526 1269 q 539 1329 526 1313 q 592 1357 551 1346 l 618 1365 q 665 1383 656 1375 q 675 1411 675 1390 q 666 1442 675 1433 q 638 1453 657 1451 q 575 1456 619 1456 q 432 1449 499 1456 l 432 1538 q 515 1547 465 1543 q 604 1551 564 1551 q 712 1544 672 1551 q 774 1508 751 1536 q 796 1424 796 1481 q 776 1348 796 1369 q 701 1311 756 1326 l 676 1304 q 634 1288 642 1294 q 626 1261 626 1281 l 526 1261 l 526 1269 z "},"Ẫ":{"ha":954,"x_min":21,"x_max":933,"o":"m 729 0 l 660 206 l 288 206 l 219 0 l 21 0 l 344 956 l 610 956 l 933 0 l 729 0 m 476 769 l 469 769 l 340 378 l 607 378 l 476 769 m 253 1033 l 253 1043 l 386 1235 l 564 1235 l 699 1043 l 699 1033 l 576 1033 l 474 1151 l 374 1033 l 253 1033 m 742 1476 q 735 1367 742 1404 q 702 1308 728 1329 q 622 1288 676 1288 q 552 1294 586 1288 q 458 1315 518 1300 q 410 1327 447 1318 q 347 1336 372 1336 q 315 1324 321 1336 q 310 1272 310 1313 l 213 1272 q 219 1381 213 1343 q 252 1440 226 1419 q 333 1461 278 1461 q 404 1454 369 1461 q 496 1433 439 1447 q 608 1413 576 1413 q 640 1424 635 1413 q 646 1476 646 1436 l 742 1476 z "},"Ȁ":{"ha":954,"x_min":21,"x_max":933,"o":"m 729 0 l 660 206 l 288 206 l 219 0 l 21 0 l 344 956 l 610 956 l 933 0 l 729 0 m 476 769 l 469 769 l 340 378 l 607 378 l 476 769 m 419 1047 l 307 1047 l 147 1214 l 147 1221 l 303 1221 l 419 1053 l 419 1047 m 683 1047 l 572 1047 l 413 1214 l 413 1221 l 567 1221 l 683 1053 l 683 1047 z "},"Ä":{"ha":950,"x_min":21,"x_max":933,"o":"m 729 0 l 660 206 l 288 206 l 219 0 l 21 0 l 344 956 l 610 956 l 933 0 l 729 0 m 476 769 l 469 769 l 340 378 l 607 378 l 476 769 m 257 1079 l 257 1222 l 415 1222 l 415 1079 l 257 1079 m 533 1079 l 533 1222 l 692 1222 l 692 1079 l 533 1079 z "},"Ạ":{"ha":954,"x_min":21,"x_max":933,"o":"m 729 0 l 660 206 l 288 206 l 219 0 l 21 0 l 344 956 l 610 956 l 933 0 l 729 0 m 476 769 l 469 769 l 340 378 l 607 378 l 476 769 m 376 -274 l 376 -86 l 579 -86 l 579 -274 l 376 -274 z "},"À":{"ha":950,"x_min":21,"x_max":933,"o":"m 729 0 l 660 206 l 288 206 l 219 0 l 21 0 l 344 956 l 610 956 l 933 0 l 729 0 m 476 769 l 469 769 l 340 378 l 607 378 l 476 769 m 443 1042 l 261 1235 l 261 1242 l 446 1242 l 578 1049 l 578 1042 l 443 1042 z "},"Ả":{"ha":954,"x_min":21,"x_max":933,"o":"m 729 0 l 660 206 l 288 206 l 219 0 l 21 0 l 344 956 l 610 956 l 933 0 l 729 0 m 476 769 l 469 769 l 340 378 l 607 378 l 476 769 m 390 1024 q 403 1085 390 1068 q 456 1113 415 1101 l 482 1119 q 529 1138 519 1129 q 539 1167 539 1146 q 530 1197 539 1188 q 502 1208 521 1206 q 439 1210 483 1210 q 296 1203 363 1210 l 296 1293 q 468 1306 378 1306 q 576 1298 536 1306 q 638 1263 615 1290 q 660 1179 660 1236 q 640 1103 660 1125 q 565 1067 619 1081 l 540 1058 q 499 1042 507 1049 q 490 1015 490 1035 l 390 1015 l 390 1024 z "},"Ȃ":{"ha":954,"x_min":21,"x_max":933,"o":"m 729 0 l 660 206 l 288 206 l 219 0 l 21 0 l 344 956 l 610 956 l 933 0 l 729 0 m 476 769 l 469 769 l 340 378 l 607 378 l 476 769 m 272 1035 q 286 1147 272 1104 q 345 1215 300 1190 q 479 1240 390 1240 q 610 1215 567 1240 q 668 1147 654 1190 q 682 1035 682 1104 l 576 1035 q 572 1091 576 1072 q 546 1121 567 1110 q 479 1132 525 1132 q 412 1121 433 1132 q 385 1091 390 1110 q 379 1035 379 1072 l 272 1035 z "},"Ā":{"ha":954,"x_min":21,"x_max":933,"o":"m 729 0 l 660 206 l 288 206 l 219 0 l 21 0 l 344 956 l 610 956 l 933 0 l 729 0 m 476 769 l 469 769 l 340 378 l 607 378 l 476 769 m 294 1069 l 294 1232 l 660 1232 l 660 1069 l 294 1069 z "},"Ą":{"ha":950,"x_min":21,"x_max":931,"o":"m 800 -115 q 815 -152 800 -139 q 865 -165 829 -165 l 889 -164 l 889 -268 q 807 -272 836 -272 q 681 -241 717 -272 q 646 -157 646 -210 q 668 -76 646 -118 q 728 1 690 -35 l 658 206 l 286 206 l 218 0 l 21 0 l 342 956 l 608 956 l 931 0 l 879 0 q 824 -56 849 -22 q 800 -115 800 -89 m 336 371 l 607 371 l 475 769 l 468 769 l 336 371 z "},"Å":{"ha":954,"x_min":21,"x_max":933,"o":"m 933 0 l 729 0 l 660 206 l 288 206 l 219 0 l 21 0 l 349 957 q 292 1005 304 974 q 279 1099 279 1036 q 290 1197 279 1164 q 343 1246 301 1229 q 475 1263 385 1263 q 610 1246 568 1263 q 664 1197 653 1229 q 675 1099 675 1164 q 663 1005 675 1036 q 606 957 650 974 l 933 0 m 475 1176 q 412 1169 431 1176 q 388 1148 393 1163 q 383 1099 383 1133 q 388 1049 383 1064 q 412 1027 393 1033 q 475 1021 431 1021 q 542 1027 522 1021 q 565 1048 561 1033 q 569 1099 569 1063 q 565 1148 569 1133 q 542 1169 561 1163 q 475 1176 522 1176 m 340 378 l 607 378 l 476 769 l 469 769 l 340 378 z "},"Ǻ":{"ha":954,"x_min":21,"x_max":933,"o":"m 933 0 l 729 0 l 660 206 l 288 206 l 219 0 l 21 0 l 349 957 q 292 1005 304 974 q 279 1099 279 1036 q 290 1197 279 1164 q 343 1246 301 1229 q 475 1263 385 1263 q 610 1246 568 1263 q 664 1197 653 1229 q 675 1099 675 1164 q 663 1005 675 1036 q 606 957 650 974 l 933 0 m 475 1176 q 412 1169 431 1176 q 388 1148 393 1163 q 383 1099 383 1133 q 388 1049 383 1064 q 412 1027 393 1033 q 475 1021 431 1021 q 542 1027 522 1021 q 565 1048 561 1033 q 569 1099 569 1063 q 565 1148 569 1133 q 542 1169 561 1163 q 475 1176 522 1176 m 340 378 l 607 378 l 476 769 l 469 769 l 340 378 m 401 1340 l 401 1347 l 532 1540 l 718 1540 l 718 1533 l 535 1340 l 401 1340 z "},"Ã":{"ha":950,"x_min":21,"x_max":933,"o":"m 729 0 l 660 206 l 288 206 l 219 0 l 21 0 l 344 956 l 610 956 l 933 0 l 729 0 m 476 769 l 469 769 l 340 378 l 607 378 l 476 769 m 739 1247 q 732 1138 739 1175 q 699 1079 725 1100 q 619 1058 674 1058 q 549 1065 583 1058 q 456 1086 515 1071 q 407 1098 444 1089 q 344 1107 369 1107 q 313 1095 318 1107 q 307 1043 307 1083 l 210 1043 q 217 1152 210 1114 q 249 1211 224 1190 q 331 1232 275 1232 q 401 1225 367 1232 q 493 1204 436 1218 q 606 1183 574 1183 q 638 1195 632 1183 q 643 1247 643 1207 l 739 1247 z "},"Æ":{"ha":1346,"x_min":-19,"x_max":1267,"o":"m 689 0 l 646 206 l 275 206 l 178 0 l -19 0 l 428 956 l 1267 956 l 1267 785 l 728 785 l 775 567 l 1201 567 l 1201 397 l 807 397 l 856 171 l 1267 171 l 1267 0 l 689 0 m 536 768 l 529 768 l 347 376 l 615 376 l 536 768 z "},"Ǽ":{"ha":1346,"x_min":-19,"x_max":1267,"o":"m 689 0 l 646 206 l 275 206 l 178 0 l -19 0 l 428 956 l 1267 956 l 1267 785 l 728 785 l 775 567 l 1201 567 l 1201 397 l 807 397 l 856 171 l 1267 171 l 1267 0 l 689 0 m 536 768 l 529 768 l 347 376 l 615 376 l 536 768 m 600 1033 l 600 1040 l 731 1233 l 917 1233 l 917 1226 l 733 1033 l 600 1033 z "},"B":{"ha":942,"x_min":115,"x_max":861,"o":"m 115 956 l 582 956 q 786 895 721 956 q 851 715 851 835 q 813 563 851 615 q 688 490 774 510 l 688 485 q 822 413 782 465 q 861 254 861 360 q 798 65 861 131 q 582 0 735 0 l 115 0 l 115 956 m 511 568 q 622 591 592 568 q 651 675 651 614 q 640 744 651 721 q 600 776 629 767 q 511 785 571 785 l 313 785 l 313 568 l 511 568 m 518 171 q 607 181 576 171 q 649 214 638 190 q 661 283 661 238 q 649 353 661 329 q 606 388 636 378 q 518 397 576 397 l 313 397 l 313 171 l 518 171 z "},"C":{"ha":796,"x_min":86,"x_max":729,"o":"m 729 11 q 613 -5 682 1 q 486 -11 544 -11 q 226 32 310 -11 q 114 175 142 75 q 86 478 86 275 q 114 778 86 678 q 226 923 142 879 q 486 967 310 967 q 613 960 546 967 q 724 942 679 953 l 724 782 q 536 796 603 796 q 361 777 410 796 q 299 697 313 758 q 285 478 285 636 q 299 258 285 319 q 361 178 313 197 q 536 160 410 160 q 729 174 642 160 l 729 11 z "},"Ć":{"ha":796,"x_min":86,"x_max":729,"o":"m 729 11 q 613 -5 682 1 q 486 -11 544 -11 q 226 32 310 -11 q 114 175 142 75 q 86 478 86 275 q 114 778 86 678 q 226 923 142 879 q 486 967 310 967 q 613 960 546 967 q 724 942 679 953 l 724 782 q 536 796 603 796 q 361 777 410 796 q 299 697 313 758 q 285 478 285 636 q 299 258 285 319 q 361 178 313 197 q 536 160 410 160 q 729 174 642 160 l 729 11 m 325 1033 l 325 1040 l 456 1233 l 642 1233 l 642 1226 l 458 1033 l 325 1033 z "},"Č":{"ha":796,"x_min":86,"x_max":729,"o":"m 729 11 q 613 -5 682 1 q 486 -11 544 -11 q 226 32 310 -11 q 114 175 142 75 q 86 478 86 275 q 114 778 86 678 q 226 923 142 879 q 486 967 310 967 q 613 960 546 967 q 724 942 679 953 l 724 782 q 536 796 603 796 q 361 777 410 796 q 299 697 313 758 q 285 478 285 636 q 299 258 285 319 q 361 178 313 197 q 536 160 410 160 q 729 174 642 160 l 729 11 m 310 1032 l 176 1224 l 176 1233 l 297 1233 l 399 1115 l 500 1233 l 622 1233 l 622 1224 l 488 1032 l 310 1032 z "},"Ç":{"ha":796,"x_min":86,"x_max":729,"o":"m 536 160 q 729 174 642 160 l 729 11 q 613 -5 682 1 q 486 -11 544 -11 l 458 -11 l 410 -264 l 236 -264 l 236 -257 l 332 0 q 174 69 226 17 q 104 215 122 121 q 86 478 86 308 q 114 778 86 678 q 226 923 142 879 q 486 967 310 967 q 613 960 546 967 q 724 942 679 953 l 724 782 q 536 796 603 796 q 361 777 410 796 q 299 697 313 758 q 285 478 285 636 q 299 258 285 319 q 361 178 313 197 q 536 160 410 160 z "},"Ĉ":{"ha":796,"x_min":86,"x_max":729,"o":"m 729 11 q 613 -5 682 1 q 486 -11 544 -11 q 226 32 310 -11 q 114 175 142 75 q 86 478 86 275 q 114 778 86 678 q 226 923 142 879 q 486 967 310 967 q 613 960 546 967 q 724 942 679 953 l 724 782 q 536 796 603 796 q 361 777 410 796 q 299 697 313 758 q 285 478 285 636 q 299 258 285 319 q 361 178 313 197 q 536 160 410 160 q 729 174 642 160 l 729 11 m 176 1032 l 176 1042 l 310 1233 l 488 1233 l 622 1042 l 622 1032 l 500 1032 l 397 1150 l 297 1032 l 176 1032 z "},"Ċ":{"ha":796,"x_min":86,"x_max":729,"o":"m 729 11 q 613 -5 682 1 q 486 -11 544 -11 q 226 32 310 -11 q 114 175 142 75 q 86 478 86 275 q 114 778 86 678 q 226 923 142 879 q 486 967 310 967 q 613 960 546 967 q 724 942 679 953 l 724 782 q 536 796 603 796 q 361 777 410 796 q 299 697 313 758 q 285 478 285 636 q 299 258 285 319 q 361 178 313 197 q 536 160 410 160 q 729 174 642 160 l 729 11 m 319 1072 l 319 1215 l 476 1215 l 476 1072 l 319 1072 z "},"D":{"ha":953,"x_min":115,"x_max":867,"o":"m 115 956 l 440 956 q 734 915 646 956 q 844 782 822 874 q 867 478 867 690 q 844 174 867 265 q 734 41 822 82 q 440 0 646 0 l 115 0 l 115 956 m 431 171 q 600 185 557 171 q 655 256 643 199 q 667 478 667 313 q 654 699 667 642 q 599 771 642 757 q 431 785 557 785 l 313 785 l 313 171 l 431 171 z "},"Ǳ":{"ha":1804,"x_min":115,"x_max":1743,"o":"m 115 956 l 440 956 q 734 915 646 956 q 844 782 822 874 q 867 478 867 690 q 844 174 867 265 q 734 41 822 82 q 440 0 646 0 l 115 0 l 115 956 m 431 171 q 600 185 557 171 q 655 256 643 199 q 667 478 667 313 q 654 699 667 642 q 599 771 642 757 q 431 785 557 785 l 313 785 l 313 171 l 431 171 m 1018 0 l 1018 164 l 1488 785 l 1033 785 l 1033 956 l 1738 956 l 1738 797 l 1263 171 l 1743 171 l 1743 0 l 1018 0 z "},"Ǆ":{"ha":1804,"x_min":115,"x_max":1743,"o":"m 115 956 l 440 956 q 734 915 646 956 q 844 782 822 874 q 867 478 867 690 q 844 174 867 265 q 734 41 822 82 q 440 0 646 0 l 115 0 l 115 956 m 431 171 q 600 185 557 171 q 655 256 643 199 q 667 478 667 313 q 654 699 667 642 q 599 771 642 757 q 431 785 557 785 l 313 785 l 313 171 l 431 171 m 1018 0 l 1018 164 l 1488 785 l 1033 785 l 1033 956 l 1738 956 l 1738 797 l 1263 171 l 1743 171 l 1743 0 l 1018 0 m 1292 1032 l 1158 1224 l 1158 1233 l 1279 1233 l 1381 1115 l 1482 1233 l 1604 1233 l 1604 1224 l 1469 1032 l 1292 1032 z "},"Ð":{"ha":953,"x_min":22,"x_max":867,"o":"m 115 410 l 22 410 l 22 557 l 115 557 l 115 956 l 440 956 q 734 915 646 956 q 844 782 822 874 q 867 478 867 690 q 844 174 867 265 q 734 41 822 82 q 440 0 646 0 l 115 0 l 115 410 m 431 171 q 600 185 557 171 q 655 256 643 199 q 667 478 667 313 q 654 699 667 642 q 599 771 642 757 q 431 785 557 785 l 313 785 l 313 557 l 442 557 l 442 410 l 313 410 l 313 171 l 431 171 z "},"Ď":{"ha":953,"x_min":115,"x_max":867,"o":"m 115 956 l 440 956 q 734 915 646 956 q 844 782 822 874 q 867 478 867 690 q 844 174 867 265 q 734 41 822 82 q 440 0 646 0 l 115 0 l 115 956 m 431 171 q 600 185 557 171 q 655 256 643 199 q 667 478 667 313 q 654 699 667 642 q 599 771 642 757 q 431 785 557 785 l 313 785 l 313 171 l 431 171 m 388 1032 l 254 1224 l 254 1233 l 375 1233 l 476 1115 l 578 1233 l 700 1233 l 700 1224 l 565 1032 l 388 1032 z "},"Đ":{"ha":953,"x_min":22,"x_max":867,"o":"m 115 410 l 22 410 l 22 557 l 115 557 l 115 956 l 440 956 q 734 915 646 956 q 844 782 822 874 q 867 478 867 690 q 844 174 867 265 q 734 41 822 82 q 440 0 646 0 l 115 0 l 115 410 m 431 171 q 600 185 557 171 q 655 256 643 199 q 667 478 667 313 q 654 699 667 642 q 599 771 642 757 q 431 785 557 785 l 313 785 l 313 557 l 442 557 l 442 410 l 313 410 l 313 171 l 431 171 z "},"Ḍ":{"ha":953,"x_min":115,"x_max":867,"o":"m 115 956 l 440 956 q 734 915 646 956 q 844 782 822 874 q 867 478 867 690 q 844 174 867 265 q 734 41 822 82 q 440 0 646 0 l 115 0 l 115 956 m 431 171 q 600 185 557 171 q 655 256 643 199 q 667 478 667 313 q 654 699 667 642 q 599 771 642 757 q 431 785 557 785 l 313 785 l 313 171 l 431 171 m 375 -274 l 375 -86 l 578 -86 l 578 -274 l 375 -274 z "},"ǲ":{"ha":1675,"x_min":115,"x_max":1608,"o":"m 115 956 l 440 956 q 734 915 646 956 q 844 782 822 874 q 867 478 867 690 q 844 174 867 265 q 734 41 822 82 q 440 0 646 0 l 115 0 l 115 956 m 431 171 q 600 185 557 171 q 655 256 643 199 q 667 478 667 313 q 654 699 667 642 q 599 771 642 757 q 431 785 557 785 l 313 785 l 313 171 l 431 171 m 1019 0 l 1019 143 l 1369 556 l 1036 556 l 1036 708 l 1606 708 l 1606 565 l 1254 153 l 1608 153 l 1608 0 l 1019 0 z "},"ǅ":{"ha":1675,"x_min":115,"x_max":1608,"o":"m 115 956 l 440 956 q 734 915 646 956 q 844 782 822 874 q 867 478 867 690 q 844 174 867 265 q 734 41 822 82 q 440 0 646 0 l 115 0 l 115 956 m 431 171 q 600 185 557 171 q 655 256 643 199 q 667 478 667 313 q 654 699 667 642 q 599 771 642 757 q 431 785 557 785 l 313 785 l 313 171 l 431 171 m 1019 0 l 1019 143 l 1369 556 l 1036 556 l 1036 708 l 1606 708 l 1606 565 l 1254 153 l 1608 153 l 1608 0 l 1019 0 m 1228 831 l 1094 1022 l 1094 1032 l 1215 1032 l 1317 914 l 1418 1032 l 1540 1032 l 1540 1022 l 1406 831 l 1228 831 z "},"E":{"ha":850,"x_min":115,"x_max":772,"o":"m 115 0 l 115 956 l 772 956 l 772 785 l 313 785 l 313 568 l 707 568 l 707 397 l 313 397 l 313 171 l 772 171 l 772 0 l 115 0 z "},"É":{"ha":842,"x_min":115,"x_max":772,"o":"m 115 0 l 115 956 l 772 956 l 772 785 l 313 785 l 313 568 l 707 568 l 707 397 l 313 397 l 313 171 l 772 171 l 772 0 l 115 0 m 375 1042 l 375 1049 l 506 1242 l 692 1242 l 692 1235 l 508 1042 l 375 1042 z "},"Ĕ":{"ha":850,"x_min":115,"x_max":772,"o":"m 115 0 l 115 956 l 772 956 l 772 785 l 313 785 l 313 568 l 707 568 l 707 397 l 313 397 l 313 171 l 772 171 l 772 0 l 115 0 m 642 1233 q 628 1121 642 1164 q 569 1053 614 1078 q 435 1028 524 1028 q 303 1053 347 1028 q 246 1121 260 1078 q 232 1233 232 1164 l 338 1233 q 342 1177 338 1196 q 368 1147 347 1158 q 435 1136 389 1136 q 502 1147 481 1136 q 529 1177 524 1158 q 535 1233 535 1196 l 642 1233 z "},"Ě":{"ha":850,"x_min":115,"x_max":772,"o":"m 115 0 l 115 956 l 772 956 l 772 785 l 313 785 l 313 568 l 707 568 l 707 397 l 313 397 l 313 171 l 772 171 l 772 0 l 115 0 m 349 1032 l 215 1224 l 215 1233 l 336 1233 l 438 1115 l 539 1233 l 661 1233 l 661 1224 l 526 1032 l 349 1032 z "},"Ê":{"ha":842,"x_min":115,"x_max":772,"o":"m 115 0 l 115 956 l 772 956 l 772 785 l 313 785 l 313 568 l 707 568 l 707 397 l 313 397 l 313 171 l 772 171 l 772 0 l 115 0 m 213 1042 l 213 1051 l 346 1243 l 524 1243 l 658 1051 l 658 1042 l 536 1042 l 433 1160 l 333 1042 l 213 1042 z "},"Ế":{"ha":850,"x_min":115,"x_max":779,"o":"m 115 0 l 115 956 l 772 956 l 772 785 l 313 785 l 313 568 l 707 568 l 707 397 l 313 397 l 313 171 l 772 171 l 772 0 l 115 0 m 211 1033 l 211 1043 l 344 1235 l 522 1235 l 657 1043 l 657 1033 l 535 1033 l 432 1151 l 332 1033 l 211 1033 m 463 1275 l 463 1282 l 593 1475 l 779 1475 l 779 1468 l 596 1275 l 463 1275 z "},"Ệ":{"ha":850,"x_min":115,"x_max":772,"o":"m 115 0 l 115 956 l 772 956 l 772 785 l 313 785 l 313 568 l 707 568 l 707 397 l 313 397 l 313 171 l 772 171 l 772 0 l 115 0 m 336 -274 l 336 -86 l 539 -86 l 539 -274 l 336 -274 m 215 1032 l 215 1042 l 349 1233 l 526 1233 l 661 1042 l 661 1032 l 539 1032 l 436 1150 l 336 1032 l 215 1032 z "},"Ề":{"ha":850,"x_min":115,"x_max":772,"o":"m 115 0 l 115 956 l 772 956 l 772 785 l 313 785 l 313 568 l 707 568 l 707 397 l 313 397 l 313 171 l 772 171 l 772 0 l 115 0 m 213 1033 l 213 1043 l 346 1235 l 524 1235 l 658 1043 l 658 1033 l 536 1033 l 433 1151 l 333 1033 l 213 1033 m 522 1275 l 340 1468 l 340 1475 l 525 1475 l 657 1282 l 657 1275 l 522 1275 z "},"Ể":{"ha":850,"x_min":115,"x_max":772,"o":"m 115 0 l 115 956 l 772 956 l 772 785 l 313 785 l 313 568 l 707 568 l 707 397 l 313 397 l 313 171 l 772 171 l 772 0 l 115 0 m 215 1033 l 215 1043 l 349 1235 l 526 1235 l 661 1043 l 661 1033 l 539 1033 l 436 1151 l 336 1033 l 215 1033 m 486 1269 q 499 1329 486 1313 q 551 1357 511 1346 l 578 1365 q 625 1383 615 1375 q 635 1411 635 1390 q 626 1442 635 1433 q 598 1453 617 1451 q 535 1456 579 1456 q 392 1449 458 1456 l 392 1538 q 474 1547 425 1543 q 564 1551 524 1551 q 672 1544 632 1551 q 733 1508 711 1536 q 756 1424 756 1481 q 735 1348 756 1369 q 661 1311 715 1326 l 636 1304 q 594 1288 601 1294 q 586 1261 586 1281 l 486 1261 l 486 1269 z "},"Ễ":{"ha":850,"x_min":115,"x_max":772,"o":"m 115 0 l 115 956 l 772 956 l 772 785 l 313 785 l 313 568 l 707 568 l 707 397 l 313 397 l 313 171 l 772 171 l 772 0 l 115 0 m 213 1033 l 213 1043 l 346 1235 l 524 1235 l 658 1043 l 658 1033 l 536 1033 l 433 1151 l 333 1033 l 213 1033 m 701 1476 q 694 1367 701 1404 q 662 1308 688 1329 q 582 1288 636 1288 q 512 1294 546 1288 q 418 1315 478 1300 q 369 1327 407 1318 q 307 1336 332 1336 q 275 1324 281 1336 q 269 1272 269 1313 l 172 1272 q 179 1381 172 1343 q 212 1440 186 1419 q 293 1461 238 1461 q 364 1454 329 1461 q 456 1433 399 1447 q 568 1413 536 1413 q 600 1424 594 1413 q 606 1476 606 1436 l 701 1476 z "},"Ȅ":{"ha":850,"x_min":107,"x_max":772,"o":"m 115 0 l 115 956 l 772 956 l 772 785 l 313 785 l 313 568 l 707 568 l 707 397 l 313 397 l 313 171 l 772 171 l 772 0 l 115 0 m 379 1047 l 267 1047 l 107 1214 l 107 1221 l 263 1221 l 379 1053 l 379 1047 m 643 1047 l 532 1047 l 372 1214 l 372 1221 l 526 1221 l 643 1053 l 643 1047 z "},"Ë":{"ha":842,"x_min":115,"x_max":772,"o":"m 115 0 l 115 956 l 772 956 l 772 785 l 313 785 l 313 568 l 707 568 l 707 397 l 313 397 l 313 171 l 772 171 l 772 0 l 115 0 m 225 1072 l 225 1215 l 383 1215 l 383 1072 l 225 1072 m 501 1072 l 501 1215 l 660 1215 l 660 1072 l 501 1072 z "},"Ė":{"ha":850,"x_min":115,"x_max":772,"o":"m 115 0 l 115 956 l 772 956 l 772 785 l 313 785 l 313 568 l 707 568 l 707 397 l 313 397 l 313 171 l 772 171 l 772 0 l 115 0 m 358 1072 l 358 1215 l 515 1215 l 515 1072 l 358 1072 z "},"Ẹ":{"ha":850,"x_min":115,"x_max":772,"o":"m 115 0 l 115 956 l 772 956 l 772 785 l 313 785 l 313 568 l 707 568 l 707 397 l 313 397 l 313 171 l 772 171 l 772 0 l 115 0 m 336 -274 l 336 -86 l 539 -86 l 539 -274 l 336 -274 z "},"È":{"ha":842,"x_min":115,"x_max":772,"o":"m 115 0 l 115 956 l 772 956 l 772 785 l 313 785 l 313 568 l 707 568 l 707 397 l 313 397 l 313 171 l 772 171 l 772 0 l 115 0 m 406 1042 l 224 1235 l 224 1242 l 408 1242 l 540 1049 l 540 1042 l 406 1042 z "},"Ẻ":{"ha":850,"x_min":115,"x_max":772,"o":"m 115 0 l 115 956 l 772 956 l 772 785 l 313 785 l 313 568 l 707 568 l 707 397 l 313 397 l 313 171 l 772 171 l 772 0 l 115 0 m 350 1024 q 363 1085 350 1068 q 415 1113 375 1101 l 442 1119 q 489 1138 479 1129 q 499 1167 499 1146 q 490 1197 499 1188 q 462 1208 481 1206 q 399 1210 443 1210 q 256 1203 322 1210 l 256 1293 q 428 1306 338 1306 q 535 1298 496 1306 q 597 1263 575 1290 q 619 1179 619 1236 q 599 1103 619 1125 q 525 1067 579 1081 l 500 1058 q 458 1042 467 1049 q 450 1015 450 1035 l 350 1015 l 350 1024 z "},"Ȇ":{"ha":850,"x_min":115,"x_max":772,"o":"m 115 0 l 115 956 l 772 956 l 772 785 l 313 785 l 313 568 l 707 568 l 707 397 l 313 397 l 313 171 l 772 171 l 772 0 l 115 0 m 232 1035 q 246 1147 232 1104 q 305 1215 260 1190 q 439 1240 350 1240 q 570 1215 526 1240 q 628 1147 614 1190 q 642 1035 642 1104 l 536 1035 q 531 1091 536 1072 q 506 1121 526 1110 q 439 1132 485 1132 q 372 1121 393 1132 q 344 1091 350 1110 q 339 1035 339 1072 l 232 1035 z "},"Ē":{"ha":850,"x_min":115,"x_max":772,"o":"m 115 0 l 115 956 l 772 956 l 772 785 l 313 785 l 313 568 l 707 568 l 707 397 l 313 397 l 313 171 l 772 171 l 772 0 l 115 0 m 254 1069 l 254 1232 l 619 1232 l 619 1069 l 254 1069 z "},"Ę":{"ha":842,"x_min":114,"x_max":765,"o":"m 676 -272 q 514 -161 514 -272 q 610 0 514 -83 l 114 0 l 114 956 l 765 956 l 765 789 l 311 789 l 311 565 l 700 565 l 700 399 l 311 399 l 311 167 l 765 167 l 765 0 q 698 -54 728 -21 q 668 -119 668 -87 q 683 -152 668 -139 q 731 -165 697 -165 l 757 -164 l 757 -268 q 728 -270 754 -268 q 676 -272 703 -272 z "},"Ẽ":{"ha":850,"x_min":115,"x_max":772,"o":"m 115 0 l 115 956 l 772 956 l 772 785 l 313 785 l 313 568 l 707 568 l 707 397 l 313 397 l 313 171 l 772 171 l 772 0 l 115 0 m 701 1235 q 694 1125 701 1163 q 662 1067 688 1088 q 582 1046 636 1046 q 512 1052 546 1046 q 418 1074 478 1058 q 369 1085 407 1076 q 307 1094 332 1094 q 275 1083 281 1094 q 269 1031 269 1071 l 172 1031 q 179 1140 172 1101 q 212 1199 186 1178 q 293 1219 238 1219 q 364 1213 329 1219 q 456 1192 399 1206 q 568 1171 536 1171 q 600 1183 594 1171 q 606 1235 606 1194 l 701 1235 z "},"F":{"ha":796,"x_min":115,"x_max":744,"o":"m 115 0 l 115 956 l 744 956 l 744 785 l 313 785 l 313 542 l 693 542 l 693 371 l 313 371 l 313 0 l 115 0 z "},"G":{"ha":931,"x_min":86,"x_max":826,"o":"m 481 383 l 481 547 l 826 547 l 826 21 q 664 -2 753 7 q 507 -11 575 -11 q 240 27 326 -11 q 119 167 153 65 q 86 478 86 268 q 119 778 86 676 q 242 924 153 881 q 507 967 331 967 q 633 960 571 967 q 782 940 694 953 l 822 935 l 822 775 l 771 781 q 585 796 639 796 q 381 781 438 796 q 305 702 325 765 q 285 478 285 639 q 300 267 285 332 q 362 179 315 203 q 514 156 408 156 q 638 160 592 156 l 638 383 l 481 383 z "},"Ǵ":{"ha":931,"x_min":86,"x_max":826,"o":"m 481 383 l 481 547 l 826 547 l 826 21 q 664 -2 753 7 q 507 -11 575 -11 q 240 27 326 -11 q 119 167 153 65 q 86 478 86 268 q 119 778 86 676 q 242 924 153 881 q 507 967 331 967 q 633 960 571 967 q 782 940 694 953 l 822 935 l 822 775 l 771 781 q 585 796 639 796 q 381 781 438 796 q 305 702 325 765 q 285 478 285 639 q 300 267 285 332 q 362 179 315 203 q 514 156 408 156 q 638 160 592 156 l 638 383 l 481 383 m 392 1033 l 392 1040 l 522 1233 l 708 1233 l 708 1226 l 525 1033 l 392 1033 z "},"Ğ":{"ha":931,"x_min":86,"x_max":826,"o":"m 481 383 l 481 547 l 826 547 l 826 21 q 664 -2 753 7 q 507 -11 575 -11 q 240 27 326 -11 q 119 167 153 65 q 86 478 86 268 q 119 778 86 676 q 242 924 153 881 q 507 967 331 967 q 633 960 571 967 q 782 940 694 953 l 822 935 l 822 775 l 771 781 q 585 796 639 796 q 381 781 438 796 q 305 702 325 765 q 285 478 285 639 q 300 267 285 332 q 362 179 315 203 q 514 156 408 156 q 638 160 592 156 l 638 383 l 481 383 m 669 1233 q 656 1121 669 1164 q 597 1053 642 1078 q 463 1028 551 1028 q 331 1053 375 1028 q 274 1121 288 1078 q 260 1233 260 1164 l 365 1233 q 370 1177 365 1196 q 396 1147 375 1158 q 463 1136 417 1136 q 530 1147 508 1136 q 557 1177 551 1158 q 563 1233 563 1196 l 669 1233 z "},"Ǧ":{"ha":931,"x_min":86,"x_max":826,"o":"m 481 383 l 481 547 l 826 547 l 826 21 q 664 -2 753 7 q 507 -11 575 -11 q 240 27 326 -11 q 119 167 153 65 q 86 478 86 268 q 119 778 86 676 q 242 924 153 881 q 507 967 331 967 q 633 960 571 967 q 782 940 694 953 l 822 935 l 822 775 l 771 781 q 585 796 639 796 q 381 781 438 796 q 305 702 325 765 q 285 478 285 639 q 300 267 285 332 q 362 179 315 203 q 514 156 408 156 q 638 160 592 156 l 638 383 l 481 383 m 376 1032 l 243 1224 l 243 1233 l 364 1233 l 465 1115 l 567 1233 l 689 1233 l 689 1224 l 554 1032 l 376 1032 z "},"Ĝ":{"ha":931,"x_min":86,"x_max":826,"o":"m 481 383 l 481 547 l 826 547 l 826 21 q 664 -2 753 7 q 507 -11 575 -11 q 240 27 326 -11 q 119 167 153 65 q 86 478 86 268 q 119 778 86 676 q 242 924 153 881 q 507 967 331 967 q 633 960 571 967 q 782 940 694 953 l 822 935 l 822 775 l 771 781 q 585 796 639 796 q 381 781 438 796 q 305 702 325 765 q 285 478 285 639 q 300 267 285 332 q 362 179 315 203 q 514 156 408 156 q 638 160 592 156 l 638 383 l 481 383 m 243 1032 l 243 1042 l 376 1233 l 554 1233 l 689 1042 l 689 1032 l 567 1032 l 464 1150 l 364 1032 l 243 1032 z "},"Ģ":{"ha":931,"x_min":86,"x_max":826,"o":"m 481 383 l 481 547 l 826 547 l 826 21 q 664 -2 753 7 q 507 -11 575 -11 q 240 27 326 -11 q 119 167 153 65 q 86 478 86 268 q 119 778 86 676 q 242 924 153 881 q 507 967 331 967 q 633 960 571 967 q 782 940 694 953 l 822 935 l 822 775 l 771 781 q 585 796 639 796 q 381 781 438 796 q 305 702 325 765 q 285 478 285 639 q 300 267 285 332 q 362 179 315 203 q 514 156 408 156 q 638 160 592 156 l 638 383 l 481 383 m 361 -325 q 433 -315 415 -325 q 451 -271 451 -304 l 451 -250 l 376 -250 l 376 -85 l 569 -85 l 569 -199 q 556 -327 569 -286 q 499 -385 542 -368 q 361 -401 456 -401 l 361 -325 z "},"Ġ":{"ha":931,"x_min":86,"x_max":826,"o":"m 481 383 l 481 547 l 826 547 l 826 21 q 664 -2 753 7 q 507 -11 575 -11 q 240 27 326 -11 q 119 167 153 65 q 86 478 86 268 q 119 778 86 676 q 242 924 153 881 q 507 967 331 967 q 633 960 571 967 q 782 940 694 953 l 822 935 l 822 775 l 771 781 q 585 796 639 796 q 381 781 438 796 q 305 702 325 765 q 285 478 285 639 q 300 267 285 332 q 362 179 315 203 q 514 156 408 156 q 638 160 592 156 l 638 383 l 481 383 m 386 1072 l 386 1215 l 543 1215 l 543 1072 l 386 1072 z "},"H":{"ha":1000,"x_min":114,"x_max":888,"o":"m 689 0 l 689 392 l 311 392 l 311 0 l 114 0 l 114 956 l 311 956 l 311 569 l 689 569 l 689 956 l 888 956 l 888 0 l 689 0 z "},"Ħ":{"ha":1000,"x_min":114,"x_max":888,"o":"m 689 956 l 888 956 l 888 0 l 689 0 l 689 336 l 311 336 l 311 0 l 114 0 l 114 956 l 311 956 l 311 803 l 689 803 l 689 956 m 311 514 l 689 514 l 689 656 l 311 656 l 311 514 z "},"Ĥ":{"ha":1000,"x_min":114,"x_max":888,"o":"m 689 0 l 689 392 l 311 392 l 311 0 l 114 0 l 114 956 l 311 956 l 311 569 l 689 569 l 689 956 l 888 956 l 888 0 l 689 0 m 278 1032 l 278 1042 l 411 1233 l 589 1233 l 724 1042 l 724 1032 l 601 1032 l 499 1150 l 399 1032 l 278 1032 z "},"Ḥ":{"ha":1000,"x_min":114,"x_max":888,"o":"m 689 0 l 689 392 l 311 392 l 311 0 l 114 0 l 114 956 l 311 956 l 311 569 l 689 569 l 689 956 l 888 956 l 888 0 l 689 0 m 399 -274 l 399 -86 l 601 -86 l 601 -274 l 399 -274 z "},"I":{"ha":425,"x_min":114,"x_max":311,"o":"m 114 0 l 114 956 l 311 956 l 311 0 l 114 0 z "},"Ĳ":{"ha":964,"x_min":114,"x_max":857,"o":"m 114 0 l 114 956 l 311 956 l 311 0 l 114 0 m 461 158 q 603 171 565 160 q 649 219 640 182 q 658 363 658 256 l 658 956 l 857 956 l 857 418 q 836 121 857 199 q 742 22 815 43 q 461 0 669 1 l 461 158 z "},"Í":{"ha":425,"x_min":114,"x_max":436,"o":"m 114 0 l 114 956 l 311 956 l 311 0 l 114 0 m 119 1042 l 119 1049 l 250 1242 l 436 1242 l 436 1235 l 253 1042 l 119 1042 z "},"Ĭ":{"ha":425,"x_min":7,"x_max":417,"o":"m 114 0 l 114 956 l 311 956 l 311 0 l 114 0 m 417 1233 q 403 1121 417 1164 q 344 1053 389 1078 q 210 1028 299 1028 q 78 1053 122 1028 q 21 1121 35 1078 q 7 1233 7 1164 l 113 1233 q 117 1177 113 1196 q 143 1147 122 1158 q 210 1136 164 1136 q 277 1147 256 1136 q 304 1177 299 1158 q 310 1233 310 1196 l 417 1233 z "},"Ǐ":{"ha":425,"x_min":-10,"x_max":436,"o":"m 114 0 l 114 956 l 311 956 l 311 0 l 114 0 m 124 1032 l -10 1224 l -10 1233 l 111 1233 l 213 1115 l 314 1233 l 436 1233 l 436 1224 l 301 1032 l 124 1032 z "},"Î":{"ha":425,"x_min":-10,"x_max":436,"o":"m 114 0 l 114 956 l 311 956 l 311 0 l 114 0 m -10 1042 l -10 1051 l 124 1243 l 301 1243 l 436 1051 l 436 1042 l 314 1042 l 211 1160 l 111 1042 l -10 1042 z "},"Ȉ":{"ha":425,"x_min":-118,"x_max":418,"o":"m 114 0 l 114 956 l 311 956 l 311 0 l 114 0 m 154 1047 l 42 1047 l -118 1214 l -118 1221 l 38 1221 l 154 1053 l 154 1047 m 418 1047 l 307 1047 l 147 1214 l 147 1221 l 301 1221 l 418 1053 l 418 1047 z "},"Ï":{"ha":425,"x_min":-4,"x_max":431,"o":"m 114 0 l 114 956 l 311 956 l 311 0 l 114 0 m -4 1079 l -4 1222 l 154 1222 l 154 1079 l -4 1079 m 272 1079 l 272 1222 l 431 1222 l 431 1079 l 272 1079 z "},"İ":{"ha":425,"x_min":114,"x_max":311,"o":"m 114 0 l 114 956 l 311 956 l 311 0 l 114 0 m 133 1072 l 133 1215 l 290 1215 l 290 1072 l 133 1072 z "},"Ị":{"ha":425,"x_min":111,"x_max":314,"o":"m 114 0 l 114 956 l 311 956 l 311 0 l 114 0 m 111 -274 l 111 -86 l 314 -86 l 314 -274 l 111 -274 z "},"Ì":{"ha":425,"x_min":-1,"x_max":315,"o":"m 114 0 l 114 956 l 311 956 l 311 0 l 114 0 m 181 1042 l -1 1235 l -1 1242 l 183 1242 l 315 1049 l 315 1042 l 181 1042 z "},"Ỉ":{"ha":425,"x_min":31,"x_max":394,"o":"m 114 0 l 114 956 l 311 956 l 311 0 l 114 0 m 125 1024 q 138 1085 125 1068 q 190 1113 150 1101 l 217 1119 q 264 1138 254 1129 q 274 1167 274 1146 q 265 1197 274 1188 q 237 1208 256 1206 q 174 1210 218 1210 q 31 1203 97 1210 l 31 1293 q 203 1306 113 1306 q 310 1298 271 1306 q 372 1263 350 1290 q 394 1179 394 1236 q 374 1103 394 1125 q 300 1067 354 1081 l 275 1058 q 233 1042 242 1049 q 225 1015 225 1035 l 125 1015 l 125 1024 z "},"Ȋ":{"ha":425,"x_min":7,"x_max":417,"o":"m 114 0 l 114 956 l 311 956 l 311 0 l 114 0 m 7 1035 q 21 1147 7 1104 q 80 1215 35 1190 q 214 1240 125 1240 q 345 1215 301 1240 q 403 1147 389 1190 q 417 1035 417 1104 l 311 1035 q 306 1091 311 1072 q 281 1121 301 1110 q 214 1132 260 1132 q 147 1121 168 1132 q 119 1091 125 1110 q 114 1035 114 1072 l 7 1035 z "},"Ī":{"ha":425,"x_min":29,"x_max":394,"o":"m 114 0 l 114 956 l 311 956 l 311 0 l 114 0 m 29 1069 l 29 1232 l 394 1232 l 394 1069 l 29 1069 z "},"Į":{"ha":425,"x_min":69,"x_max":313,"o":"m 232 -272 q 69 -158 69 -272 q 93 -78 69 -119 q 156 0 117 -37 l 114 0 l 114 956 l 311 956 l 311 0 q 253 -53 281 -19 q 225 -117 225 -87 q 239 -153 225 -140 q 289 -165 253 -165 l 313 -164 l 313 -268 q 284 -270 310 -268 q 232 -272 258 -272 z "},"Ĩ":{"ha":425,"x_min":-53,"x_max":476,"o":"m 114 0 l 114 956 l 311 956 l 311 0 l 114 0 m 476 1235 q 469 1125 476 1163 q 437 1067 463 1088 q 357 1046 411 1046 q 287 1052 321 1046 q 193 1074 253 1058 q 144 1085 182 1076 q 82 1094 107 1094 q 50 1083 56 1094 q 44 1031 44 1071 l -53 1031 q -46 1140 -53 1101 q -13 1199 -39 1178 q 68 1219 13 1219 q 139 1213 104 1219 q 231 1192 174 1206 q 343 1171 311 1171 q 375 1183 369 1171 q 381 1235 381 1194 l 476 1235 z "},"J":{"ha":539,"x_min":36,"x_max":432,"o":"m 36 158 q 178 171 140 160 q 224 219 215 182 q 233 363 233 256 l 233 956 l 432 956 l 432 418 q 411 121 432 199 q 317 22 390 43 q 36 0 244 1 l 36 158 z "},"Ĵ":{"ha":539,"x_min":36,"x_max":556,"o":"m 36 158 q 178 171 140 160 q 224 219 215 182 q 233 363 233 256 l 233 956 l 432 956 l 432 418 q 411 121 432 199 q 317 22 390 43 q 36 0 244 1 l 36 158 m 110 1032 l 110 1042 l 243 1233 l 421 1233 l 556 1042 l 556 1032 l 433 1032 l 331 1150 l 231 1032 l 110 1032 z "},"K":{"ha":943,"x_min":115,"x_max":926,"o":"m 699 0 l 408 401 l 313 401 l 313 0 l 115 0 l 115 956 l 313 956 l 313 572 l 408 572 l 704 956 l 922 956 l 567 500 l 926 0 l 699 0 z "},"Ķ":{"ha":943,"x_min":115,"x_max":926,"o":"m 699 0 l 408 401 l 313 401 l 313 0 l 115 0 l 115 956 l 313 956 l 313 572 l 408 572 l 704 956 l 922 956 l 567 500 l 926 0 l 699 0 m 368 -325 q 440 -315 422 -325 q 458 -271 458 -304 l 458 -250 l 383 -250 l 383 -85 l 576 -85 l 576 -199 q 563 -327 576 -286 q 506 -385 549 -368 q 368 -401 463 -401 l 368 -325 z "},"L":{"ha":751,"x_min":115,"x_max":717,"o":"m 115 0 l 115 956 l 313 956 l 313 179 l 717 179 l 717 0 l 115 0 z "},"Ǉ":{"ha":1290,"x_min":115,"x_max":1183,"o":"m 115 0 l 115 956 l 313 956 l 313 179 l 717 179 l 717 0 l 115 0 m 788 158 q 929 171 892 160 q 976 219 967 182 q 985 363 985 256 l 985 956 l 1183 956 l 1183 418 q 1163 121 1183 199 q 1069 22 1142 43 q 788 0 996 1 l 788 158 z "},"Ĺ":{"ha":751,"x_min":115,"x_max":717,"o":"m 115 0 l 115 956 l 313 956 l 313 179 l 717 179 l 717 0 l 115 0 m 204 1033 l 204 1040 l 335 1233 l 521 1233 l 521 1226 l 338 1033 l 204 1033 z "},"Ľ":{"ha":751,"x_min":115,"x_max":774,"o":"m 115 0 l 115 956 l 313 956 l 313 179 l 717 179 l 717 0 l 115 0 m 583 761 l 604 1032 l 604 1117 l 774 1117 l 774 1032 l 711 761 l 583 761 z "},"Ļ":{"ha":751,"x_min":115,"x_max":717,"o":"m 115 0 l 115 956 l 313 956 l 313 179 l 717 179 l 717 0 l 115 0 m 289 -325 q 361 -315 343 -325 q 379 -271 379 -304 l 379 -250 l 304 -250 l 304 -85 l 497 -85 l 497 -199 q 483 -327 497 -286 q 426 -385 469 -368 q 289 -401 383 -401 l 289 -325 z "},"Ŀ":{"ha":750,"x_min":115,"x_max":717,"o":"m 115 0 l 115 956 l 313 956 l 313 179 l 717 179 l 717 0 l 115 0 m 488 429 l 488 617 l 690 617 l 690 429 l 488 429 z "},"ǈ":{"ha":1133,"x_min":115,"x_max":1038,"o":"m 115 0 l 115 956 l 313 956 l 313 179 l 717 179 l 717 0 l 115 0 m 847 864 l 847 1032 l 1038 1032 l 1038 864 l 847 864 m 728 -136 q 810 -129 785 -136 q 842 -108 835 -122 q 849 -62 849 -94 l 849 708 l 1035 708 l 1035 -22 q 1010 -193 1035 -140 q 924 -262 985 -246 q 728 -278 863 -278 l 728 -136 z "},"Ł":{"ha":746,"x_min":32,"x_max":717,"o":"m 313 179 l 717 179 l 717 0 l 115 0 l 115 374 l 32 342 l 32 488 l 115 519 l 115 956 l 313 956 l 313 593 l 538 678 l 538 533 l 313 449 l 313 179 z "},"M":{"ha":1246,"x_min":114,"x_max":1132,"o":"m 942 0 l 942 653 l 935 653 l 688 0 l 551 0 l 306 653 l 299 653 l 299 0 l 114 0 l 114 956 l 386 956 l 619 343 l 628 343 l 861 956 l 1132 956 l 1132 0 l 942 0 z "},"N":{"ha":1001,"x_min":114,"x_max":889,"o":"m 700 0 l 310 607 l 304 607 l 304 0 l 114 0 l 114 956 l 318 956 l 692 383 l 699 383 l 699 956 l 889 956 l 889 0 l 700 0 z "},"Ǌ":{"ha":1540,"x_min":114,"x_max":1433,"o":"m 700 0 l 310 607 l 304 607 l 304 0 l 114 0 l 114 956 l 318 956 l 692 383 l 699 383 l 699 956 l 889 956 l 889 0 l 700 0 m 1038 158 q 1179 171 1142 160 q 1226 219 1217 182 q 1235 363 1235 256 l 1235 956 l 1433 956 l 1433 418 q 1413 121 1433 199 q 1319 22 1392 43 q 1038 0 1246 1 l 1038 158 z "},"Ń":{"ha":1001,"x_min":114,"x_max":889,"o":"m 700 0 l 310 607 l 304 607 l 304 0 l 114 0 l 114 956 l 318 956 l 692 383 l 699 383 l 699 956 l 889 956 l 889 0 l 700 0 m 428 1033 l 428 1040 l 558 1233 l 744 1233 l 744 1226 l 561 1033 l 428 1033 z "},"Ň":{"ha":1001,"x_min":114,"x_max":889,"o":"m 700 0 l 310 607 l 304 607 l 304 0 l 114 0 l 114 956 l 318 956 l 692 383 l 699 383 l 699 956 l 889 956 l 889 0 l 700 0 m 413 1032 l 279 1224 l 279 1233 l 400 1233 l 501 1115 l 603 1233 l 725 1233 l 725 1224 l 590 1032 l 413 1032 z "},"Ņ":{"ha":1001,"x_min":114,"x_max":889,"o":"m 700 0 l 310 607 l 304 607 l 304 0 l 114 0 l 114 956 l 318 956 l 692 383 l 699 383 l 699 956 l 889 956 l 889 0 l 700 0 m 397 -325 q 469 -315 451 -325 q 488 -271 488 -304 l 488 -250 l 413 -250 l 413 -85 l 606 -85 l 606 -199 q 592 -327 606 -286 q 535 -385 578 -368 q 397 -401 492 -401 l 397 -325 z "},"Ṅ":{"ha":1001,"x_min":114,"x_max":889,"o":"m 700 0 l 310 607 l 304 607 l 304 0 l 114 0 l 114 956 l 318 956 l 692 383 l 699 383 l 699 956 l 889 956 l 889 0 l 700 0 m 422 1072 l 422 1215 l 579 1215 l 579 1072 l 422 1072 z "},"Ŋ":{"ha":1001,"x_min":114,"x_max":889,"o":"m 889 956 l 889 -21 q 863 -193 889 -140 q 776 -262 838 -246 q 578 -278 714 -278 l 578 -136 q 659 -129 633 -136 q 692 -108 685 -122 q 699 -62 699 -93 l 699 4 l 310 607 l 304 607 l 304 0 l 114 0 l 114 956 l 318 956 l 692 383 l 699 383 l 699 956 l 889 956 z "},"Ɲ":{"ha":1001,"x_min":-8,"x_max":889,"o":"m 889 956 l 889 0 l 700 0 l 310 607 l 304 607 l 304 -22 q 278 -193 304 -140 q 190 -262 253 -246 q -8 -278 128 -278 l -8 -136 q 74 -129 49 -136 q 106 -108 99 -122 q 114 -62 114 -93 l 114 956 l 318 956 l 692 383 l 699 383 l 699 956 l 889 956 z "},"ǋ":{"ha":1383,"x_min":114,"x_max":1288,"o":"m 700 0 l 310 607 l 304 607 l 304 0 l 114 0 l 114 956 l 318 956 l 692 383 l 699 383 l 699 956 l 889 956 l 889 0 l 700 0 m 1097 864 l 1097 1032 l 1288 1032 l 1288 864 l 1097 864 m 978 -136 q 1060 -129 1035 -136 q 1092 -108 1085 -122 q 1099 -62 1099 -94 l 1099 708 l 1285 708 l 1285 -22 q 1260 -193 1285 -140 q 1174 -262 1235 -246 q 978 -278 1113 -278 l 978 -136 z "},"Ñ":{"ha":1001,"x_min":114,"x_max":889,"o":"m 700 0 l 310 607 l 304 607 l 304 0 l 114 0 l 114 956 l 318 956 l 692 383 l 699 383 l 699 956 l 889 956 l 889 0 l 700 0 m 764 1249 q 757 1139 764 1176 q 724 1081 750 1101 q 644 1060 699 1060 q 574 1066 608 1060 q 481 1088 540 1072 q 432 1099 469 1090 q 369 1108 394 1108 q 338 1097 343 1108 q 332 1044 332 1085 l 235 1044 q 242 1153 235 1115 q 274 1213 249 1192 q 356 1233 300 1233 q 426 1226 392 1233 q 518 1206 461 1219 q 631 1185 599 1185 q 663 1197 657 1185 q 668 1249 668 1208 l 764 1249 z "},"O":{"ha":985,"x_min":86,"x_max":899,"o":"m 492 -11 q 213 31 296 -11 q 108 167 129 72 q 86 478 86 261 q 108 789 86 694 q 213 925 129 883 q 492 967 296 967 q 772 925 688 967 q 877 789 856 883 q 899 478 899 694 q 877 167 899 261 q 772 31 856 72 q 492 -11 688 -11 m 492 160 q 640 175 601 160 q 688 249 678 190 q 699 478 699 308 q 688 706 699 647 q 640 781 678 765 q 492 796 601 796 q 344 781 382 796 q 296 706 307 765 q 285 478 285 646 q 296 250 285 310 q 344 175 307 190 q 492 160 382 160 z "},"Ó":{"ha":979,"x_min":86,"x_max":899,"o":"m 492 -11 q 213 31 296 -11 q 108 167 129 72 q 86 478 86 261 q 108 789 86 694 q 213 925 129 883 q 492 967 296 967 q 772 925 688 967 q 877 789 856 883 q 899 478 899 694 q 877 167 899 261 q 772 31 856 72 q 492 -11 688 -11 m 492 160 q 640 175 601 160 q 688 249 678 190 q 699 478 699 308 q 688 706 699 647 q 640 781 678 765 q 492 796 601 796 q 344 781 382 796 q 296 706 307 765 q 285 478 285 646 q 296 250 285 310 q 344 175 307 190 q 492 160 382 160 m 404 1042 l 404 1049 l 535 1242 l 721 1242 l 721 1235 l 538 1042 l 404 1042 z "},"Ŏ":{"ha":985,"x_min":86,"x_max":899,"o":"m 492 -11 q 213 31 296 -11 q 108 167 129 72 q 86 478 86 261 q 108 789 86 694 q 213 925 129 883 q 492 967 296 967 q 772 925 688 967 q 877 789 856 883 q 899 478 899 694 q 877 167 899 261 q 772 31 856 72 q 492 -11 688 -11 m 492 160 q 640 175 601 160 q 688 249 678 190 q 699 478 699 308 q 688 706 699 647 q 640 781 678 765 q 492 796 601 796 q 344 781 382 796 q 296 706 307 765 q 285 478 285 646 q 296 250 285 310 q 344 175 307 190 q 492 160 382 160 m 697 1233 q 683 1121 697 1164 q 624 1053 669 1078 q 490 1028 579 1028 q 359 1053 403 1028 q 301 1121 315 1078 q 288 1233 288 1164 l 393 1233 q 398 1177 393 1196 q 424 1147 403 1158 q 490 1136 444 1136 q 558 1147 536 1136 q 585 1177 579 1158 q 590 1233 590 1196 l 697 1233 z "},"Ǒ":{"ha":985,"x_min":86,"x_max":899,"o":"m 492 -11 q 213 31 296 -11 q 108 167 129 72 q 86 478 86 261 q 108 789 86 694 q 213 925 129 883 q 492 967 296 967 q 772 925 688 967 q 877 789 856 883 q 899 478 899 694 q 877 167 899 261 q 772 31 856 72 q 492 -11 688 -11 m 492 160 q 640 175 601 160 q 688 249 678 190 q 699 478 699 308 q 688 706 699 647 q 640 781 678 765 q 492 796 601 796 q 344 781 382 796 q 296 706 307 765 q 285 478 285 646 q 296 250 285 310 q 344 175 307 190 q 492 160 382 160 m 404 1032 l 271 1224 l 271 1233 l 392 1233 l 493 1115 l 594 1233 l 717 1233 l 717 1224 l 582 1032 l 404 1032 z "},"Ô":{"ha":979,"x_min":86,"x_max":899,"o":"m 492 -11 q 213 31 296 -11 q 108 167 129 72 q 86 478 86 261 q 108 789 86 694 q 213 925 129 883 q 492 967 296 967 q 772 925 688 967 q 877 789 856 883 q 899 478 899 694 q 877 167 899 261 q 772 31 856 72 q 492 -11 688 -11 m 492 160 q 640 175 601 160 q 688 249 678 190 q 699 478 699 308 q 688 706 699 647 q 640 781 678 765 q 492 796 601 796 q 344 781 382 796 q 296 706 307 765 q 285 478 285 646 q 296 250 285 310 q 344 175 307 190 q 492 160 382 160 m 267 1042 l 267 1051 l 400 1243 l 578 1243 l 713 1051 l 713 1042 l 590 1042 l 488 1160 l 388 1042 l 267 1042 z "},"Ố":{"ha":985,"x_min":86,"x_max":899,"o":"m 492 -11 q 213 31 296 -11 q 108 167 129 72 q 86 478 86 261 q 108 789 86 694 q 213 925 129 883 q 492 967 296 967 q 772 925 688 967 q 877 789 856 883 q 899 478 899 694 q 877 167 899 261 q 772 31 856 72 q 492 -11 688 -11 m 492 160 q 640 175 601 160 q 688 249 678 190 q 699 478 699 308 q 688 706 699 647 q 640 781 678 765 q 492 796 601 796 q 344 781 382 796 q 296 706 307 765 q 285 478 285 646 q 296 250 285 310 q 344 175 307 190 q 492 160 382 160 m 267 1033 l 267 1043 l 400 1235 l 578 1235 l 713 1043 l 713 1033 l 590 1033 l 488 1151 l 388 1033 l 267 1033 m 518 1275 l 518 1282 l 649 1475 l 835 1475 l 835 1468 l 651 1275 l 518 1275 z "},"Ộ":{"ha":985,"x_min":86,"x_max":899,"o":"m 492 -11 q 213 31 296 -11 q 108 167 129 72 q 86 478 86 261 q 108 789 86 694 q 213 925 129 883 q 492 967 296 967 q 772 925 688 967 q 877 789 856 883 q 899 478 899 694 q 877 167 899 261 q 772 31 856 72 q 492 -11 688 -11 m 492 160 q 640 175 601 160 q 688 249 678 190 q 699 478 699 308 q 688 706 699 647 q 640 781 678 765 q 492 796 601 796 q 344 781 382 796 q 296 706 307 765 q 285 478 285 646 q 296 250 285 310 q 344 175 307 190 q 492 160 382 160 m 392 -274 l 392 -86 l 594 -86 l 594 -274 l 392 -274 m 271 1032 l 271 1042 l 404 1233 l 582 1233 l 717 1042 l 717 1032 l 594 1032 l 492 1150 l 392 1032 l 271 1032 z "},"Ồ":{"ha":985,"x_min":86,"x_max":899,"o":"m 492 -11 q 213 31 296 -11 q 108 167 129 72 q 86 478 86 261 q 108 789 86 694 q 213 925 129 883 q 492 967 296 967 q 772 925 688 967 q 877 789 856 883 q 899 478 899 694 q 877 167 899 261 q 772 31 856 72 q 492 -11 688 -11 m 492 160 q 640 175 601 160 q 688 249 678 190 q 699 478 699 308 q 688 706 699 647 q 640 781 678 765 q 492 796 601 796 q 344 781 382 796 q 296 706 307 765 q 285 478 285 646 q 296 250 285 310 q 344 175 307 190 q 492 160 382 160 m 268 1033 l 268 1043 l 401 1235 l 579 1235 l 714 1043 l 714 1033 l 592 1033 l 489 1151 l 389 1033 l 268 1033 m 578 1275 l 396 1468 l 396 1475 l 581 1475 l 713 1282 l 713 1275 l 578 1275 z "},"Ổ":{"ha":985,"x_min":86,"x_max":899,"o":"m 492 -11 q 213 31 296 -11 q 108 167 129 72 q 86 478 86 261 q 108 789 86 694 q 213 925 129 883 q 492 967 296 967 q 772 925 688 967 q 877 789 856 883 q 899 478 899 694 q 877 167 899 261 q 772 31 856 72 q 492 -11 688 -11 m 492 160 q 640 175 601 160 q 688 249 678 190 q 699 478 699 308 q 688 706 699 647 q 640 781 678 765 q 492 796 601 796 q 344 781 382 796 q 296 706 307 765 q 285 478 285 646 q 296 250 285 310 q 344 175 307 190 q 492 160 382 160 m 271 1033 l 271 1043 l 404 1235 l 582 1235 l 717 1043 l 717 1033 l 594 1033 l 492 1151 l 392 1033 l 271 1033 m 542 1269 q 554 1329 542 1313 q 607 1357 567 1346 l 633 1365 q 681 1383 671 1375 q 690 1411 690 1390 q 681 1442 690 1433 q 653 1453 672 1451 q 590 1456 635 1456 q 447 1449 514 1456 l 447 1538 q 530 1547 481 1543 q 619 1551 579 1551 q 727 1544 688 1551 q 789 1508 767 1536 q 811 1424 811 1481 q 791 1348 811 1369 q 717 1311 771 1326 l 692 1304 q 649 1288 657 1294 q 642 1261 642 1281 l 542 1261 l 542 1269 z "},"Ỗ":{"ha":985,"x_min":86,"x_max":899,"o":"m 492 -11 q 213 31 296 -11 q 108 167 129 72 q 86 478 86 261 q 108 789 86 694 q 213 925 129 883 q 492 967 296 967 q 772 925 688 967 q 877 789 856 883 q 899 478 899 694 q 877 167 899 261 q 772 31 856 72 q 492 -11 688 -11 m 492 160 q 640 175 601 160 q 688 249 678 190 q 699 478 699 308 q 688 706 699 647 q 640 781 678 765 q 492 796 601 796 q 344 781 382 796 q 296 706 307 765 q 285 478 285 646 q 296 250 285 310 q 344 175 307 190 q 492 160 382 160 m 268 1033 l 268 1043 l 401 1235 l 579 1235 l 714 1043 l 714 1033 l 592 1033 l 489 1151 l 389 1033 l 268 1033 m 757 1476 q 750 1367 757 1404 q 717 1308 743 1329 q 638 1288 692 1288 q 567 1294 601 1288 q 474 1315 533 1300 q 425 1327 463 1318 q 363 1336 388 1336 q 331 1324 336 1336 q 325 1272 325 1313 l 228 1272 q 235 1381 228 1343 q 267 1440 242 1419 q 349 1461 293 1461 q 419 1454 385 1461 q 511 1433 454 1447 q 624 1413 592 1413 q 656 1424 650 1413 q 661 1476 661 1436 l 757 1476 z "},"Ȍ":{"ha":985,"x_min":86,"x_max":899,"o":"m 492 -11 q 213 31 296 -11 q 108 167 129 72 q 86 478 86 261 q 108 789 86 694 q 213 925 129 883 q 492 967 296 967 q 772 925 688 967 q 877 789 856 883 q 899 478 899 694 q 877 167 899 261 q 772 31 856 72 q 492 -11 688 -11 m 492 160 q 640 175 601 160 q 688 249 678 190 q 699 478 699 308 q 688 706 699 647 q 640 781 678 765 q 492 796 601 796 q 344 781 382 796 q 296 706 307 765 q 285 478 285 646 q 296 250 285 310 q 344 175 307 190 q 492 160 382 160 m 435 1047 l 322 1047 l 163 1214 l 163 1221 l 318 1221 l 435 1053 l 435 1047 m 699 1047 l 588 1047 l 428 1214 l 428 1221 l 582 1221 l 699 1053 l 699 1047 z "},"Ö":{"ha":979,"x_min":86,"x_max":899,"o":"m 492 -11 q 213 31 296 -11 q 108 167 129 72 q 86 478 86 261 q 108 789 86 694 q 213 925 129 883 q 492 967 296 967 q 772 925 688 967 q 877 789 856 883 q 899 478 899 694 q 877 167 899 261 q 772 31 856 72 q 492 -11 688 -11 m 492 160 q 640 175 601 160 q 688 249 678 190 q 699 478 699 308 q 688 706 699 647 q 640 781 678 765 q 492 796 601 796 q 344 781 382 796 q 296 706 307 765 q 285 478 285 646 q 296 250 285 310 q 344 175 307 190 q 492 160 382 160 m 274 1079 l 274 1222 l 432 1222 l 432 1079 l 274 1079 m 550 1079 l 550 1222 l 708 1222 l 708 1079 l 550 1079 z "},"Ọ":{"ha":985,"x_min":86,"x_max":899,"o":"m 492 -11 q 213 31 296 -11 q 108 167 129 72 q 86 478 86 261 q 108 789 86 694 q 213 925 129 883 q 492 967 296 967 q 772 925 688 967 q 877 789 856 883 q 899 478 899 694 q 877 167 899 261 q 772 31 856 72 q 492 -11 688 -11 m 492 160 q 640 175 601 160 q 688 249 678 190 q 699 478 699 308 q 688 706 699 647 q 640 781 678 765 q 492 796 601 796 q 344 781 382 796 q 296 706 307 765 q 285 478 285 646 q 296 250 285 310 q 344 175 307 190 q 492 160 382 160 m 392 -274 l 392 -86 l 594 -86 l 594 -274 l 392 -274 z "},"Ò":{"ha":979,"x_min":86,"x_max":899,"o":"m 492 -11 q 213 31 296 -11 q 108 167 129 72 q 86 478 86 261 q 108 789 86 694 q 213 925 129 883 q 492 967 296 967 q 772 925 688 967 q 877 789 856 883 q 899 478 899 694 q 877 167 899 261 q 772 31 856 72 q 492 -11 688 -11 m 492 160 q 640 175 601 160 q 688 249 678 190 q 699 478 699 308 q 688 706 699 647 q 640 781 678 765 q 492 796 601 796 q 344 781 382 796 q 296 706 307 765 q 285 478 285 646 q 296 250 285 310 q 344 175 307 190 q 492 160 382 160 m 435 1042 l 253 1235 l 253 1242 l 438 1242 l 569 1049 l 569 1042 l 435 1042 z "},"Ỏ":{"ha":985,"x_min":86,"x_max":899,"o":"m 492 -11 q 213 31 296 -11 q 108 167 129 72 q 86 478 86 261 q 108 789 86 694 q 213 925 129 883 q 492 967 296 967 q 772 925 688 967 q 877 789 856 883 q 899 478 899 694 q 877 167 899 261 q 772 31 856 72 q 492 -11 688 -11 m 492 160 q 640 175 601 160 q 688 249 678 190 q 699 478 699 308 q 688 706 699 647 q 640 781 678 765 q 492 796 601 796 q 344 781 382 796 q 296 706 307 765 q 285 478 285 646 q 296 250 285 310 q 344 175 307 190 q 492 160 382 160 m 406 1024 q 418 1085 406 1068 q 471 1113 431 1101 l 497 1119 q 544 1138 535 1129 q 554 1167 554 1146 q 545 1197 554 1188 q 517 1208 536 1206 q 454 1210 499 1210 q 311 1203 378 1210 l 311 1293 q 483 1306 393 1306 q 591 1298 551 1306 q 653 1263 631 1290 q 675 1179 675 1236 q 655 1103 675 1125 q 581 1067 635 1081 l 556 1058 q 514 1042 522 1049 q 506 1015 506 1035 l 406 1015 l 406 1024 z "},"Ơ":{"ha":985,"x_min":86,"x_max":978,"o":"m 978 1083 l 978 1056 q 967 957 978 992 q 924 904 956 922 q 828 882 892 886 q 886 744 874 832 q 899 478 899 657 q 877 167 899 261 q 772 31 856 72 q 492 -11 688 -11 q 213 31 296 -11 q 108 167 129 72 q 86 478 86 261 q 108 789 86 694 q 213 925 129 883 q 492 967 296 967 q 678 954 603 967 l 678 956 l 768 956 q 825 963 807 956 q 849 989 843 971 q 854 1044 854 1007 l 854 1083 l 978 1083 m 492 160 q 640 175 601 160 q 688 249 678 190 q 699 478 699 308 q 688 706 699 647 q 640 781 678 765 q 492 796 601 796 q 344 781 382 796 q 296 706 307 765 q 285 478 285 646 q 296 250 285 310 q 344 175 307 190 q 492 160 382 160 z "},"Ớ":{"ha":985,"x_min":86,"x_max":978,"o":"m 978 1083 l 978 1056 q 967 957 978 992 q 924 904 956 922 q 828 882 892 886 q 886 744 874 832 q 899 478 899 657 q 877 167 899 261 q 772 31 856 72 q 492 -11 688 -11 q 213 31 296 -11 q 108 167 129 72 q 86 478 86 261 q 108 789 86 694 q 213 925 129 883 q 492 967 296 967 q 678 954 603 967 l 678 956 l 768 956 q 825 963 807 956 q 849 989 843 971 q 854 1044 854 1007 l 854 1083 l 978 1083 m 492 160 q 640 175 601 160 q 688 249 678 190 q 699 478 699 308 q 688 706 699 647 q 640 781 678 765 q 492 796 601 796 q 344 781 382 796 q 296 706 307 765 q 285 478 285 646 q 296 250 285 310 q 344 175 307 190 q 492 160 382 160 m 419 1033 l 419 1040 l 550 1233 l 736 1233 l 736 1226 l 553 1033 l 419 1033 z "},"Ợ":{"ha":985,"x_min":86,"x_max":978,"o":"m 978 1083 l 978 1056 q 967 957 978 992 q 924 904 956 922 q 828 882 892 886 q 886 744 874 832 q 899 478 899 657 q 877 167 899 261 q 772 31 856 72 q 492 -11 688 -11 q 213 31 296 -11 q 108 167 129 72 q 86 478 86 261 q 108 789 86 694 q 213 925 129 883 q 492 967 296 967 q 678 954 603 967 l 678 956 l 768 956 q 825 963 807 956 q 849 989 843 971 q 854 1044 854 1007 l 854 1083 l 978 1083 m 492 160 q 640 175 601 160 q 688 249 678 190 q 699 478 699 308 q 688 706 699 647 q 640 781 678 765 q 492 796 601 796 q 344 781 382 796 q 296 706 307 765 q 285 478 285 646 q 296 250 285 310 q 344 175 307 190 q 492 160 382 160 m 392 -274 l 392 -86 l 594 -86 l 594 -274 l 392 -274 z "},"Ờ":{"ha":985,"x_min":86,"x_max":978,"o":"m 978 1083 l 978 1056 q 967 957 978 992 q 924 904 956 922 q 828 882 892 886 q 886 744 874 832 q 899 478 899 657 q 877 167 899 261 q 772 31 856 72 q 492 -11 688 -11 q 213 31 296 -11 q 108 167 129 72 q 86 478 86 261 q 108 789 86 694 q 213 925 129 883 q 492 967 296 967 q 678 954 603 967 l 678 956 l 768 956 q 825 963 807 956 q 849 989 843 971 q 854 1044 854 1007 l 854 1083 l 978 1083 m 492 160 q 640 175 601 160 q 688 249 678 190 q 699 478 699 308 q 688 706 699 647 q 640 781 678 765 q 492 796 601 796 q 344 781 382 796 q 296 706 307 765 q 285 478 285 646 q 296 250 285 310 q 344 175 307 190 q 492 160 382 160 m 433 1033 l 251 1226 l 251 1233 l 436 1233 l 568 1040 l 568 1033 l 433 1033 z "},"Ở":{"ha":985,"x_min":86,"x_max":978,"o":"m 978 1083 l 978 1056 q 967 957 978 992 q 924 904 956 922 q 828 882 892 886 q 886 744 874 832 q 899 478 899 657 q 877 167 899 261 q 772 31 856 72 q 492 -11 688 -11 q 213 31 296 -11 q 108 167 129 72 q 86 478 86 261 q 108 789 86 694 q 213 925 129 883 q 492 967 296 967 q 678 954 603 967 l 678 956 l 768 956 q 825 963 807 956 q 849 989 843 971 q 854 1044 854 1007 l 854 1083 l 978 1083 m 492 160 q 640 175 601 160 q 688 249 678 190 q 699 478 699 308 q 688 706 699 647 q 640 781 678 765 q 492 796 601 796 q 344 781 382 796 q 296 706 307 765 q 285 478 285 646 q 296 250 285 310 q 344 175 307 190 q 492 160 382 160 m 406 1024 q 418 1085 406 1068 q 471 1113 431 1101 l 497 1119 q 544 1138 535 1129 q 554 1167 554 1146 q 545 1197 554 1188 q 517 1208 536 1206 q 454 1210 499 1210 q 311 1203 378 1210 l 311 1293 q 483 1306 393 1306 q 591 1298 551 1306 q 653 1263 631 1290 q 675 1179 675 1236 q 655 1103 675 1125 q 581 1067 635 1081 l 556 1058 q 514 1042 522 1049 q 506 1015 506 1035 l 406 1015 l 406 1024 z "},"Ỡ":{"ha":985,"x_min":86,"x_max":978,"o":"m 978 1083 l 978 1056 q 967 957 978 992 q 924 904 956 922 q 828 882 892 886 q 886 744 874 832 q 899 478 899 657 q 877 167 899 261 q 772 31 856 72 q 492 -11 688 -11 q 213 31 296 -11 q 108 167 129 72 q 86 478 86 261 q 108 789 86 694 q 213 925 129 883 q 492 967 296 967 q 678 954 603 967 l 678 956 l 768 956 q 825 963 807 956 q 849 989 843 971 q 854 1044 854 1007 l 854 1083 l 978 1083 m 492 160 q 640 175 601 160 q 688 249 678 190 q 699 478 699 308 q 688 706 699 647 q 640 781 678 765 q 492 796 601 796 q 344 781 382 796 q 296 706 307 765 q 285 478 285 646 q 296 250 285 310 q 344 175 307 190 q 492 160 382 160 m 757 1235 q 750 1125 757 1163 q 717 1067 743 1088 q 638 1046 692 1046 q 567 1052 601 1046 q 474 1074 533 1058 q 425 1085 463 1076 q 363 1094 388 1094 q 331 1083 336 1094 q 325 1031 325 1071 l 228 1031 q 235 1140 228 1101 q 267 1199 242 1178 q 349 1219 293 1219 q 419 1213 385 1219 q 511 1192 454 1206 q 624 1171 592 1171 q 656 1183 650 1171 q 661 1235 661 1194 l 757 1235 z "},"Ő":{"ha":985,"x_min":86,"x_max":899,"o":"m 492 -11 q 213 31 296 -11 q 108 167 129 72 q 86 478 86 261 q 108 789 86 694 q 213 925 129 883 q 492 967 296 967 q 772 925 688 967 q 877 789 856 883 q 899 478 899 694 q 877 167 899 261 q 772 31 856 72 q 492 -11 688 -11 m 492 160 q 640 175 601 160 q 688 249 678 190 q 699 478 699 308 q 688 706 699 647 q 640 781 678 765 q 492 796 601 796 q 344 781 382 796 q 296 706 307 765 q 285 478 285 646 q 296 250 285 310 q 344 175 307 190 q 492 160 382 160 m 299 1047 l 299 1053 l 415 1221 l 569 1221 l 569 1214 l 410 1047 l 299 1047 m 563 1047 l 563 1053 l 679 1221 l 835 1221 l 835 1214 l 675 1047 l 563 1047 z "},"Ȏ":{"ha":985,"x_min":86,"x_max":899,"o":"m 492 -11 q 213 31 296 -11 q 108 167 129 72 q 86 478 86 261 q 108 789 86 694 q 213 925 129 883 q 492 967 296 967 q 772 925 688 967 q 877 789 856 883 q 899 478 899 694 q 877 167 899 261 q 772 31 856 72 q 492 -11 688 -11 m 492 160 q 640 175 601 160 q 688 249 678 190 q 699 478 699 308 q 688 706 699 647 q 640 781 678 765 q 492 796 601 796 q 344 781 382 796 q 296 706 307 765 q 285 478 285 646 q 296 250 285 310 q 344 175 307 190 q 492 160 382 160 m 288 1035 q 301 1147 288 1104 q 360 1215 315 1190 q 494 1240 406 1240 q 626 1215 582 1240 q 683 1147 669 1190 q 697 1035 697 1104 l 592 1035 q 587 1091 592 1072 q 561 1121 582 1110 q 494 1132 540 1132 q 427 1121 449 1132 q 400 1091 406 1110 q 394 1035 394 1072 l 288 1035 z "},"Ō":{"ha":985,"x_min":86,"x_max":899,"o":"m 492 -11 q 213 31 296 -11 q 108 167 129 72 q 86 478 86 261 q 108 789 86 694 q 213 925 129 883 q 492 967 296 967 q 772 925 688 967 q 877 789 856 883 q 899 478 899 694 q 877 167 899 261 q 772 31 856 72 q 492 -11 688 -11 m 492 160 q 640 175 601 160 q 688 249 678 190 q 699 478 699 308 q 688 706 699 647 q 640 781 678 765 q 492 796 601 796 q 344 781 382 796 q 296 706 307 765 q 285 478 285 646 q 296 250 285 310 q 344 175 307 190 q 492 160 382 160 m 310 1069 l 310 1232 l 675 1232 l 675 1069 l 310 1069 z "},"Ǫ":{"ha":979,"x_min":86,"x_max":894,"o":"m 669 -272 q 507 -160 507 -272 q 578 -8 507 -86 q 489 -11 522 -11 q 212 30 294 -11 q 108 165 129 71 q 86 478 86 258 q 108 791 86 697 q 212 926 129 885 q 489 967 294 967 q 767 926 683 967 q 872 790 850 885 q 894 478 894 696 q 888 252 894 332 q 855 117 881 172 q 775 33 829 63 q 693 -35 725 7 q 661 -118 661 -76 q 725 -165 661 -165 l 750 -164 l 750 -268 q 669 -272 700 -272 m 489 156 q 636 172 599 156 q 685 247 674 188 q 696 478 696 307 q 685 708 696 649 q 636 784 674 768 q 489 800 599 800 q 342 784 381 800 q 294 708 304 768 q 283 478 283 649 q 294 247 283 307 q 342 172 304 188 q 489 156 381 156 z "},"Ø":{"ha":976,"x_min":86,"x_max":899,"o":"m 813 897 q 870 810 851 864 q 894 681 889 756 q 899 478 899 606 q 877 167 899 261 q 772 31 856 72 q 492 -11 688 -11 q 292 4 364 -11 l 244 -76 l 86 -76 l 167 63 q 113 150 131 96 q 91 277 96 204 q 86 478 86 350 q 108 789 86 694 q 213 925 129 883 q 492 967 296 967 q 685 953 611 967 l 731 1032 l 892 1032 l 813 897 m 285 478 q 292 276 285 333 l 592 793 q 492 796 565 796 q 344 781 382 796 q 296 706 307 765 q 285 478 285 646 m 492 160 q 640 175 601 160 q 688 249 678 190 q 699 478 699 308 q 697 601 699 544 q 692 689 696 657 l 385 164 q 492 160 413 160 z "},"Ǿ":{"ha":976,"x_min":86,"x_max":899,"o":"m 813 897 q 870 810 851 864 q 894 681 889 756 q 899 478 899 606 q 877 167 899 261 q 772 31 856 72 q 492 -11 688 -11 q 292 4 364 -11 l 244 -76 l 86 -76 l 167 63 q 113 150 131 96 q 91 277 96 204 q 86 478 86 350 q 108 789 86 694 q 213 925 129 883 q 492 967 296 967 q 685 953 611 967 l 731 1032 l 892 1032 l 813 897 m 285 478 q 292 276 285 333 l 592 793 q 492 796 565 796 q 344 781 382 796 q 296 706 307 765 q 285 478 285 646 m 492 160 q 640 175 601 160 q 688 249 678 190 q 699 478 699 308 q 697 601 699 544 q 692 689 696 657 l 385 164 q 492 160 413 160 m 415 1033 l 415 1040 l 546 1233 l 732 1233 l 732 1226 l 549 1033 l 415 1033 z "},"Õ":{"ha":979,"x_min":86,"x_max":899,"o":"m 492 -11 q 213 31 296 -11 q 108 167 129 72 q 86 478 86 261 q 108 789 86 694 q 213 925 129 883 q 492 967 296 967 q 772 925 688 967 q 877 789 856 883 q 899 478 899 694 q 877 167 899 261 q 772 31 856 72 q 492 -11 688 -11 m 492 160 q 640 175 601 160 q 688 249 678 190 q 699 478 699 308 q 688 706 699 647 q 640 781 678 765 q 492 796 601 796 q 344 781 382 796 q 296 706 307 765 q 285 478 285 646 q 296 250 285 310 q 344 175 307 190 q 492 160 382 160 m 756 1247 q 749 1138 756 1175 q 716 1079 742 1100 q 636 1058 690 1058 q 566 1065 600 1058 q 472 1086 532 1071 q 424 1098 461 1089 q 361 1107 386 1107 q 329 1095 335 1107 q 324 1043 324 1083 l 226 1043 q 233 1152 226 1114 q 266 1211 240 1190 q 347 1232 292 1232 q 418 1225 383 1232 q 510 1204 453 1218 q 622 1183 590 1183 q 654 1195 649 1183 q 660 1247 660 1207 l 756 1247 z "},"Œ":{"ha":1415,"x_min":86,"x_max":1338,"o":"m 492 0 q 213 41 296 0 q 108 174 129 82 q 86 478 86 265 q 108 782 86 690 q 213 915 129 874 q 492 956 296 956 l 1338 956 l 1338 785 l 960 785 q 860 796 908 785 q 888 700 879 754 q 899 568 896 646 l 1272 568 l 1272 397 l 899 397 q 889 258 897 315 q 860 160 881 201 q 960 171 911 171 l 1338 171 l 1338 0 l 492 0 m 492 171 q 640 186 601 171 q 688 258 678 201 q 699 478 699 314 q 688 698 699 642 q 640 769 678 754 q 492 785 601 785 q 344 769 382 785 q 296 697 307 754 q 285 478 285 640 q 296 258 285 315 q 344 186 307 201 q 492 171 382 171 z "},"P":{"ha":903,"x_min":115,"x_max":847,"o":"m 115 956 l 556 956 q 739 918 675 956 q 825 813 803 881 q 847 638 847 744 q 826 467 847 535 q 739 358 804 399 q 551 318 674 318 l 313 318 l 313 0 l 115 0 l 115 956 m 471 489 q 590 500 554 489 q 638 541 626 511 q 649 638 649 571 q 638 733 649 704 q 592 774 628 763 q 474 785 557 785 l 313 785 l 313 489 l 471 489 z "},"Þ":{"ha":903,"x_min":115,"x_max":847,"o":"m 115 956 l 313 956 l 313 806 l 556 806 q 739 768 675 806 q 825 663 803 731 q 847 488 847 594 q 826 318 847 386 q 739 210 804 250 q 551 169 674 169 l 313 169 l 313 0 l 115 0 l 115 956 m 471 339 q 590 351 554 339 q 638 392 626 363 q 649 488 649 421 q 638 583 649 554 q 592 624 628 613 q 474 635 557 635 l 313 635 l 313 339 l 471 339 z "},"Q":{"ha":985,"x_min":86,"x_max":931,"o":"m 931 -153 l 931 -160 l 714 -160 l 610 -7 q 492 -11 557 -11 q 213 31 296 -11 q 108 167 129 72 q 86 478 86 261 q 108 789 86 694 q 213 925 129 883 q 492 967 296 967 q 772 925 688 967 q 877 789 856 883 q 899 478 899 694 q 892 260 899 338 q 863 127 886 182 q 790 42 840 72 l 931 -153 m 496 160 l 399 303 l 603 303 l 674 204 q 694 290 690 232 q 699 478 699 347 q 688 706 699 647 q 640 781 678 765 q 492 796 601 796 q 344 781 382 796 q 296 706 307 765 q 285 478 285 646 q 296 250 285 310 q 344 175 307 190 q 492 160 382 160 l 496 160 z "},"R":{"ha":943,"x_min":115,"x_max":878,"o":"m 668 0 l 528 346 l 313 346 l 313 0 l 115 0 l 115 956 l 565 956 q 753 919 689 956 q 840 817 818 882 q 861 651 861 753 q 725 372 861 425 l 878 0 l 668 0 m 486 517 q 603 528 567 517 q 651 566 640 539 q 661 651 661 593 q 651 738 661 711 q 605 774 640 764 q 488 785 569 785 l 313 785 l 313 517 l 486 517 z "},"Ŕ":{"ha":943,"x_min":115,"x_max":878,"o":"m 668 0 l 528 346 l 313 346 l 313 0 l 115 0 l 115 956 l 565 956 q 753 919 689 956 q 840 817 818 882 q 861 651 861 753 q 725 372 861 425 l 878 0 l 668 0 m 486 517 q 603 528 567 517 q 651 566 640 539 q 661 651 661 593 q 651 738 661 711 q 605 774 640 764 q 488 785 569 785 l 313 785 l 313 517 l 486 517 m 399 1033 l 399 1040 l 529 1233 l 715 1233 l 715 1226 l 532 1033 l 399 1033 z "},"Ř":{"ha":943,"x_min":115,"x_max":878,"o":"m 668 0 l 528 346 l 313 346 l 313 0 l 115 0 l 115 956 l 565 956 q 753 919 689 956 q 840 817 818 882 q 861 651 861 753 q 725 372 861 425 l 878 0 l 668 0 m 486 517 q 603 528 567 517 q 651 566 640 539 q 661 651 661 593 q 651 738 661 711 q 605 774 640 764 q 488 785 569 785 l 313 785 l 313 517 l 486 517 m 383 1032 l 250 1224 l 250 1233 l 371 1233 l 472 1115 l 574 1233 l 696 1233 l 696 1224 l 561 1032 l 383 1032 z "},"Ŗ":{"ha":943,"x_min":115,"x_max":878,"o":"m 668 0 l 528 346 l 313 346 l 313 0 l 115 0 l 115 956 l 565 956 q 753 919 689 956 q 840 817 818 882 q 861 651 861 753 q 725 372 861 425 l 878 0 l 668 0 m 486 517 q 603 528 567 517 q 651 566 640 539 q 661 651 661 593 q 651 738 661 711 q 605 774 640 764 q 488 785 569 785 l 313 785 l 313 517 l 486 517 m 368 -325 q 440 -315 422 -325 q 458 -271 458 -304 l 458 -250 l 383 -250 l 383 -85 l 576 -85 l 576 -199 q 563 -327 576 -286 q 506 -385 549 -368 q 368 -401 463 -401 l 368 -325 z "},"Ȑ":{"ha":943,"x_min":115,"x_max":878,"o":"m 668 0 l 528 346 l 313 346 l 313 0 l 115 0 l 115 956 l 565 956 q 753 919 689 956 q 840 817 818 882 q 861 651 861 753 q 725 372 861 425 l 878 0 l 668 0 m 486 517 q 603 528 567 517 q 651 566 640 539 q 661 651 661 593 q 651 738 661 711 q 605 774 640 764 q 488 785 569 785 l 313 785 l 313 517 l 486 517 m 414 1047 l 301 1047 l 142 1214 l 142 1221 l 297 1221 l 414 1053 l 414 1047 m 678 1047 l 567 1047 l 407 1214 l 407 1221 l 561 1221 l 678 1053 l 678 1047 z "},"Ṛ":{"ha":943,"x_min":115,"x_max":878,"o":"m 668 0 l 528 346 l 313 346 l 313 0 l 115 0 l 115 956 l 565 956 q 753 919 689 956 q 840 817 818 882 q 861 651 861 753 q 725 372 861 425 l 878 0 l 668 0 m 486 517 q 603 528 567 517 q 651 566 640 539 q 661 651 661 593 q 651 738 661 711 q 605 774 640 764 q 488 785 569 785 l 313 785 l 313 517 l 486 517 m 371 -274 l 371 -86 l 574 -86 l 574 -274 l 371 -274 z "},"Ȓ":{"ha":943,"x_min":115,"x_max":878,"o":"m 668 0 l 528 346 l 313 346 l 313 0 l 115 0 l 115 956 l 565 956 q 753 919 689 956 q 840 817 818 882 q 861 651 861 753 q 725 372 861 425 l 878 0 l 668 0 m 486 517 q 603 528 567 517 q 651 566 640 539 q 661 651 661 593 q 651 738 661 711 q 605 774 640 764 q 488 785 569 785 l 313 785 l 313 517 l 486 517 m 267 1035 q 281 1147 267 1104 q 340 1215 294 1190 q 474 1240 385 1240 q 605 1215 561 1240 q 663 1147 649 1190 q 676 1035 676 1104 l 571 1035 q 566 1091 571 1072 q 540 1121 561 1110 q 474 1132 519 1132 q 406 1121 428 1132 q 379 1091 385 1110 q 374 1035 374 1072 l 267 1035 z "},"S":{"ha":864,"x_min":74,"x_max":789,"o":"m 451 -11 q 101 11 247 -11 l 101 176 q 393 160 272 160 q 503 166 464 160 q 563 188 543 172 q 585 221 581 201 q 590 276 590 240 q 585 335 590 317 q 563 363 579 354 q 507 376 546 372 l 303 400 q 161 448 211 413 q 92 540 111 483 q 74 679 74 596 q 118 865 74 801 q 238 947 163 928 q 431 967 313 967 q 742 939 613 967 l 742 778 q 471 796 607 796 q 306 775 346 796 q 278 746 283 764 q 272 692 272 728 q 278 632 272 650 q 302 606 283 614 q 365 593 321 599 l 585 567 q 690 541 649 560 q 756 479 732 522 q 789 294 789 419 q 747 96 789 163 q 635 9 706 29 q 451 -11 565 -11 z "},"Ś":{"ha":864,"x_min":74,"x_max":789,"o":"m 451 -11 q 101 11 247 -11 l 101 176 q 393 160 272 160 q 503 166 464 160 q 563 188 543 172 q 585 221 581 201 q 590 276 590 240 q 585 335 590 317 q 563 363 579 354 q 507 376 546 372 l 303 400 q 161 448 211 413 q 92 540 111 483 q 74 679 74 596 q 118 865 74 801 q 238 947 163 928 q 431 967 313 967 q 742 939 613 967 l 742 778 q 471 796 607 796 q 306 775 346 796 q 278 746 283 764 q 272 692 272 728 q 278 632 272 650 q 302 606 283 614 q 365 593 321 599 l 585 567 q 690 541 649 560 q 756 479 732 522 q 789 294 789 419 q 747 96 789 163 q 635 9 706 29 q 451 -11 565 -11 m 358 1033 l 358 1040 l 489 1233 l 675 1233 l 675 1226 l 492 1033 l 358 1033 z "},"Ꞌ":{"ha":261,"x_min":46,"x_max":215,"o":"m 46 378 l 46 956 l 215 956 l 215 711 l 174 378 l 46 378 z "},"Š":{"ha":860,"x_min":74,"x_max":789,"o":"m 451 -11 q 101 11 247 -11 l 101 176 q 393 160 272 160 q 503 166 464 160 q 563 188 543 172 q 585 221 581 201 q 590 276 590 240 q 585 335 590 317 q 563 363 579 354 q 507 376 546 372 l 303 400 q 161 448 211 413 q 92 540 111 483 q 74 679 74 596 q 118 865 74 801 q 238 947 163 928 q 431 967 313 967 q 742 939 613 967 l 742 778 q 471 796 607 796 q 306 775 346 796 q 278 746 283 764 q 272 692 272 728 q 278 632 272 650 q 302 606 283 614 q 365 593 321 599 l 585 567 q 690 541 649 560 q 756 479 732 522 q 789 294 789 419 q 747 96 789 163 q 635 9 706 29 q 451 -11 565 -11 m 349 1042 l 215 1233 l 215 1243 l 336 1243 l 438 1125 l 539 1243 l 661 1243 l 661 1233 l 526 1042 l 349 1042 z "},"Ş":{"ha":864,"x_min":74,"x_max":789,"o":"m 789 294 q 753 105 789 171 q 653 15 717 39 q 492 -11 590 -8 l 443 -264 l 269 -264 l 269 -257 l 361 -10 q 101 11 211 -6 l 101 176 q 393 160 272 160 q 503 166 464 160 q 563 188 543 172 q 585 221 581 201 q 590 276 590 240 q 585 335 590 317 q 563 363 579 354 q 507 376 546 372 l 303 400 q 161 448 211 413 q 92 540 111 483 q 74 679 74 596 q 118 865 74 801 q 238 947 163 928 q 431 967 313 967 q 742 939 613 967 l 742 778 q 471 796 607 796 q 306 775 346 796 q 278 746 283 764 q 272 692 272 728 q 278 632 272 650 q 302 606 283 614 q 365 593 321 599 l 585 567 q 690 541 649 560 q 756 479 732 522 q 789 294 789 419 z "},"Ŝ":{"ha":864,"x_min":74,"x_max":789,"o":"m 451 -11 q 101 11 247 -11 l 101 176 q 393 160 272 160 q 503 166 464 160 q 563 188 543 172 q 585 221 581 201 q 590 276 590 240 q 585 335 590 317 q 563 363 579 354 q 507 376 546 372 l 303 400 q 161 448 211 413 q 92 540 111 483 q 74 679 74 596 q 118 865 74 801 q 238 947 163 928 q 431 967 313 967 q 742 939 613 967 l 742 778 q 471 796 607 796 q 306 775 346 796 q 278 746 283 764 q 272 692 272 728 q 278 632 272 650 q 302 606 283 614 q 365 593 321 599 l 585 567 q 690 541 649 560 q 756 479 732 522 q 789 294 789 419 q 747 96 789 163 q 635 9 706 29 q 451 -11 565 -11 m 210 1032 l 210 1042 l 343 1233 l 521 1233 l 656 1042 l 656 1032 l 533 1032 l 431 1150 l 331 1032 l 210 1032 z "},"Ș":{"ha":864,"x_min":74,"x_max":789,"o":"m 451 -11 q 101 11 247 -11 l 101 176 q 393 160 272 160 q 503 166 464 160 q 563 188 543 172 q 585 221 581 201 q 590 276 590 240 q 585 335 590 317 q 563 363 579 354 q 507 376 546 372 l 303 400 q 161 448 211 413 q 92 540 111 483 q 74 679 74 596 q 118 865 74 801 q 238 947 163 928 q 431 967 313 967 q 742 939 613 967 l 742 778 q 471 796 607 796 q 306 775 346 796 q 278 746 283 764 q 272 692 272 728 q 278 632 272 650 q 302 606 283 614 q 365 593 321 599 l 585 567 q 690 541 649 560 q 756 479 732 522 q 789 294 789 419 q 747 96 789 163 q 635 9 706 29 q 451 -11 565 -11 m 328 -325 q 400 -315 382 -325 q 418 -271 418 -304 l 418 -250 l 343 -250 l 343 -85 l 536 -85 l 536 -199 q 522 -327 536 -286 q 465 -385 508 -368 q 328 -401 422 -401 l 328 -325 z "},"Ṣ":{"ha":864,"x_min":74,"x_max":789,"o":"m 451 -11 q 101 11 247 -11 l 101 176 q 393 160 272 160 q 503 166 464 160 q 563 188 543 172 q 585 221 581 201 q 590 276 590 240 q 585 335 590 317 q 563 363 579 354 q 507 376 546 372 l 303 400 q 161 448 211 413 q 92 540 111 483 q 74 679 74 596 q 118 865 74 801 q 238 947 163 928 q 431 967 313 967 q 742 939 613 967 l 742 778 q 471 796 607 796 q 306 775 346 796 q 278 746 283 764 q 272 692 272 728 q 278 632 272 650 q 302 606 283 614 q 365 593 321 599 l 585 567 q 690 541 649 560 q 756 479 732 522 q 789 294 789 419 q 747 96 789 163 q 635 9 706 29 q 451 -11 565 -11 m 331 -274 l 331 -86 l 533 -86 l 533 -274 l 331 -274 z "},"ẞ":{"ha":1006,"x_min":106,"x_max":926,"o":"m 668 529 q 819 499 763 525 q 901 414 875 472 q 926 256 926 356 q 848 53 926 118 q 590 -11 769 -11 q 491 -3 546 -11 q 399 18 436 6 l 399 172 q 564 156 496 156 q 667 165 633 156 q 713 199 700 174 q 725 275 725 224 q 713 353 725 326 q 674 390 701 379 q 593 400 646 400 l 449 400 l 449 543 l 660 793 q 551 800 606 800 q 379 780 428 800 q 317 697 331 760 q 303 472 303 635 l 303 0 l 106 0 l 106 472 q 137 782 106 679 q 252 926 168 885 q 508 967 336 967 q 703 953 601 967 q 876 921 806 940 l 876 778 l 668 529 z "},"Ə":{"ha":951,"x_min":86,"x_max":867,"o":"m 460 967 q 724 924 639 967 q 838 781 810 881 q 867 478 867 681 q 845 165 867 260 q 743 30 824 71 q 475 -11 663 -11 q 208 30 288 -11 q 107 165 128 71 q 86 478 86 258 l 86 568 l 668 568 q 647 722 665 676 q 577 782 628 768 q 410 796 526 796 q 196 782 296 796 l 196 944 q 322 960 247 954 q 460 967 397 967 m 476 156 q 606 167 571 156 q 653 227 640 179 q 668 397 667 275 l 285 397 q 299 226 286 274 q 347 167 311 179 q 476 156 382 156 z "},"T":{"ha":808,"x_min":28,"x_max":781,"o":"m 306 0 l 306 776 l 28 776 l 28 956 l 781 956 l 781 776 l 503 776 l 503 0 l 306 0 z "},"Ŧ":{"ha":807,"x_min":28,"x_max":781,"o":"m 781 776 l 503 776 l 503 522 l 750 522 l 750 374 l 503 374 l 503 0 l 306 0 l 306 374 l 57 374 l 57 522 l 306 522 l 306 776 l 28 776 l 28 956 l 781 956 l 781 776 z "},"Ť":{"ha":808,"x_min":28,"x_max":781,"o":"m 306 0 l 306 776 l 28 776 l 28 956 l 781 956 l 781 776 l 503 776 l 503 0 l 306 0 m 315 1032 l 182 1224 l 182 1233 l 303 1233 l 404 1115 l 506 1233 l 628 1233 l 628 1224 l 493 1032 l 315 1032 z "},"Ţ":{"ha":808,"x_min":28,"x_max":781,"o":"m 28 956 l 781 956 l 781 776 l 503 776 l 503 0 l 465 0 l 415 -264 l 242 -264 l 242 -257 l 338 0 l 306 0 l 306 776 l 28 776 l 28 956 z "},"Ț":{"ha":808,"x_min":28,"x_max":781,"o":"m 306 0 l 306 776 l 28 776 l 28 956 l 781 956 l 781 776 l 503 776 l 503 0 l 306 0 m 300 -325 q 372 -315 354 -325 q 390 -271 390 -304 l 390 -250 l 315 -250 l 315 -85 l 508 -85 l 508 -199 q 494 -327 508 -286 q 438 -385 481 -368 q 300 -401 394 -401 l 300 -325 z "},"Ṭ":{"ha":808,"x_min":28,"x_max":781,"o":"m 306 0 l 306 776 l 28 776 l 28 956 l 781 956 l 781 776 l 503 776 l 503 0 l 306 0 m 303 -274 l 303 -86 l 506 -86 l 506 -274 l 303 -274 z "},"U":{"ha":967,"x_min":106,"x_max":860,"o":"m 860 956 l 860 428 q 835 149 860 238 q 733 25 811 61 q 483 -11 656 -11 q 233 25 311 -11 q 131 149 156 61 q 106 428 106 238 l 106 956 l 303 956 l 303 378 q 313 229 303 271 q 358 172 322 188 q 483 157 394 157 q 609 172 574 157 q 653 229 644 188 q 663 378 663 271 l 663 956 l 860 956 z "},"Ú":{"ha":967,"x_min":106,"x_max":860,"o":"m 860 956 l 860 428 q 835 149 860 238 q 733 25 811 61 q 483 -11 656 -11 q 233 25 311 -11 q 131 149 156 61 q 106 428 106 238 l 106 956 l 303 956 l 303 378 q 313 229 303 271 q 358 172 322 188 q 483 157 394 157 q 609 172 574 157 q 653 229 644 188 q 663 378 663 271 l 663 956 l 860 956 m 417 1042 l 417 1049 l 547 1242 l 733 1242 l 733 1235 l 550 1042 l 417 1042 z "},"Ŭ":{"ha":967,"x_min":106,"x_max":860,"o":"m 860 956 l 860 428 q 835 149 860 238 q 733 25 811 61 q 483 -11 656 -11 q 233 25 311 -11 q 131 149 156 61 q 106 428 106 238 l 106 956 l 303 956 l 303 378 q 313 229 303 271 q 358 172 322 188 q 483 157 394 157 q 609 172 574 157 q 653 229 644 188 q 663 378 663 271 l 663 956 l 860 956 m 688 1233 q 674 1121 688 1164 q 615 1053 660 1078 q 481 1028 569 1028 q 349 1053 393 1028 q 292 1121 306 1078 q 278 1233 278 1164 l 383 1233 q 388 1177 383 1196 q 414 1147 393 1158 q 481 1136 435 1136 q 548 1147 526 1136 q 575 1177 569 1158 q 581 1233 581 1196 l 688 1233 z "},"Ǔ":{"ha":967,"x_min":106,"x_max":860,"o":"m 860 956 l 860 428 q 835 149 860 238 q 733 25 811 61 q 483 -11 656 -11 q 233 25 311 -11 q 131 149 156 61 q 106 428 106 238 l 106 956 l 303 956 l 303 378 q 313 229 303 271 q 358 172 322 188 q 483 157 394 157 q 609 172 574 157 q 653 229 644 188 q 663 378 663 271 l 663 956 l 860 956 m 394 1032 l 261 1224 l 261 1233 l 382 1233 l 483 1115 l 585 1233 l 707 1233 l 707 1224 l 572 1032 l 394 1032 z "},"Û":{"ha":967,"x_min":106,"x_max":860,"o":"m 860 956 l 860 428 q 835 149 860 238 q 733 25 811 61 q 483 -11 656 -11 q 233 25 311 -11 q 131 149 156 61 q 106 428 106 238 l 106 956 l 303 956 l 303 378 q 313 229 303 271 q 358 172 322 188 q 483 157 394 157 q 609 172 574 157 q 653 229 644 188 q 663 378 663 271 l 663 956 l 860 956 m 264 1042 l 264 1051 l 397 1243 l 575 1243 l 710 1051 l 710 1042 l 588 1042 l 485 1160 l 385 1042 l 264 1042 z "},"Ȕ":{"ha":967,"x_min":106,"x_max":860,"o":"m 860 956 l 860 428 q 835 149 860 238 q 733 25 811 61 q 483 -11 656 -11 q 233 25 311 -11 q 131 149 156 61 q 106 428 106 238 l 106 956 l 303 956 l 303 378 q 313 229 303 271 q 358 172 322 188 q 483 157 394 157 q 609 172 574 157 q 653 229 644 188 q 663 378 663 271 l 663 956 l 860 956 m 425 1047 l 313 1047 l 153 1214 l 153 1221 l 308 1221 l 425 1053 l 425 1047 m 689 1047 l 578 1047 l 418 1214 l 418 1221 l 572 1221 l 689 1053 l 689 1047 z "},"Ü":{"ha":967,"x_min":106,"x_max":860,"o":"m 860 956 l 860 428 q 835 149 860 238 q 733 25 811 61 q 483 -11 656 -11 q 233 25 311 -11 q 131 149 156 61 q 106 428 106 238 l 106 956 l 303 956 l 303 378 q 313 229 303 271 q 358 172 322 188 q 483 157 394 157 q 609 172 574 157 q 653 229 644 188 q 663 378 663 271 l 663 956 l 860 956 m 265 1079 l 265 1222 l 424 1222 l 424 1079 l 265 1079 m 542 1079 l 542 1222 l 700 1222 l 700 1079 l 542 1079 z "},"Ǘ":{"ha":967,"x_min":106,"x_max":860,"o":"m 424 1210 l 424 1072 l 265 1072 l 265 1215 l 413 1215 l 413 1217 l 543 1410 l 729 1410 l 729 1403 l 551 1215 l 700 1215 l 700 1072 l 542 1072 l 542 1210 l 424 1210 m 860 956 l 860 428 q 835 149 860 238 q 733 25 811 61 q 483 -11 656 -11 q 233 25 311 -11 q 131 149 156 61 q 106 428 106 238 l 106 956 l 303 956 l 303 378 q 313 229 303 271 q 358 172 322 188 q 483 157 394 157 q 609 172 574 157 q 653 229 644 188 q 663 378 663 271 l 663 956 l 860 956 z "},"Ǚ":{"ha":967,"x_min":106,"x_max":860,"o":"m 265 1215 l 393 1215 l 264 1400 l 264 1410 l 385 1410 l 486 1292 l 588 1410 l 710 1410 l 710 1400 l 581 1215 l 700 1215 l 700 1072 l 542 1072 l 542 1208 l 424 1208 l 424 1072 l 265 1072 l 265 1215 m 860 956 l 860 428 q 835 149 860 238 q 733 25 811 61 q 483 -11 656 -11 q 233 25 311 -11 q 131 149 156 61 q 106 428 106 238 l 106 956 l 303 956 l 303 378 q 313 229 303 271 q 358 172 322 188 q 483 157 394 157 q 609 172 574 157 q 653 229 644 188 q 663 378 663 271 l 663 956 l 860 956 z "},"Ǜ":{"ha":967,"x_min":106,"x_max":860,"o":"m 265 1215 l 421 1215 l 244 1403 l 244 1410 l 429 1410 l 561 1217 l 561 1215 l 700 1215 l 700 1072 l 542 1072 l 542 1210 l 426 1210 l 424 1213 l 424 1072 l 265 1072 l 265 1215 m 860 956 l 860 428 q 835 149 860 238 q 733 25 811 61 q 483 -11 656 -11 q 233 25 311 -11 q 131 149 156 61 q 106 428 106 238 l 106 956 l 303 956 l 303 378 q 313 229 303 271 q 358 172 322 188 q 483 157 394 157 q 609 172 574 157 q 653 229 644 188 q 663 378 663 271 l 663 956 l 860 956 z "},"Ǖ":{"ha":967,"x_min":106,"x_max":860,"o":"m 303 1242 l 303 1397 l 668 1397 l 668 1242 l 303 1242 m 265 1072 l 265 1215 l 424 1215 l 424 1072 l 265 1072 m 542 1072 l 542 1215 l 700 1215 l 700 1072 l 542 1072 m 860 956 l 860 428 q 835 149 860 238 q 733 25 811 61 q 483 -11 656 -11 q 233 25 311 -11 q 131 149 156 61 q 106 428 106 238 l 106 956 l 303 956 l 303 378 q 313 229 303 271 q 358 172 322 188 q 483 157 394 157 q 609 172 574 157 q 653 229 644 188 q 663 378 663 271 l 663 956 l 860 956 z "},"Ụ":{"ha":967,"x_min":106,"x_max":860,"o":"m 860 956 l 860 428 q 835 149 860 238 q 733 25 811 61 q 483 -11 656 -11 q 233 25 311 -11 q 131 149 156 61 q 106 428 106 238 l 106 956 l 303 956 l 303 378 q 313 229 303 271 q 358 172 322 188 q 483 157 394 157 q 609 172 574 157 q 653 229 644 188 q 663 378 663 271 l 663 956 l 860 956 m 382 -274 l 382 -86 l 585 -86 l 585 -274 l 382 -274 z "},"Ù":{"ha":967,"x_min":106,"x_max":860,"o":"m 860 956 l 860 428 q 835 149 860 238 q 733 25 811 61 q 483 -11 656 -11 q 233 25 311 -11 q 131 149 156 61 q 106 428 106 238 l 106 956 l 303 956 l 303 378 q 313 229 303 271 q 358 172 322 188 q 483 157 394 157 q 609 172 574 157 q 653 229 644 188 q 663 378 663 271 l 663 956 l 860 956 m 439 1042 l 257 1235 l 257 1242 l 442 1242 l 574 1049 l 574 1042 l 439 1042 z "},"Ủ":{"ha":967,"x_min":106,"x_max":860,"o":"m 860 956 l 860 428 q 835 149 860 238 q 733 25 811 61 q 483 -11 656 -11 q 233 25 311 -11 q 131 149 156 61 q 106 428 106 238 l 106 956 l 303 956 l 303 378 q 313 229 303 271 q 358 172 322 188 q 483 157 394 157 q 609 172 574 157 q 653 229 644 188 q 663 378 663 271 l 663 956 l 860 956 m 396 1024 q 408 1085 396 1068 q 461 1113 421 1101 l 488 1119 q 535 1138 525 1129 q 544 1167 544 1146 q 535 1197 544 1188 q 508 1208 526 1206 q 444 1210 489 1210 q 301 1203 368 1210 l 301 1293 q 474 1306 383 1306 q 581 1298 542 1306 q 643 1263 621 1290 q 665 1179 665 1236 q 645 1103 665 1125 q 571 1067 625 1081 l 546 1058 q 504 1042 513 1049 q 496 1015 496 1035 l 396 1015 l 396 1024 z "},"Ư":{"ha":967,"x_min":106,"x_max":996,"o":"m 996 1083 l 996 1056 q 985 959 996 993 q 947 907 975 925 q 860 883 918 889 l 860 428 q 835 149 860 238 q 733 25 811 61 q 483 -11 656 -11 q 233 25 311 -11 q 131 149 156 61 q 106 428 106 238 l 106 956 l 303 956 l 303 378 q 313 229 303 271 q 358 172 322 188 q 483 157 394 157 q 609 172 574 157 q 653 229 644 188 q 663 378 663 271 l 663 956 l 786 956 q 843 963 825 956 q 867 989 861 971 q 872 1044 872 1007 l 872 1083 l 996 1083 z "},"Ứ":{"ha":967,"x_min":106,"x_max":996,"o":"m 996 1083 l 996 1056 q 985 959 996 993 q 947 907 975 925 q 860 883 918 889 l 860 428 q 835 149 860 238 q 733 25 811 61 q 483 -11 656 -11 q 233 25 311 -11 q 131 149 156 61 q 106 428 106 238 l 106 956 l 303 956 l 303 378 q 313 229 303 271 q 358 172 322 188 q 483 157 394 157 q 609 172 574 157 q 653 229 644 188 q 663 378 663 271 l 663 956 l 786 956 q 843 963 825 956 q 867 989 861 971 q 872 1044 872 1007 l 872 1083 l 996 1083 m 410 1033 l 410 1040 l 540 1233 l 726 1233 l 726 1226 l 543 1033 l 410 1033 z "},"Ự":{"ha":967,"x_min":106,"x_max":996,"o":"m 996 1083 l 996 1056 q 985 959 996 993 q 947 907 975 925 q 860 883 918 889 l 860 428 q 835 149 860 238 q 733 25 811 61 q 483 -11 656 -11 q 233 25 311 -11 q 131 149 156 61 q 106 428 106 238 l 106 956 l 303 956 l 303 378 q 313 229 303 271 q 358 172 322 188 q 483 157 394 157 q 609 172 574 157 q 653 229 644 188 q 663 378 663 271 l 663 956 l 786 956 q 843 963 825 956 q 867 989 861 971 q 872 1044 872 1007 l 872 1083 l 996 1083 m 382 -274 l 382 -86 l 585 -86 l 585 -274 l 382 -274 z "},"Ừ":{"ha":967,"x_min":106,"x_max":996,"o":"m 996 1083 l 996 1056 q 985 959 996 993 q 947 907 975 925 q 860 883 918 889 l 860 428 q 835 149 860 238 q 733 25 811 61 q 483 -11 656 -11 q 233 25 311 -11 q 131 149 156 61 q 106 428 106 238 l 106 956 l 303 956 l 303 378 q 313 229 303 271 q 358 172 322 188 q 483 157 394 157 q 609 172 574 157 q 653 229 644 188 q 663 378 663 271 l 663 956 l 786 956 q 843 963 825 956 q 867 989 861 971 q 872 1044 872 1007 l 872 1083 l 996 1083 m 424 1033 l 242 1226 l 242 1233 l 426 1233 l 558 1040 l 558 1033 l 424 1033 z "},"Ử":{"ha":967,"x_min":106,"x_max":996,"o":"m 996 1083 l 996 1056 q 985 959 996 993 q 947 907 975 925 q 860 883 918 889 l 860 428 q 835 149 860 238 q 733 25 811 61 q 483 -11 656 -11 q 233 25 311 -11 q 131 149 156 61 q 106 428 106 238 l 106 956 l 303 956 l 303 378 q 313 229 303 271 q 358 172 322 188 q 483 157 394 157 q 609 172 574 157 q 653 229 644 188 q 663 378 663 271 l 663 956 l 786 956 q 843 963 825 956 q 867 989 861 971 q 872 1044 872 1007 l 872 1083 l 996 1083 m 396 1024 q 408 1085 396 1068 q 461 1113 421 1101 l 488 1119 q 535 1138 525 1129 q 544 1167 544 1146 q 535 1197 544 1188 q 508 1208 526 1206 q 444 1210 489 1210 q 301 1203 368 1210 l 301 1293 q 474 1306 383 1306 q 581 1298 542 1306 q 643 1263 621 1290 q 665 1179 665 1236 q 645 1103 665 1125 q 571 1067 625 1081 l 546 1058 q 504 1042 513 1049 q 496 1015 496 1035 l 396 1015 l 396 1024 z "},"Ữ":{"ha":967,"x_min":106,"x_max":996,"o":"m 996 1083 l 996 1056 q 985 959 996 993 q 947 907 975 925 q 860 883 918 889 l 860 428 q 835 149 860 238 q 733 25 811 61 q 483 -11 656 -11 q 233 25 311 -11 q 131 149 156 61 q 106 428 106 238 l 106 956 l 303 956 l 303 378 q 313 229 303 271 q 358 172 322 188 q 483 157 394 157 q 609 172 574 157 q 653 229 644 188 q 663 378 663 271 l 663 956 l 786 956 q 843 963 825 956 q 867 989 861 971 q 872 1044 872 1007 l 872 1083 l 996 1083 m 747 1235 q 740 1125 747 1163 q 708 1067 733 1088 q 628 1046 682 1046 q 558 1052 592 1046 q 464 1074 524 1058 q 415 1085 453 1076 q 353 1094 378 1094 q 321 1083 326 1094 q 315 1031 315 1071 l 218 1031 q 225 1140 218 1101 q 258 1199 232 1178 q 339 1219 283 1219 q 410 1213 375 1219 q 501 1192 444 1206 q 614 1171 582 1171 q 646 1183 640 1171 q 651 1235 651 1194 l 747 1235 z "},"Ű":{"ha":967,"x_min":106,"x_max":860,"o":"m 860 956 l 860 428 q 835 149 860 238 q 733 25 811 61 q 483 -11 656 -11 q 233 25 311 -11 q 131 149 156 61 q 106 428 106 238 l 106 956 l 303 956 l 303 378 q 313 229 303 271 q 358 172 322 188 q 483 157 394 157 q 609 172 574 157 q 653 229 644 188 q 663 378 663 271 l 663 956 l 860 956 m 289 1047 l 289 1053 l 406 1221 l 560 1221 l 560 1214 l 400 1047 l 289 1047 m 553 1047 l 553 1053 l 669 1221 l 825 1221 l 825 1214 l 665 1047 l 553 1047 z "},"Ȗ":{"ha":967,"x_min":106,"x_max":860,"o":"m 860 956 l 860 428 q 835 149 860 238 q 733 25 811 61 q 483 -11 656 -11 q 233 25 311 -11 q 131 149 156 61 q 106 428 106 238 l 106 956 l 303 956 l 303 378 q 313 229 303 271 q 358 172 322 188 q 483 157 394 157 q 609 172 574 157 q 653 229 644 188 q 663 378 663 271 l 663 956 l 860 956 m 278 1035 q 292 1147 278 1104 q 351 1215 306 1190 q 485 1240 396 1240 q 616 1215 572 1240 q 674 1147 660 1190 q 688 1035 688 1104 l 582 1035 q 577 1091 582 1072 q 551 1121 572 1110 q 485 1132 531 1132 q 417 1121 439 1132 q 390 1091 396 1110 q 385 1035 385 1072 l 278 1035 z "},"Ū":{"ha":967,"x_min":106,"x_max":860,"o":"m 860 956 l 860 428 q 835 149 860 238 q 733 25 811 61 q 483 -11 656 -11 q 233 25 311 -11 q 131 149 156 61 q 106 428 106 238 l 106 956 l 303 956 l 303 378 q 313 229 303 271 q 358 172 322 188 q 483 157 394 157 q 609 172 574 157 q 653 229 644 188 q 663 378 663 271 l 663 956 l 860 956 m 300 1069 l 300 1232 l 665 1232 l 665 1069 l 300 1069 z "},"Ų":{"ha":967,"x_min":106,"x_max":860,"o":"m 860 956 l 860 428 q 851 228 860 303 q 817 103 843 153 q 740 28 792 54 q 660 -31 689 3 q 631 -115 631 -64 q 644 -152 631 -139 q 694 -165 658 -165 l 718 -164 l 718 -268 q 638 -272 668 -272 q 511 -241 547 -272 q 475 -157 475 -210 q 544 -10 475 -89 q 483 -11 525 -11 q 233 25 311 -11 q 131 149 156 61 q 106 428 106 238 l 106 956 l 303 956 l 303 378 q 313 229 303 271 q 358 172 322 188 q 483 157 394 157 q 609 172 574 157 q 653 229 644 188 q 663 378 663 271 l 663 956 l 860 956 z "},"Ů":{"ha":967,"x_min":106,"x_max":860,"o":"m 860 956 l 860 428 q 835 149 860 238 q 733 25 811 61 q 483 -11 656 -11 q 233 25 311 -11 q 131 149 156 61 q 106 428 106 238 l 106 956 l 303 956 l 303 378 q 313 229 303 271 q 358 172 322 188 q 483 157 394 157 q 609 172 574 157 q 653 229 644 188 q 663 378 663 271 l 663 956 l 860 956 m 481 986 q 349 1002 390 986 q 297 1049 308 1018 q 286 1146 286 1081 q 297 1244 286 1211 q 349 1292 308 1276 q 481 1308 390 1308 q 614 1292 572 1308 q 667 1244 656 1276 q 679 1146 679 1211 q 667 1050 679 1082 q 614 1002 656 1018 q 481 986 572 986 m 481 1068 q 547 1074 528 1068 q 571 1095 567 1081 q 575 1146 575 1110 q 571 1197 575 1182 q 547 1218 567 1211 q 481 1225 528 1225 q 417 1218 436 1225 q 394 1197 399 1211 q 389 1146 389 1182 q 394 1096 389 1111 q 417 1074 399 1081 q 481 1068 436 1068 z "},"Ũ":{"ha":967,"x_min":106,"x_max":860,"o":"m 860 956 l 860 428 q 835 149 860 238 q 733 25 811 61 q 483 -11 656 -11 q 233 25 311 -11 q 131 149 156 61 q 106 428 106 238 l 106 956 l 303 956 l 303 378 q 313 229 303 271 q 358 172 322 188 q 483 157 394 157 q 609 172 574 157 q 653 229 644 188 q 663 378 663 271 l 663 956 l 860 956 m 747 1235 q 740 1125 747 1163 q 708 1067 733 1088 q 628 1046 682 1046 q 558 1052 592 1046 q 464 1074 524 1058 q 415 1085 453 1076 q 353 1094 378 1094 q 321 1083 326 1094 q 315 1031 315 1071 l 218 1031 q 225 1140 218 1101 q 258 1199 232 1178 q 339 1219 283 1219 q 410 1213 375 1219 q 501 1192 444 1206 q 614 1171 582 1171 q 646 1183 640 1171 q 651 1235 651 1194 l 747 1235 z "},"V":{"ha":919,"x_min":24,"x_max":894,"o":"m 328 0 l 24 956 l 226 956 l 458 222 l 467 222 l 694 956 l 894 956 l 590 0 l 328 0 z "},"W":{"ha":1364,"x_min":32,"x_max":1349,"o":"m 867 0 l 693 639 l 688 639 l 514 0 l 267 0 l 32 956 l 231 956 l 400 242 l 407 242 l 592 956 l 796 956 l 985 242 l 992 242 l 1151 956 l 1349 956 l 1114 0 l 867 0 z "},"Ẃ":{"ha":1364,"x_min":32,"x_max":1349,"o":"m 867 0 l 693 639 l 688 639 l 514 0 l 267 0 l 32 956 l 231 956 l 400 242 l 407 242 l 592 956 l 796 956 l 985 242 l 992 242 l 1151 956 l 1349 956 l 1114 0 l 867 0 m 608 1033 l 608 1040 l 739 1233 l 925 1233 l 925 1226 l 742 1033 l 608 1033 z "},"Ŵ":{"ha":1364,"x_min":32,"x_max":1349,"o":"m 867 0 l 693 639 l 688 639 l 514 0 l 267 0 l 32 956 l 231 956 l 400 242 l 407 242 l 592 956 l 796 956 l 985 242 l 992 242 l 1151 956 l 1349 956 l 1114 0 l 867 0 m 460 1032 l 460 1042 l 593 1233 l 771 1233 l 906 1042 l 906 1032 l 783 1032 l 681 1150 l 581 1032 l 460 1032 z "},"Ẅ":{"ha":1364,"x_min":32,"x_max":1349,"o":"m 867 0 l 693 639 l 688 639 l 514 0 l 267 0 l 32 956 l 231 956 l 400 242 l 407 242 l 592 956 l 796 956 l 985 242 l 992 242 l 1151 956 l 1349 956 l 1114 0 l 867 0 m 464 1072 l 464 1215 l 622 1215 l 622 1072 l 464 1072 m 740 1072 l 740 1215 l 899 1215 l 899 1072 l 740 1072 z "},"Ẁ":{"ha":1364,"x_min":32,"x_max":1349,"o":"m 867 0 l 693 639 l 688 639 l 514 0 l 267 0 l 32 956 l 231 956 l 400 242 l 407 242 l 592 956 l 796 956 l 985 242 l 992 242 l 1151 956 l 1349 956 l 1114 0 l 867 0 m 622 1033 l 440 1226 l 440 1233 l 625 1233 l 757 1040 l 757 1033 l 622 1033 z "},"X":{"ha":940,"x_min":25,"x_max":915,"o":"m 688 0 l 472 319 l 461 319 l 244 0 l 25 0 l 349 479 l 31 956 l 258 956 l 468 646 l 479 646 l 690 956 l 911 956 l 593 483 l 915 0 l 688 0 z "},"Y":{"ha":865,"x_min":6,"x_max":858,"o":"m 332 0 l 332 336 l 6 956 l 213 956 l 431 536 l 440 536 l 657 956 l 858 956 l 531 336 l 531 0 l 332 0 z "},"Ý":{"ha":865,"x_min":6,"x_max":858,"o":"m 332 0 l 332 336 l 6 956 l 213 956 l 431 536 l 440 536 l 657 956 l 858 956 l 531 336 l 531 0 l 332 0 m 372 1042 l 372 1049 l 503 1242 l 689 1242 l 689 1235 l 506 1042 l 372 1042 z "},"Ŷ":{"ha":865,"x_min":6,"x_max":858,"o":"m 332 0 l 332 336 l 6 956 l 213 956 l 431 536 l 440 536 l 657 956 l 858 956 l 531 336 l 531 0 l 332 0 m 210 1032 l 210 1042 l 343 1233 l 521 1233 l 656 1042 l 656 1032 l 533 1032 l 431 1150 l 331 1032 l 210 1032 z "},"Ÿ":{"ha":865,"x_min":6,"x_max":858,"o":"m 332 0 l 332 336 l 6 956 l 213 956 l 431 536 l 440 536 l 657 956 l 858 956 l 531 336 l 531 0 l 332 0 m 222 1079 l 222 1222 l 381 1222 l 381 1079 l 222 1079 m 499 1079 l 499 1222 l 657 1222 l 657 1079 l 499 1079 z "},"Ỵ":{"ha":865,"x_min":6,"x_max":858,"o":"m 332 0 l 332 336 l 6 956 l 213 956 l 431 536 l 440 536 l 657 956 l 858 956 l 531 336 l 531 0 l 332 0 m 331 -274 l 331 -86 l 533 -86 l 533 -274 l 331 -274 z "},"Ỳ":{"ha":865,"x_min":6,"x_max":858,"o":"m 332 0 l 332 336 l 6 956 l 213 956 l 431 536 l 440 536 l 657 956 l 858 956 l 531 336 l 531 0 l 332 0 m 372 1033 l 190 1226 l 190 1233 l 375 1233 l 507 1040 l 507 1033 l 372 1033 z "},"Ỷ":{"ha":865,"x_min":6,"x_max":858,"o":"m 332 0 l 332 336 l 6 956 l 213 956 l 431 536 l 440 536 l 657 956 l 858 956 l 531 336 l 531 0 l 332 0 m 344 1024 q 357 1085 344 1068 q 410 1113 369 1101 l 436 1119 q 483 1138 474 1129 q 493 1167 493 1146 q 484 1197 493 1188 q 456 1208 475 1206 q 393 1210 438 1210 q 250 1203 317 1210 l 250 1293 q 422 1306 332 1306 q 530 1298 490 1306 q 592 1263 569 1290 q 614 1179 614 1236 q 594 1103 614 1125 q 519 1067 574 1081 l 494 1058 q 453 1042 461 1049 q 444 1015 444 1035 l 344 1015 l 344 1024 z "},"Ȳ":{"ha":865,"x_min":6,"x_max":858,"o":"m 332 0 l 332 336 l 6 956 l 213 956 l 431 536 l 440 536 l 657 956 l 858 956 l 531 336 l 531 0 l 332 0 m 249 1069 l 249 1232 l 614 1232 l 614 1069 l 249 1069 z "},"Ỹ":{"ha":865,"x_min":6,"x_max":858,"o":"m 332 0 l 332 336 l 6 956 l 213 956 l 431 536 l 440 536 l 657 956 l 858 956 l 531 336 l 531 0 l 332 0 m 696 1235 q 689 1125 696 1163 q 656 1067 682 1088 q 576 1046 631 1046 q 506 1052 540 1046 q 413 1074 472 1058 q 364 1085 401 1076 q 301 1094 326 1094 q 269 1083 275 1094 q 264 1031 264 1071 l 167 1031 q 174 1140 167 1101 q 206 1199 181 1178 q 288 1219 232 1219 q 358 1213 324 1219 q 450 1192 393 1206 q 563 1171 531 1171 q 594 1183 589 1171 q 600 1235 600 1194 l 696 1235 z "},"Z":{"ha":851,"x_min":65,"x_max":790,"o":"m 65 0 l 65 164 l 535 785 l 81 785 l 81 956 l 785 956 l 785 797 l 310 171 l 790 171 l 790 0 l 65 0 z "},"Ź":{"ha":851,"x_min":65,"x_max":790,"o":"m 65 0 l 65 164 l 535 785 l 81 785 l 81 956 l 785 956 l 785 797 l 310 171 l 790 171 l 790 0 l 65 0 m 353 1033 l 353 1040 l 483 1233 l 669 1233 l 669 1226 l 486 1033 l 353 1033 z "},"Ž":{"ha":847,"x_min":65,"x_max":790,"o":"m 65 0 l 65 164 l 535 785 l 81 785 l 81 956 l 785 956 l 785 797 l 310 171 l 790 171 l 790 0 l 65 0 m 346 1042 l 213 1233 l 213 1243 l 333 1243 l 435 1125 l 536 1243 l 658 1243 l 658 1233 l 524 1042 l 346 1042 z "},"Ż":{"ha":851,"x_min":65,"x_max":790,"o":"m 65 0 l 65 164 l 535 785 l 81 785 l 81 956 l 785 956 l 785 797 l 310 171 l 790 171 l 790 0 l 65 0 m 347 1072 l 347 1215 l 504 1215 l 504 1072 l 347 1072 z "},"Ẓ":{"ha":851,"x_min":65,"x_max":790,"o":"m 65 0 l 65 164 l 535 785 l 81 785 l 81 956 l 785 956 l 785 797 l 310 171 l 790 171 l 790 0 l 65 0 m 325 -274 l 325 -86 l 528 -86 l 528 -274 l 325 -274 z "},"a":{"ha":783,"x_min":61,"x_max":685,"o":"m 272 -11 q 113 38 165 -11 q 61 199 61 86 q 81 329 61 282 q 148 398 100 376 q 283 419 196 419 q 500 414 356 419 l 500 440 q 487 528 500 503 q 438 560 474 553 q 313 567 401 567 q 206 563 269 567 q 104 554 142 558 l 104 697 q 374 719 233 719 q 576 690 510 719 q 664 601 643 660 q 685 432 685 542 l 685 0 l 511 0 l 506 86 l 496 86 q 406 8 464 28 q 272 -11 347 -11 m 360 135 q 434 145 406 135 q 479 179 463 156 q 500 283 500 213 l 500 306 l 333 306 q 272 299 292 306 q 246 275 253 293 q 239 218 239 257 q 248 164 239 181 q 281 141 257 147 q 360 135 306 135 z "},"á":{"ha":783,"x_min":61,"x_max":685,"o":"m 272 -11 q 113 38 165 -11 q 61 199 61 86 q 81 329 61 282 q 148 398 100 376 q 283 419 196 419 q 500 414 356 419 l 500 440 q 487 528 500 503 q 438 560 474 553 q 313 567 401 567 q 206 563 269 567 q 104 554 142 558 l 104 697 q 374 719 233 719 q 576 690 510 719 q 664 601 643 660 q 685 432 685 542 l 685 0 l 511 0 l 506 86 l 496 86 q 406 8 464 28 q 272 -11 347 -11 m 360 135 q 434 145 406 135 q 479 179 463 156 q 500 283 500 213 l 500 306 l 333 306 q 272 299 292 306 q 246 275 253 293 q 239 218 239 257 q 248 164 239 181 q 281 141 257 147 q 360 135 306 135 m 313 832 l 313 839 l 443 1032 l 629 1032 l 629 1025 l 446 832 l 313 832 z "},"ă":{"ha":783,"x_min":61,"x_max":685,"o":"m 272 -11 q 113 38 165 -11 q 61 199 61 86 q 81 329 61 282 q 148 398 100 376 q 283 419 196 419 q 500 414 356 419 l 500 440 q 487 528 500 503 q 438 560 474 553 q 313 567 401 567 q 206 563 269 567 q 104 554 142 558 l 104 697 q 374 719 233 719 q 576 690 510 719 q 664 601 643 660 q 685 432 685 542 l 685 0 l 511 0 l 506 86 l 496 86 q 406 8 464 28 q 272 -11 347 -11 m 360 135 q 434 145 406 135 q 479 179 463 156 q 500 283 500 213 l 500 306 l 333 306 q 272 299 292 306 q 246 275 253 293 q 239 218 239 257 q 248 164 239 181 q 281 141 257 147 q 360 135 306 135 m 597 1032 q 583 919 597 963 q 524 851 569 876 q 390 826 479 826 q 259 851 303 826 q 201 919 215 876 q 188 1032 188 963 l 293 1032 q 298 976 293 994 q 324 946 303 957 q 390 935 344 935 q 458 946 436 935 q 485 976 479 957 q 490 1032 490 994 l 597 1032 z "},"ắ":{"ha":783,"x_min":61,"x_max":685,"o":"m 272 -11 q 113 38 165 -11 q 61 199 61 86 q 81 329 61 282 q 148 398 100 376 q 283 419 196 419 q 500 414 356 419 l 500 440 q 487 528 500 503 q 438 560 474 553 q 313 567 401 567 q 206 563 269 567 q 104 554 142 558 l 104 697 q 374 719 233 719 q 576 690 510 719 q 664 601 643 660 q 685 432 685 542 l 685 0 l 511 0 l 506 86 l 496 86 q 406 8 464 28 q 272 -11 347 -11 m 360 135 q 434 145 406 135 q 479 179 463 156 q 500 283 500 213 l 500 306 l 333 306 q 272 299 292 306 q 246 275 253 293 q 239 218 239 257 q 248 164 239 181 q 281 141 257 147 q 360 135 306 135 m 582 1032 q 568 919 582 963 q 509 851 554 876 q 375 826 464 826 q 244 851 288 826 q 186 919 200 876 q 172 1032 172 963 l 278 1032 q 283 976 278 994 q 308 946 288 957 q 375 935 329 935 q 442 946 421 935 q 469 976 464 957 q 475 1032 475 994 l 582 1032 m 297 1072 l 297 1079 l 428 1272 l 614 1272 l 614 1265 l 431 1072 l 297 1072 z "},"ặ":{"ha":783,"x_min":61,"x_max":685,"o":"m 272 -11 q 113 38 165 -11 q 61 199 61 86 q 81 329 61 282 q 148 398 100 376 q 283 419 196 419 q 500 414 356 419 l 500 440 q 487 528 500 503 q 438 560 474 553 q 313 567 401 567 q 206 563 269 567 q 104 554 142 558 l 104 697 q 374 719 233 719 q 576 690 510 719 q 664 601 643 660 q 685 432 685 542 l 685 0 l 511 0 l 506 86 l 496 86 q 406 8 464 28 q 272 -11 347 -11 m 360 135 q 434 145 406 135 q 479 179 463 156 q 500 283 500 213 l 500 306 l 333 306 q 272 299 292 306 q 246 275 253 293 q 239 218 239 257 q 248 164 239 181 q 281 141 257 147 q 360 135 306 135 m 292 -274 l 292 -86 l 494 -86 l 494 -274 l 292 -274 m 597 1032 q 583 919 597 963 q 524 851 569 876 q 390 826 479 826 q 259 851 303 826 q 201 919 215 876 q 188 1032 188 963 l 293 1032 q 298 976 293 994 q 324 946 303 957 q 390 935 344 935 q 458 946 436 935 q 485 976 479 957 q 490 1032 490 994 l 597 1032 z "},"ằ":{"ha":783,"x_min":61,"x_max":685,"o":"m 272 -11 q 113 38 165 -11 q 61 199 61 86 q 81 329 61 282 q 148 398 100 376 q 283 419 196 419 q 500 414 356 419 l 500 440 q 487 528 500 503 q 438 560 474 553 q 313 567 401 567 q 206 563 269 567 q 104 554 142 558 l 104 697 q 374 719 233 719 q 576 690 510 719 q 664 601 643 660 q 685 432 685 542 l 685 0 l 511 0 l 506 86 l 496 86 q 406 8 464 28 q 272 -11 347 -11 m 360 135 q 434 145 406 135 q 479 179 463 156 q 500 283 500 213 l 500 306 l 333 306 q 272 299 292 306 q 246 275 253 293 q 239 218 239 257 q 248 164 239 181 q 281 141 257 147 q 360 135 306 135 m 613 1032 q 599 919 613 963 q 540 851 585 876 q 406 826 494 826 q 274 851 318 826 q 217 919 231 876 q 203 1032 203 963 l 308 1032 q 313 976 308 994 q 339 946 318 957 q 406 935 360 935 q 473 946 451 935 q 500 976 494 957 q 506 1032 506 994 l 613 1032 m 357 1072 l 175 1265 l 175 1272 l 360 1272 l 492 1079 l 492 1072 l 357 1072 z "},"ẳ":{"ha":783,"x_min":61,"x_max":685,"o":"m 272 -11 q 113 38 165 -11 q 61 199 61 86 q 81 329 61 282 q 148 398 100 376 q 283 419 196 419 q 500 414 356 419 l 500 440 q 487 528 500 503 q 438 560 474 553 q 313 567 401 567 q 206 563 269 567 q 104 554 142 558 l 104 697 q 374 719 233 719 q 576 690 510 719 q 664 601 643 660 q 685 432 685 542 l 685 0 l 511 0 l 506 86 l 496 86 q 406 8 464 28 q 272 -11 347 -11 m 360 135 q 434 145 406 135 q 479 179 463 156 q 500 283 500 213 l 500 306 l 333 306 q 272 299 292 306 q 246 275 253 293 q 239 218 239 257 q 248 164 239 181 q 281 141 257 147 q 360 135 306 135 m 597 1032 q 583 919 597 963 q 524 851 569 876 q 390 826 479 826 q 259 851 303 826 q 201 919 215 876 q 188 1032 188 963 l 293 1032 q 298 976 293 994 q 324 946 303 957 q 390 935 344 935 q 458 946 436 935 q 485 976 479 957 q 490 1032 490 994 l 597 1032 m 313 1044 q 325 1104 313 1088 q 378 1132 338 1121 l 404 1140 q 451 1158 442 1150 q 461 1186 461 1165 q 452 1217 461 1208 q 424 1228 443 1226 q 361 1231 406 1231 q 218 1224 285 1231 l 218 1313 q 301 1322 251 1318 q 390 1326 350 1326 q 498 1319 458 1326 q 560 1283 538 1311 q 582 1199 582 1256 q 562 1123 582 1144 q 488 1086 542 1101 l 463 1079 q 420 1063 428 1069 q 413 1036 413 1056 l 313 1036 l 313 1044 z "},"ẵ":{"ha":783,"x_min":61,"x_max":685,"o":"m 272 -11 q 113 38 165 -11 q 61 199 61 86 q 81 329 61 282 q 148 398 100 376 q 283 419 196 419 q 500 414 356 419 l 500 440 q 487 528 500 503 q 438 560 474 553 q 313 567 401 567 q 206 563 269 567 q 104 554 142 558 l 104 697 q 374 719 233 719 q 576 690 510 719 q 664 601 643 660 q 685 432 685 542 l 685 0 l 511 0 l 506 86 l 496 86 q 406 8 464 28 q 272 -11 347 -11 m 360 135 q 434 145 406 135 q 479 179 463 156 q 500 283 500 213 l 500 306 l 333 306 q 272 299 292 306 q 246 275 253 293 q 239 218 239 257 q 248 164 239 181 q 281 141 257 147 q 360 135 306 135 m 594 1032 q 581 919 594 963 q 522 851 567 876 q 388 826 476 826 q 256 851 300 826 q 199 919 213 876 q 185 1032 185 963 l 290 1032 q 295 976 290 994 q 321 946 300 957 q 388 935 342 935 q 455 946 433 935 q 482 976 476 957 q 488 1032 488 994 l 594 1032 m 657 1310 q 650 1200 657 1238 q 617 1142 643 1163 q 538 1121 592 1121 q 467 1127 501 1121 q 374 1149 433 1133 q 325 1160 363 1151 q 263 1169 288 1169 q 231 1158 236 1169 q 225 1106 225 1146 l 128 1106 q 135 1215 128 1176 q 167 1274 142 1253 q 249 1294 193 1294 q 319 1288 285 1294 q 411 1267 354 1281 q 524 1246 492 1246 q 556 1258 550 1246 q 561 1310 561 1269 l 657 1310 z "},"ǎ":{"ha":783,"x_min":61,"x_max":685,"o":"m 272 -11 q 113 38 165 -11 q 61 199 61 86 q 81 329 61 282 q 148 398 100 376 q 283 419 196 419 q 500 414 356 419 l 500 440 q 487 528 500 503 q 438 560 474 553 q 313 567 401 567 q 206 563 269 567 q 104 554 142 558 l 104 697 q 374 719 233 719 q 576 690 510 719 q 664 601 643 660 q 685 432 685 542 l 685 0 l 511 0 l 506 86 l 496 86 q 406 8 464 28 q 272 -11 347 -11 m 360 135 q 434 145 406 135 q 479 179 463 156 q 500 283 500 213 l 500 306 l 333 306 q 272 299 292 306 q 246 275 253 293 q 239 218 239 257 q 248 164 239 181 q 281 141 257 147 q 360 135 306 135 m 304 831 l 171 1022 l 171 1032 l 292 1032 l 393 914 l 494 1032 l 617 1032 l 617 1022 l 482 831 l 304 831 z "},"â":{"ha":783,"x_min":61,"x_max":685,"o":"m 272 -11 q 113 38 165 -11 q 61 199 61 86 q 81 329 61 282 q 148 398 100 376 q 283 419 196 419 q 500 414 356 419 l 500 440 q 487 528 500 503 q 438 560 474 553 q 313 567 401 567 q 206 563 269 567 q 104 554 142 558 l 104 697 q 374 719 233 719 q 576 690 510 719 q 664 601 643 660 q 685 432 685 542 l 685 0 l 511 0 l 506 86 l 496 86 q 406 8 464 28 q 272 -11 347 -11 m 360 135 q 434 145 406 135 q 479 179 463 156 q 500 283 500 213 l 500 306 l 333 306 q 272 299 292 306 q 246 275 253 293 q 239 218 239 257 q 248 164 239 181 q 281 141 257 147 q 360 135 306 135 m 171 831 l 171 840 l 304 1032 l 482 1032 l 617 840 l 617 831 l 494 831 l 392 949 l 292 831 l 171 831 z "},"ấ":{"ha":783,"x_min":61,"x_max":735,"o":"m 272 -11 q 113 38 165 -11 q 61 199 61 86 q 81 329 61 282 q 148 398 100 376 q 283 419 196 419 q 500 414 356 419 l 500 440 q 487 528 500 503 q 438 560 474 553 q 313 567 401 567 q 206 563 269 567 q 104 554 142 558 l 104 697 q 374 719 233 719 q 576 690 510 719 q 664 601 643 660 q 685 432 685 542 l 685 0 l 511 0 l 506 86 l 496 86 q 406 8 464 28 q 272 -11 347 -11 m 360 135 q 434 145 406 135 q 479 179 463 156 q 500 283 500 213 l 500 306 l 333 306 q 272 299 292 306 q 246 275 253 293 q 239 218 239 257 q 248 164 239 181 q 281 141 257 147 q 360 135 306 135 m 167 831 l 167 840 l 300 1032 l 478 1032 l 613 840 l 613 831 l 490 831 l 388 949 l 288 831 l 167 831 m 418 1072 l 418 1079 l 549 1272 l 735 1272 l 735 1265 l 551 1072 l 418 1072 z "},"ậ":{"ha":783,"x_min":61,"x_max":685,"o":"m 272 -11 q 113 38 165 -11 q 61 199 61 86 q 81 329 61 282 q 148 398 100 376 q 283 419 196 419 q 500 414 356 419 l 500 440 q 487 528 500 503 q 438 560 474 553 q 313 567 401 567 q 206 563 269 567 q 104 554 142 558 l 104 697 q 374 719 233 719 q 576 690 510 719 q 664 601 643 660 q 685 432 685 542 l 685 0 l 511 0 l 506 86 l 496 86 q 406 8 464 28 q 272 -11 347 -11 m 360 135 q 434 145 406 135 q 479 179 463 156 q 500 283 500 213 l 500 306 l 333 306 q 272 299 292 306 q 246 275 253 293 q 239 218 239 257 q 248 164 239 181 q 281 141 257 147 q 360 135 306 135 m 292 -274 l 292 -86 l 494 -86 l 494 -274 l 292 -274 m 171 831 l 171 840 l 304 1032 l 482 1032 l 617 840 l 617 831 l 494 831 l 392 949 l 292 831 l 171 831 z "},"ầ":{"ha":783,"x_min":61,"x_max":685,"o":"m 272 -11 q 113 38 165 -11 q 61 199 61 86 q 81 329 61 282 q 148 398 100 376 q 283 419 196 419 q 500 414 356 419 l 500 440 q 487 528 500 503 q 438 560 474 553 q 313 567 401 567 q 206 563 269 567 q 104 554 142 558 l 104 697 q 374 719 233 719 q 576 690 510 719 q 664 601 643 660 q 685 432 685 542 l 685 0 l 511 0 l 506 86 l 496 86 q 406 8 464 28 q 272 -11 347 -11 m 360 135 q 434 145 406 135 q 479 179 463 156 q 500 283 500 213 l 500 306 l 333 306 q 272 299 292 306 q 246 275 253 293 q 239 218 239 257 q 248 164 239 181 q 281 141 257 147 q 360 135 306 135 m 168 831 l 168 840 l 301 1032 l 479 1032 l 614 840 l 614 831 l 492 831 l 389 949 l 289 831 l 168 831 m 478 1072 l 296 1265 l 296 1272 l 481 1272 l 613 1079 l 613 1072 l 478 1072 z "},"ẩ":{"ha":783,"x_min":61,"x_max":711,"o":"m 272 -11 q 113 38 165 -11 q 61 199 61 86 q 81 329 61 282 q 148 398 100 376 q 283 419 196 419 q 500 414 356 419 l 500 440 q 487 528 500 503 q 438 560 474 553 q 313 567 401 567 q 206 563 269 567 q 104 554 142 558 l 104 697 q 374 719 233 719 q 576 690 510 719 q 664 601 643 660 q 685 432 685 542 l 685 0 l 511 0 l 506 86 l 496 86 q 406 8 464 28 q 272 -11 347 -11 m 360 135 q 434 145 406 135 q 479 179 463 156 q 500 283 500 213 l 500 306 l 333 306 q 272 299 292 306 q 246 275 253 293 q 239 218 239 257 q 248 164 239 181 q 281 141 257 147 q 360 135 306 135 m 171 831 l 171 840 l 304 1032 l 482 1032 l 617 840 l 617 831 l 494 831 l 392 949 l 292 831 l 171 831 m 442 1067 q 454 1126 442 1110 q 507 1154 467 1143 l 533 1163 q 581 1180 571 1172 q 590 1208 590 1188 q 581 1240 590 1231 q 553 1251 572 1249 q 490 1253 535 1253 q 347 1246 414 1253 l 347 1335 q 430 1344 381 1340 q 519 1349 479 1349 q 627 1341 588 1349 q 689 1306 667 1333 q 711 1221 711 1278 q 691 1145 711 1167 q 617 1108 671 1124 l 592 1101 q 549 1085 557 1092 q 542 1058 542 1078 l 442 1058 l 442 1067 z "},"ẫ":{"ha":783,"x_min":61,"x_max":685,"o":"m 272 -11 q 113 38 165 -11 q 61 199 61 86 q 81 329 61 282 q 148 398 100 376 q 283 419 196 419 q 500 414 356 419 l 500 440 q 487 528 500 503 q 438 560 474 553 q 313 567 401 567 q 206 563 269 567 q 104 554 142 558 l 104 697 q 374 719 233 719 q 576 690 510 719 q 664 601 643 660 q 685 432 685 542 l 685 0 l 511 0 l 506 86 l 496 86 q 406 8 464 28 q 272 -11 347 -11 m 360 135 q 434 145 406 135 q 479 179 463 156 q 500 283 500 213 l 500 306 l 333 306 q 272 299 292 306 q 246 275 253 293 q 239 218 239 257 q 248 164 239 181 q 281 141 257 147 q 360 135 306 135 m 168 831 l 168 840 l 301 1032 l 479 1032 l 614 840 l 614 831 l 492 831 l 389 949 l 289 831 l 168 831 m 657 1274 q 650 1164 657 1201 q 617 1106 643 1126 q 538 1085 592 1085 q 467 1091 501 1085 q 374 1113 433 1097 q 325 1124 363 1115 q 263 1133 288 1133 q 231 1122 236 1133 q 225 1069 225 1110 l 128 1069 q 135 1178 128 1140 q 167 1238 142 1217 q 249 1258 193 1258 q 319 1251 285 1258 q 411 1231 354 1244 q 524 1210 492 1210 q 556 1222 550 1210 q 561 1274 561 1233 l 657 1274 z "},"ȁ":{"ha":783,"x_min":61,"x_max":685,"o":"m 272 -11 q 113 38 165 -11 q 61 199 61 86 q 81 329 61 282 q 148 398 100 376 q 283 419 196 419 q 500 414 356 419 l 500 440 q 487 528 500 503 q 438 560 474 553 q 313 567 401 567 q 206 563 269 567 q 104 554 142 558 l 104 697 q 374 719 233 719 q 576 690 510 719 q 664 601 643 660 q 685 432 685 542 l 685 0 l 511 0 l 506 86 l 496 86 q 406 8 464 28 q 272 -11 347 -11 m 360 135 q 434 145 406 135 q 479 179 463 156 q 500 283 500 213 l 500 306 l 333 306 q 272 299 292 306 q 246 275 253 293 q 239 218 239 257 q 248 164 239 181 q 281 141 257 147 q 360 135 306 135 m 335 846 l 222 846 l 63 1013 l 63 1019 l 218 1019 l 335 851 l 335 846 m 599 846 l 488 846 l 328 1013 l 328 1019 l 482 1019 l 599 851 l 599 846 z "},"ä":{"ha":783,"x_min":61,"x_max":685,"o":"m 272 -11 q 113 38 165 -11 q 61 199 61 86 q 81 329 61 282 q 148 398 100 376 q 283 419 196 419 q 500 414 356 419 l 500 440 q 487 528 500 503 q 438 560 474 553 q 313 567 401 567 q 206 563 269 567 q 104 554 142 558 l 104 697 q 374 719 233 719 q 576 690 510 719 q 664 601 643 660 q 685 432 685 542 l 685 0 l 511 0 l 506 86 l 496 86 q 406 8 464 28 q 272 -11 347 -11 m 360 135 q 434 145 406 135 q 479 179 463 156 q 500 283 500 213 l 500 306 l 333 306 q 272 299 292 306 q 246 275 253 293 q 239 218 239 257 q 248 164 239 181 q 281 141 257 147 q 360 135 306 135 m 175 871 l 175 1014 l 333 1014 l 333 871 l 175 871 m 451 871 l 451 1014 l 610 1014 l 610 871 l 451 871 z "},"ạ":{"ha":783,"x_min":61,"x_max":685,"o":"m 272 -11 q 113 38 165 -11 q 61 199 61 86 q 81 329 61 282 q 148 398 100 376 q 283 419 196 419 q 500 414 356 419 l 500 440 q 487 528 500 503 q 438 560 474 553 q 313 567 401 567 q 206 563 269 567 q 104 554 142 558 l 104 697 q 374 719 233 719 q 576 690 510 719 q 664 601 643 660 q 685 432 685 542 l 685 0 l 511 0 l 506 86 l 496 86 q 406 8 464 28 q 272 -11 347 -11 m 360 135 q 434 145 406 135 q 479 179 463 156 q 500 283 500 213 l 500 306 l 333 306 q 272 299 292 306 q 246 275 253 293 q 239 218 239 257 q 248 164 239 181 q 281 141 257 147 q 360 135 306 135 m 292 -274 l 292 -86 l 494 -86 l 494 -274 l 292 -274 z "},"à":{"ha":783,"x_min":61,"x_max":685,"o":"m 272 -11 q 113 38 165 -11 q 61 199 61 86 q 81 329 61 282 q 148 398 100 376 q 283 419 196 419 q 500 414 356 419 l 500 440 q 487 528 500 503 q 438 560 474 553 q 313 567 401 567 q 206 563 269 567 q 104 554 142 558 l 104 697 q 374 719 233 719 q 576 690 510 719 q 664 601 643 660 q 685 432 685 542 l 685 0 l 511 0 l 506 86 l 496 86 q 406 8 464 28 q 272 -11 347 -11 m 360 135 q 434 145 406 135 q 479 179 463 156 q 500 283 500 213 l 500 306 l 333 306 q 272 299 292 306 q 246 275 253 293 q 239 218 239 257 q 248 164 239 181 q 281 141 257 147 q 360 135 306 135 m 335 832 l 153 1025 l 153 1032 l 338 1032 l 469 839 l 469 832 l 335 832 z "},"ả":{"ha":783,"x_min":61,"x_max":685,"o":"m 272 -11 q 113 38 165 -11 q 61 199 61 86 q 81 329 61 282 q 148 398 100 376 q 283 419 196 419 q 500 414 356 419 l 500 440 q 487 528 500 503 q 438 560 474 553 q 313 567 401 567 q 206 563 269 567 q 104 554 142 558 l 104 697 q 374 719 233 719 q 576 690 510 719 q 664 601 643 660 q 685 432 685 542 l 685 0 l 511 0 l 506 86 l 496 86 q 406 8 464 28 q 272 -11 347 -11 m 360 135 q 434 145 406 135 q 479 179 463 156 q 500 283 500 213 l 500 306 l 333 306 q 272 299 292 306 q 246 275 253 293 q 239 218 239 257 q 248 164 239 181 q 281 141 257 147 q 360 135 306 135 m 306 854 q 318 914 306 897 q 371 942 331 931 l 397 950 q 444 967 435 960 q 454 996 454 975 q 445 1027 454 1018 q 417 1038 436 1036 q 354 1040 399 1040 q 211 1033 278 1040 l 211 1122 q 294 1132 244 1128 q 383 1136 343 1136 q 491 1128 451 1136 q 553 1093 531 1121 q 575 1008 575 1065 q 555 933 575 954 q 481 896 535 911 l 456 889 q 413 872 421 879 q 406 846 406 865 l 306 846 l 306 854 z "},"ȃ":{"ha":783,"x_min":61,"x_max":685,"o":"m 272 -11 q 113 38 165 -11 q 61 199 61 86 q 81 329 61 282 q 148 398 100 376 q 283 419 196 419 q 500 414 356 419 l 500 440 q 487 528 500 503 q 438 560 474 553 q 313 567 401 567 q 206 563 269 567 q 104 554 142 558 l 104 697 q 374 719 233 719 q 576 690 510 719 q 664 601 643 660 q 685 432 685 542 l 685 0 l 511 0 l 506 86 l 496 86 q 406 8 464 28 q 272 -11 347 -11 m 360 135 q 434 145 406 135 q 479 179 463 156 q 500 283 500 213 l 500 306 l 333 306 q 272 299 292 306 q 246 275 253 293 q 239 218 239 257 q 248 164 239 181 q 281 141 257 147 q 360 135 306 135 m 188 833 q 201 946 188 903 q 260 1014 215 989 q 394 1039 306 1039 q 526 1014 482 1039 q 583 946 569 989 q 597 833 597 903 l 492 833 q 487 890 492 871 q 461 919 482 908 q 394 931 440 931 q 327 919 349 931 q 300 890 306 908 q 294 833 294 871 l 188 833 z "},"ā":{"ha":783,"x_min":61,"x_max":685,"o":"m 272 -11 q 113 38 165 -11 q 61 199 61 86 q 81 329 61 282 q 148 398 100 376 q 283 419 196 419 q 500 414 356 419 l 500 440 q 487 528 500 503 q 438 560 474 553 q 313 567 401 567 q 206 563 269 567 q 104 554 142 558 l 104 697 q 374 719 233 719 q 576 690 510 719 q 664 601 643 660 q 685 432 685 542 l 685 0 l 511 0 l 506 86 l 496 86 q 406 8 464 28 q 272 -11 347 -11 m 360 135 q 434 145 406 135 q 479 179 463 156 q 500 283 500 213 l 500 306 l 333 306 q 272 299 292 306 q 246 275 253 293 q 239 218 239 257 q 248 164 239 181 q 281 141 257 147 q 360 135 306 135 m 210 868 l 210 1031 l 575 1031 l 575 868 l 210 868 z "},"ą":{"ha":783,"x_min":61,"x_max":686,"o":"m 686 -164 l 686 -268 q 606 -272 636 -272 q 443 -161 443 -272 q 528 0 443 -82 l 511 0 l 506 86 l 496 86 q 406 8 464 28 q 272 -11 347 -11 q 113 38 165 -11 q 61 199 61 86 q 81 329 61 282 q 148 398 100 376 q 283 419 196 419 q 500 414 356 419 l 500 440 q 487 528 500 503 q 438 560 474 553 q 313 567 401 567 q 208 563 271 567 q 104 554 144 558 l 104 697 q 374 719 233 719 q 576 690 510 719 q 664 601 643 660 q 685 432 685 542 l 685 0 q 624 -53 651 -18 q 597 -119 597 -87 q 661 -165 597 -165 l 686 -164 m 500 306 l 333 306 q 272 299 292 306 q 246 275 253 293 q 239 218 239 257 q 248 164 239 181 q 281 141 257 147 q 360 135 306 135 q 434 145 406 135 q 479 179 463 156 q 500 283 500 213 l 500 306 z "},"å":{"ha":783,"x_min":61,"x_max":685,"o":"m 272 -11 q 113 38 165 -11 q 61 199 61 86 q 81 329 61 282 q 148 398 100 376 q 283 419 196 419 q 500 414 356 419 l 500 440 q 487 528 500 503 q 438 560 474 553 q 313 567 401 567 q 206 563 269 567 q 104 554 142 558 l 104 697 q 374 719 233 719 q 576 690 510 719 q 664 601 643 660 q 685 432 685 542 l 685 0 l 511 0 l 506 86 l 496 86 q 406 8 464 28 q 272 -11 347 -11 m 360 135 q 434 145 406 135 q 479 179 463 156 q 500 283 500 213 l 500 306 l 333 306 q 272 299 292 306 q 246 275 253 293 q 239 218 239 257 q 248 164 239 181 q 281 141 257 147 q 360 135 306 135 m 392 806 q 260 822 301 806 q 208 869 219 838 q 197 965 197 900 q 208 1063 197 1031 q 260 1112 219 1096 q 392 1128 301 1128 q 525 1112 483 1128 q 578 1063 567 1096 q 590 965 590 1031 q 578 869 590 901 q 525 822 567 838 q 392 806 483 806 m 392 888 q 458 894 439 888 q 482 915 478 900 q 486 965 486 929 q 482 1016 486 1001 q 458 1038 478 1031 q 392 1044 439 1044 q 328 1038 347 1044 q 305 1016 310 1031 q 300 965 300 1001 q 305 915 300 931 q 328 894 310 900 q 392 888 347 888 z "},"ǻ":{"ha":783,"x_min":61,"x_max":685,"o":"m 272 -11 q 113 38 165 -11 q 61 199 61 86 q 81 329 61 282 q 148 398 100 376 q 283 419 196 419 q 500 414 356 419 l 500 440 q 487 528 500 503 q 438 560 474 553 q 313 567 401 567 q 206 563 269 567 q 104 554 142 558 l 104 697 q 374 719 233 719 q 576 690 510 719 q 664 601 643 660 q 685 432 685 542 l 685 0 l 511 0 l 506 86 l 496 86 q 406 8 464 28 q 272 -11 347 -11 m 360 135 q 434 145 406 135 q 479 179 463 156 q 500 283 500 213 l 500 306 l 333 306 q 272 299 292 306 q 246 275 253 293 q 239 218 239 257 q 248 164 239 181 q 281 141 257 147 q 360 135 306 135 m 390 826 q 259 842 300 826 q 207 890 218 858 q 196 986 196 921 q 207 1084 196 1051 q 259 1133 218 1117 q 390 1149 300 1149 q 524 1133 482 1149 q 577 1084 565 1117 q 589 986 589 1051 q 577 890 589 922 q 524 842 565 858 q 390 826 482 826 m 390 908 q 457 915 438 908 q 481 935 476 921 q 485 986 485 950 q 481 1037 485 1022 q 457 1058 476 1051 q 390 1065 438 1065 q 327 1058 346 1065 q 303 1037 308 1051 q 299 986 299 1022 q 303 936 299 951 q 327 915 308 921 q 390 908 346 908 m 318 1189 l 318 1196 l 449 1389 l 635 1389 l 635 1382 l 451 1189 l 318 1189 z "},"ã":{"ha":783,"x_min":61,"x_max":685,"o":"m 272 -11 q 113 38 165 -11 q 61 199 61 86 q 81 329 61 282 q 148 398 100 376 q 283 419 196 419 q 500 414 356 419 l 500 440 q 487 528 500 503 q 438 560 474 553 q 313 567 401 567 q 206 563 269 567 q 104 554 142 558 l 104 697 q 374 719 233 719 q 576 690 510 719 q 664 601 643 660 q 685 432 685 542 l 685 0 l 511 0 l 506 86 l 496 86 q 406 8 464 28 q 272 -11 347 -11 m 360 135 q 434 145 406 135 q 479 179 463 156 q 500 283 500 213 l 500 306 l 333 306 q 272 299 292 306 q 246 275 253 293 q 239 218 239 257 q 248 164 239 181 q 281 141 257 147 q 360 135 306 135 m 656 1032 q 649 922 656 960 q 616 864 642 885 q 536 843 590 843 q 466 849 500 843 q 372 871 432 856 q 324 883 361 874 q 261 892 286 892 q 229 880 235 892 q 224 828 224 868 l 126 828 q 133 937 126 899 q 166 996 140 975 q 247 1017 192 1017 q 318 1010 283 1017 q 410 989 353 1003 q 522 968 490 968 q 554 980 549 968 q 560 1032 560 992 l 656 1032 z "},"æ":{"ha":1204,"x_min":61,"x_max":1128,"o":"m 1128 301 l 686 301 q 697 194 686 225 q 748 153 708 164 q 885 142 788 142 q 1100 153 967 142 l 1100 11 q 983 -5 1056 1 q 842 -11 911 -11 q 667 8 732 -11 q 569 67 603 26 q 458 3 524 18 q 306 -11 392 -11 q 119 37 178 -11 q 61 199 61 85 q 81 329 61 282 q 148 398 100 376 q 283 419 196 419 q 458 415 300 419 l 500 414 l 500 440 q 487 528 500 503 q 438 560 474 553 q 313 567 401 567 q 200 563 268 567 q 104 554 132 558 l 104 697 q 371 719 229 719 q 510 705 454 719 q 601 660 567 690 q 829 719 674 719 q 1033 683 969 719 q 1112 574 1096 646 q 1128 353 1128 503 l 1128 301 m 824 572 q 733 560 761 572 q 697 517 706 549 q 686 413 688 485 l 953 413 q 942 518 953 485 q 904 562 931 551 q 824 572 878 572 m 500 301 l 333 301 q 272 297 290 301 q 246 274 253 292 q 239 218 239 257 q 248 164 239 181 q 281 141 257 147 q 360 135 306 135 q 441 148 411 135 q 485 192 471 161 q 500 283 500 229 l 500 301 z "},"ǽ":{"ha":1204,"x_min":61,"x_max":1128,"o":"m 1128 301 l 686 301 q 697 194 686 225 q 748 153 708 164 q 885 142 788 142 q 1100 153 967 142 l 1100 11 q 983 -5 1056 1 q 842 -11 911 -11 q 667 8 732 -11 q 569 67 603 26 q 458 3 524 18 q 306 -11 392 -11 q 119 37 178 -11 q 61 199 61 85 q 81 329 61 282 q 148 398 100 376 q 283 419 196 419 q 458 415 300 419 l 500 414 l 500 440 q 487 528 500 503 q 438 560 474 553 q 313 567 401 567 q 200 563 268 567 q 104 554 132 558 l 104 697 q 371 719 229 719 q 510 705 454 719 q 601 660 567 690 q 829 719 674 719 q 1033 683 969 719 q 1112 574 1096 646 q 1128 353 1128 503 l 1128 301 m 824 572 q 733 560 761 572 q 697 517 706 549 q 686 413 688 485 l 953 413 q 942 518 953 485 q 904 562 931 551 q 824 572 878 572 m 500 301 l 333 301 q 272 297 290 301 q 246 274 253 292 q 239 218 239 257 q 248 164 239 181 q 281 141 257 147 q 360 135 306 135 q 441 148 411 135 q 485 192 471 161 q 500 283 500 229 l 500 301 m 525 832 l 525 839 l 656 1032 l 842 1032 l 842 1025 l 658 832 l 525 832 z "},"b":{"ha":811,"x_min":97,"x_max":738,"o":"m 496 -11 q 369 10 424 -11 q 286 88 315 31 l 276 88 l 271 0 l 97 0 l 97 1032 l 282 1032 l 282 631 l 292 631 q 374 700 322 681 q 500 719 425 719 q 640 686 589 719 q 714 574 690 653 q 738 354 738 496 q 714 133 738 213 q 638 22 690 54 q 496 -11 586 -11 m 417 153 q 508 165 482 153 q 544 217 535 178 q 553 354 553 257 q 544 490 553 450 q 508 542 535 529 q 417 554 482 554 q 347 544 372 554 q 307 513 321 535 q 287 453 292 490 q 282 354 282 415 q 287 256 282 293 q 307 194 292 218 q 347 163 321 172 q 417 153 372 153 z "},"c":{"ha":640,"x_min":72,"x_max":579,"o":"m 579 10 q 482 -6 539 0 q 372 -11 425 -11 q 172 28 236 -11 q 90 142 108 68 q 72 356 72 217 q 92 563 72 488 q 176 678 111 638 q 369 719 240 719 q 478 713 422 719 q 574 697 535 707 l 574 554 q 418 567 501 567 q 313 550 344 567 q 270 491 281 533 q 260 354 260 449 q 271 216 260 258 q 315 158 282 174 q 421 142 347 142 q 579 153 471 142 l 579 10 z "},"ć":{"ha":640,"x_min":72,"x_max":579,"o":"m 579 10 q 482 -6 539 0 q 372 -11 425 -11 q 172 28 236 -11 q 90 142 108 68 q 72 356 72 217 q 92 563 72 488 q 176 678 111 638 q 369 719 240 719 q 478 713 422 719 q 574 697 535 707 l 574 554 q 418 567 501 567 q 313 550 344 567 q 270 491 281 533 q 260 354 260 449 q 271 216 260 258 q 315 158 282 174 q 421 142 347 142 q 579 153 471 142 l 579 10 m 243 832 l 243 839 l 374 1032 l 560 1032 l 560 1025 l 376 832 l 243 832 z "},"č":{"ha":640,"x_min":72,"x_max":579,"o":"m 579 10 q 482 -6 539 0 q 372 -11 425 -11 q 172 28 236 -11 q 90 142 108 68 q 72 356 72 217 q 92 563 72 488 q 176 678 111 638 q 369 719 240 719 q 478 713 422 719 q 574 697 535 707 l 574 554 q 418 567 501 567 q 313 550 344 567 q 270 491 281 533 q 260 354 260 449 q 271 216 260 258 q 315 158 282 174 q 421 142 347 142 q 579 153 471 142 l 579 10 m 232 831 l 99 1022 l 99 1032 l 219 1032 l 321 914 l 422 1032 l 544 1032 l 544 1022 l 410 831 l 232 831 z "},"ç":{"ha":640,"x_min":72,"x_max":579,"o":"m 579 10 q 486 -6 540 0 q 381 -11 432 -11 l 332 -264 l 158 -264 l 158 -257 l 254 -1 q 133 60 172 15 q 83 172 94 104 q 72 356 72 239 q 92 563 72 488 q 176 678 111 638 q 369 719 240 719 q 478 713 422 719 q 574 697 535 707 l 574 554 q 418 567 501 567 q 313 550 344 567 q 270 491 281 533 q 260 354 260 449 q 271 216 260 258 q 315 158 282 174 q 421 142 347 142 q 579 153 471 142 l 579 10 z "},"ĉ":{"ha":640,"x_min":72,"x_max":579,"o":"m 579 10 q 482 -6 539 0 q 372 -11 425 -11 q 172 28 236 -11 q 90 142 108 68 q 72 356 72 217 q 92 563 72 488 q 176 678 111 638 q 369 719 240 719 q 478 713 422 719 q 574 697 535 707 l 574 554 q 418 567 501 567 q 313 550 344 567 q 270 491 281 533 q 260 354 260 449 q 271 216 260 258 q 315 158 282 174 q 421 142 347 142 q 579 153 471 142 l 579 10 m 99 831 l 99 840 l 232 1032 l 410 1032 l 544 840 l 544 831 l 422 831 l 319 949 l 219 831 l 99 831 z "},"ċ":{"ha":640,"x_min":72,"x_max":579,"o":"m 579 10 q 482 -6 539 0 q 372 -11 425 -11 q 172 28 236 -11 q 90 142 108 68 q 72 356 72 217 q 92 563 72 488 q 176 678 111 638 q 369 719 240 719 q 478 713 422 719 q 574 697 535 707 l 574 554 q 418 567 501 567 q 313 550 344 567 q 270 491 281 533 q 260 354 260 449 q 271 216 260 258 q 315 158 282 174 q 421 142 347 142 q 579 153 471 142 l 579 10 m 242 871 l 242 1014 l 399 1014 l 399 871 l 242 871 z "},"d":{"ha":811,"x_min":72,"x_max":713,"o":"m 315 -11 q 173 22 225 -11 q 97 133 121 54 q 72 353 72 211 q 96 574 72 494 q 171 686 119 653 q 311 719 222 719 q 437 701 386 719 q 518 631 488 682 l 528 631 l 528 1032 l 713 1032 l 713 0 l 540 0 l 535 88 l 524 88 q 440 10 494 32 q 315 -11 386 -11 m 394 153 q 471 166 444 153 q 511 208 497 179 q 524 267 521 232 q 528 354 528 301 q 524 440 528 407 q 511 497 521 474 q 472 541 499 528 q 394 554 444 554 q 302 542 329 554 q 267 490 275 529 q 258 354 258 451 q 267 217 258 257 q 302 165 275 178 q 394 153 329 153 z "},"ð":{"ha":800,"x_min":72,"x_max":722,"o":"m 397 -11 q 178 22 246 -11 q 91 126 110 54 q 72 353 72 197 q 89 569 72 494 q 163 681 106 643 q 342 718 221 718 q 490 696 424 718 l 494 701 q 432 826 467 771 l 268 801 l 268 917 l 361 931 q 263 1026 314 982 l 263 1032 l 461 1032 q 536 958 507 990 l 699 983 l 699 868 l 610 854 q 699 621 668 758 q 722 367 722 507 q 704 128 722 201 q 619 22 686 54 q 397 -11 551 -11 m 397 142 q 498 155 471 142 q 531 206 525 168 q 538 353 538 244 q 531 495 538 456 q 497 551 525 535 q 397 567 468 567 q 298 553 325 567 q 265 500 271 539 q 258 353 258 461 q 265 206 258 244 q 298 155 271 168 q 397 142 325 142 z "},"ď":{"ha":846,"x_min":72,"x_max":946,"o":"m 315 -11 q 173 22 225 -11 q 97 133 121 54 q 72 353 72 211 q 96 574 72 494 q 171 686 119 653 q 311 719 222 719 q 437 701 386 719 q 518 631 488 682 l 528 631 l 528 1032 l 713 1032 l 713 0 l 540 0 l 535 88 l 524 88 q 440 10 494 32 q 315 -11 386 -11 m 394 153 q 471 166 444 153 q 511 208 497 179 q 524 267 521 232 q 528 354 528 301 q 524 440 528 407 q 511 497 521 474 q 472 541 499 528 q 394 554 444 554 q 302 542 329 554 q 267 490 275 529 q 258 354 258 451 q 267 217 258 257 q 302 165 275 178 q 394 153 329 153 m 756 600 l 776 871 l 776 956 l 946 956 l 946 871 l 883 600 l 756 600 z "},"đ":{"ha":811,"x_min":72,"x_max":800,"o":"m 800 808 l 713 808 l 713 0 l 540 0 l 535 88 l 524 88 q 440 10 494 32 q 315 -11 386 -11 q 173 22 225 -11 q 97 133 121 54 q 72 353 72 211 q 96 574 72 494 q 171 686 119 653 q 311 719 222 719 q 437 701 386 719 q 518 631 488 682 l 528 631 l 528 808 l 357 808 l 357 956 l 528 956 l 528 1032 l 713 1032 l 713 956 l 800 956 l 800 808 m 511 208 q 524 267 521 232 q 528 354 528 301 q 524 440 528 407 q 511 497 521 474 q 472 541 499 528 q 394 554 444 554 q 302 542 329 554 q 267 490 275 529 q 258 354 258 451 q 267 217 258 257 q 302 165 275 178 q 394 153 329 153 q 471 166 444 153 q 511 208 497 179 z "},"ḍ":{"ha":811,"x_min":72,"x_max":713,"o":"m 315 -11 q 173 22 225 -11 q 97 133 121 54 q 72 353 72 211 q 96 574 72 494 q 171 686 119 653 q 311 719 222 719 q 437 701 386 719 q 518 631 488 682 l 528 631 l 528 1032 l 713 1032 l 713 0 l 540 0 l 535 88 l 524 88 q 440 10 494 32 q 315 -11 386 -11 m 394 153 q 471 166 444 153 q 511 208 497 179 q 524 267 521 232 q 528 354 528 301 q 524 440 528 407 q 511 497 521 474 q 472 541 499 528 q 394 554 444 554 q 302 542 329 554 q 267 490 275 529 q 258 354 258 451 q 267 217 258 257 q 302 165 275 178 q 394 153 329 153 m 304 -274 l 304 -86 l 507 -86 l 507 -274 l 304 -274 z "},"ǳ":{"ha":1533,"x_min":72,"x_max":1467,"o":"m 315 -11 q 173 22 225 -11 q 97 133 121 54 q 72 353 72 211 q 96 574 72 494 q 171 686 119 653 q 311 719 222 719 q 437 701 386 719 q 518 631 488 682 l 528 631 l 528 1032 l 713 1032 l 713 0 l 540 0 l 535 88 l 524 88 q 440 10 494 32 q 315 -11 386 -11 m 394 153 q 471 166 444 153 q 511 208 497 179 q 524 267 521 232 q 528 354 528 301 q 524 440 528 407 q 511 497 521 474 q 472 541 499 528 q 394 554 444 554 q 302 542 329 554 q 267 490 275 529 q 258 354 258 451 q 267 217 258 257 q 302 165 275 178 q 394 153 329 153 m 878 0 l 878 143 l 1228 556 l 894 556 l 894 708 l 1464 708 l 1464 565 l 1113 153 l 1467 153 l 1467 0 l 878 0 z "},"ǆ":{"ha":1533,"x_min":72,"x_max":1467,"o":"m 315 -11 q 173 22 225 -11 q 97 133 121 54 q 72 353 72 211 q 96 574 72 494 q 171 686 119 653 q 311 719 222 719 q 437 701 386 719 q 518 631 488 682 l 528 631 l 528 1032 l 713 1032 l 713 0 l 540 0 l 535 88 l 524 88 q 440 10 494 32 q 315 -11 386 -11 m 394 153 q 471 166 444 153 q 511 208 497 179 q 524 267 521 232 q 528 354 528 301 q 524 440 528 407 q 511 497 521 474 q 472 541 499 528 q 394 554 444 554 q 302 542 329 554 q 267 490 275 529 q 258 354 258 451 q 267 217 258 257 q 302 165 275 178 q 394 153 329 153 m 878 0 l 878 143 l 1228 556 l 894 556 l 894 708 l 1464 708 l 1464 565 l 1113 153 l 1467 153 l 1467 0 l 878 0 m 1082 831 l 949 1022 l 949 1032 l 1069 1032 l 1171 914 l 1272 1032 l 1394 1032 l 1394 1022 l 1260 831 l 1082 831 z "},"e":{"ha":772,"x_min":72,"x_max":699,"o":"m 699 299 l 257 299 q 268 193 257 224 q 318 152 279 163 q 456 142 357 142 q 671 153 538 142 l 671 11 q 554 -5 626 1 q 413 -11 482 -11 q 186 24 258 -11 q 93 132 114 58 q 72 353 72 206 q 94 570 72 496 q 184 682 115 644 q 397 719 253 719 q 603 683 539 719 q 683 574 667 646 q 699 353 699 503 l 699 299 m 394 572 q 304 560 332 572 q 267 517 276 549 q 257 413 258 485 l 524 413 q 513 518 524 485 q 475 562 501 551 q 394 572 449 572 z "},"é":{"ha":772,"x_min":72,"x_max":699,"o":"m 699 299 l 257 299 q 268 193 257 224 q 318 152 279 163 q 456 142 357 142 q 671 153 538 142 l 671 11 q 554 -5 626 1 q 413 -11 482 -11 q 186 24 258 -11 q 93 132 114 58 q 72 353 72 206 q 94 570 72 496 q 184 682 115 644 q 397 719 253 719 q 603 683 539 719 q 683 574 667 646 q 699 353 699 503 l 699 299 m 394 572 q 304 560 332 572 q 267 517 276 549 q 257 413 258 485 l 524 413 q 513 518 524 485 q 475 562 501 551 q 394 572 449 572 m 317 832 l 317 839 l 447 1032 l 633 1032 l 633 1025 l 450 832 l 317 832 z "},"ĕ":{"ha":772,"x_min":72,"x_max":699,"o":"m 699 299 l 257 299 q 268 193 257 224 q 318 152 279 163 q 456 142 357 142 q 671 153 538 142 l 671 11 q 554 -5 626 1 q 413 -11 482 -11 q 186 24 258 -11 q 93 132 114 58 q 72 353 72 206 q 94 570 72 496 q 184 682 115 644 q 397 719 253 719 q 603 683 539 719 q 683 574 667 646 q 699 353 699 503 l 699 299 m 394 572 q 304 560 332 572 q 267 517 276 549 q 257 413 258 485 l 524 413 q 513 518 524 485 q 475 562 501 551 q 394 572 449 572 m 590 1032 q 576 919 590 963 q 517 851 563 876 q 383 826 472 826 q 252 851 296 826 q 194 919 208 876 q 181 1032 181 963 l 286 1032 q 291 976 286 994 q 317 946 296 957 q 383 935 338 935 q 451 946 429 935 q 478 976 472 957 q 483 1032 483 994 l 590 1032 z "},"ě":{"ha":772,"x_min":72,"x_max":699,"o":"m 699 299 l 257 299 q 268 193 257 224 q 318 152 279 163 q 456 142 357 142 q 671 153 538 142 l 671 11 q 554 -5 626 1 q 413 -11 482 -11 q 186 24 258 -11 q 93 132 114 58 q 72 353 72 206 q 94 570 72 496 q 184 682 115 644 q 397 719 253 719 q 603 683 539 719 q 683 574 667 646 q 699 353 699 503 l 699 299 m 394 572 q 304 560 332 572 q 267 517 276 549 q 257 413 258 485 l 524 413 q 513 518 524 485 q 475 562 501 551 q 394 572 449 572 m 297 831 l 164 1022 l 164 1032 l 285 1032 l 386 914 l 488 1032 l 610 1032 l 610 1022 l 475 831 l 297 831 z "},"ê":{"ha":772,"x_min":72,"x_max":699,"o":"m 699 299 l 257 299 q 268 193 257 224 q 318 152 279 163 q 456 142 357 142 q 671 153 538 142 l 671 11 q 554 -5 626 1 q 413 -11 482 -11 q 186 24 258 -11 q 93 132 114 58 q 72 353 72 206 q 94 570 72 496 q 184 682 115 644 q 397 719 253 719 q 603 683 539 719 q 683 574 667 646 q 699 353 699 503 l 699 299 m 394 572 q 304 560 332 572 q 267 517 276 549 q 257 413 258 485 l 524 413 q 513 518 524 485 q 475 562 501 551 q 394 572 449 572 m 171 831 l 171 840 l 304 1032 l 482 1032 l 617 840 l 617 831 l 494 831 l 392 949 l 292 831 l 171 831 z "},"ế":{"ha":772,"x_min":72,"x_max":728,"o":"m 699 299 l 257 299 q 268 193 257 224 q 318 152 279 163 q 456 142 357 142 q 671 153 538 142 l 671 11 q 554 -5 626 1 q 413 -11 482 -11 q 186 24 258 -11 q 93 132 114 58 q 72 353 72 206 q 94 570 72 496 q 184 682 115 644 q 397 719 253 719 q 603 683 539 719 q 683 574 667 646 q 699 353 699 503 l 699 299 m 394 572 q 304 560 332 572 q 267 517 276 549 q 257 413 258 485 l 524 413 q 513 518 524 485 q 475 562 501 551 q 394 572 449 572 m 160 831 l 160 840 l 293 1032 l 471 1032 l 606 840 l 606 831 l 483 831 l 381 949 l 281 831 l 160 831 m 411 1072 l 411 1079 l 542 1272 l 728 1272 l 728 1265 l 544 1072 l 411 1072 z "},"ệ":{"ha":772,"x_min":72,"x_max":699,"o":"m 699 299 l 257 299 q 268 193 257 224 q 318 152 279 163 q 456 142 357 142 q 671 153 538 142 l 671 11 q 554 -5 626 1 q 413 -11 482 -11 q 186 24 258 -11 q 93 132 114 58 q 72 353 72 206 q 94 570 72 496 q 184 682 115 644 q 397 719 253 719 q 603 683 539 719 q 683 574 667 646 q 699 353 699 503 l 699 299 m 394 572 q 304 560 332 572 q 267 517 276 549 q 257 413 258 485 l 524 413 q 513 518 524 485 q 475 562 501 551 q 394 572 449 572 m 285 -274 l 285 -86 l 488 -86 l 488 -274 l 285 -274 m 164 831 l 164 840 l 297 1032 l 475 1032 l 610 840 l 610 831 l 488 831 l 385 949 l 285 831 l 164 831 z "},"ề":{"ha":772,"x_min":72,"x_max":699,"o":"m 699 299 l 257 299 q 268 193 257 224 q 318 152 279 163 q 456 142 357 142 q 671 153 538 142 l 671 11 q 554 -5 626 1 q 413 -11 482 -11 q 186 24 258 -11 q 93 132 114 58 q 72 353 72 206 q 94 570 72 496 q 184 682 115 644 q 397 719 253 719 q 603 683 539 719 q 683 574 667 646 q 699 353 699 503 l 699 299 m 394 572 q 304 560 332 572 q 267 517 276 549 q 257 413 258 485 l 524 413 q 513 518 524 485 q 475 562 501 551 q 394 572 449 572 m 161 831 l 161 840 l 294 1032 l 472 1032 l 607 840 l 607 831 l 485 831 l 382 949 l 282 831 l 161 831 m 471 1072 l 289 1265 l 289 1272 l 474 1272 l 606 1079 l 606 1072 l 471 1072 z "},"ể":{"ha":772,"x_min":72,"x_max":704,"o":"m 699 299 l 257 299 q 268 193 257 224 q 318 152 279 163 q 456 142 357 142 q 671 153 538 142 l 671 11 q 554 -5 626 1 q 413 -11 482 -11 q 186 24 258 -11 q 93 132 114 58 q 72 353 72 206 q 94 570 72 496 q 184 682 115 644 q 397 719 253 719 q 603 683 539 719 q 683 574 667 646 q 699 353 699 503 l 699 299 m 394 572 q 304 560 332 572 q 267 517 276 549 q 257 413 258 485 l 524 413 q 513 518 524 485 q 475 562 501 551 q 394 572 449 572 m 164 831 l 164 840 l 297 1032 l 475 1032 l 610 840 l 610 831 l 488 831 l 385 949 l 285 831 l 164 831 m 435 1067 q 447 1126 435 1110 q 500 1154 460 1143 l 526 1163 q 574 1180 564 1172 q 583 1208 583 1188 q 574 1240 583 1231 q 547 1251 565 1249 q 483 1253 528 1253 q 340 1246 407 1253 l 340 1335 q 423 1344 374 1340 q 513 1349 472 1349 q 620 1341 581 1349 q 682 1306 660 1333 q 704 1221 704 1278 q 684 1145 704 1167 q 610 1108 664 1124 l 585 1101 q 542 1085 550 1092 q 535 1058 535 1078 l 435 1058 l 435 1067 z "},"ễ":{"ha":772,"x_min":72,"x_max":699,"o":"m 699 299 l 257 299 q 268 193 257 224 q 318 152 279 163 q 456 142 357 142 q 671 153 538 142 l 671 11 q 554 -5 626 1 q 413 -11 482 -11 q 186 24 258 -11 q 93 132 114 58 q 72 353 72 206 q 94 570 72 496 q 184 682 115 644 q 397 719 253 719 q 603 683 539 719 q 683 574 667 646 q 699 353 699 503 l 699 299 m 394 572 q 304 560 332 572 q 267 517 276 549 q 257 413 258 485 l 524 413 q 513 518 524 485 q 475 562 501 551 q 394 572 449 572 m 161 831 l 161 840 l 294 1032 l 472 1032 l 607 840 l 607 831 l 485 831 l 382 949 l 282 831 l 161 831 m 650 1274 q 643 1164 650 1201 q 610 1106 636 1126 q 531 1085 585 1085 q 460 1091 494 1085 q 367 1113 426 1097 q 318 1124 356 1115 q 256 1133 281 1133 q 224 1122 229 1133 q 218 1069 218 1110 l 121 1069 q 128 1178 121 1140 q 160 1238 135 1217 q 242 1258 186 1258 q 313 1251 278 1258 q 404 1231 347 1244 q 517 1210 485 1210 q 549 1222 543 1210 q 554 1274 554 1233 l 650 1274 z "},"ȅ":{"ha":772,"x_min":56,"x_max":699,"o":"m 699 299 l 257 299 q 268 193 257 224 q 318 152 279 163 q 456 142 357 142 q 671 153 538 142 l 671 11 q 554 -5 626 1 q 413 -11 482 -11 q 186 24 258 -11 q 93 132 114 58 q 72 353 72 206 q 94 570 72 496 q 184 682 115 644 q 397 719 253 719 q 603 683 539 719 q 683 574 667 646 q 699 353 699 503 l 699 299 m 394 572 q 304 560 332 572 q 267 517 276 549 q 257 413 258 485 l 524 413 q 513 518 524 485 q 475 562 501 551 q 394 572 449 572 m 328 846 l 215 846 l 56 1013 l 56 1019 l 211 1019 l 328 851 l 328 846 m 592 846 l 481 846 l 321 1013 l 321 1019 l 475 1019 l 592 851 l 592 846 z "},"ë":{"ha":772,"x_min":72,"x_max":699,"o":"m 699 299 l 257 299 q 268 193 257 224 q 318 152 279 163 q 456 142 357 142 q 671 153 538 142 l 671 11 q 554 -5 626 1 q 413 -11 482 -11 q 186 24 258 -11 q 93 132 114 58 q 72 353 72 206 q 94 570 72 496 q 184 682 115 644 q 397 719 253 719 q 603 683 539 719 q 683 574 667 646 q 699 353 699 503 l 699 299 m 394 572 q 304 560 332 572 q 267 517 276 549 q 257 413 258 485 l 524 413 q 513 518 524 485 q 475 562 501 551 q 394 572 449 572 m 179 871 l 179 1014 l 338 1014 l 338 871 l 179 871 m 456 871 l 456 1014 l 614 1014 l 614 871 l 456 871 z "},"ė":{"ha":772,"x_min":72,"x_max":699,"o":"m 699 299 l 257 299 q 268 193 257 224 q 318 152 279 163 q 456 142 357 142 q 671 153 538 142 l 671 11 q 554 -5 626 1 q 413 -11 482 -11 q 186 24 258 -11 q 93 132 114 58 q 72 353 72 206 q 94 570 72 496 q 184 682 115 644 q 397 719 253 719 q 603 683 539 719 q 683 574 667 646 q 699 353 699 503 l 699 299 m 394 572 q 304 560 332 572 q 267 517 276 549 q 257 413 258 485 l 524 413 q 513 518 524 485 q 475 562 501 551 q 394 572 449 572 m 307 871 l 307 1014 l 464 1014 l 464 871 l 307 871 z "},"ẹ":{"ha":772,"x_min":72,"x_max":699,"o":"m 699 299 l 257 299 q 268 193 257 224 q 318 152 279 163 q 456 142 357 142 q 671 153 538 142 l 671 11 q 554 -5 626 1 q 413 -11 482 -11 q 186 24 258 -11 q 93 132 114 58 q 72 353 72 206 q 94 570 72 496 q 184 682 115 644 q 397 719 253 719 q 603 683 539 719 q 683 574 667 646 q 699 353 699 503 l 699 299 m 394 572 q 304 560 332 572 q 267 517 276 549 q 257 413 258 485 l 524 413 q 513 518 524 485 q 475 562 501 551 q 394 572 449 572 m 285 -274 l 285 -86 l 488 -86 l 488 -274 l 285 -274 z "},"è":{"ha":772,"x_min":72,"x_max":699,"o":"m 699 299 l 257 299 q 268 193 257 224 q 318 152 279 163 q 456 142 357 142 q 671 153 538 142 l 671 11 q 554 -5 626 1 q 413 -11 482 -11 q 186 24 258 -11 q 93 132 114 58 q 72 353 72 206 q 94 570 72 496 q 184 682 115 644 q 397 719 253 719 q 603 683 539 719 q 683 574 667 646 q 699 353 699 503 l 699 299 m 394 572 q 304 560 332 572 q 267 517 276 549 q 257 413 258 485 l 524 413 q 513 518 524 485 q 475 562 501 551 q 394 572 449 572 m 343 832 l 161 1025 l 161 1032 l 346 1032 l 478 839 l 478 832 l 343 832 z "},"ẻ":{"ha":772,"x_min":72,"x_max":699,"o":"m 699 299 l 257 299 q 268 193 257 224 q 318 152 279 163 q 456 142 357 142 q 671 153 538 142 l 671 11 q 554 -5 626 1 q 413 -11 482 -11 q 186 24 258 -11 q 93 132 114 58 q 72 353 72 206 q 94 570 72 496 q 184 682 115 644 q 397 719 253 719 q 603 683 539 719 q 683 574 667 646 q 699 353 699 503 l 699 299 m 394 572 q 304 560 332 572 q 267 517 276 549 q 257 413 258 485 l 524 413 q 513 518 524 485 q 475 562 501 551 q 394 572 449 572 m 299 854 q 311 914 299 897 q 364 942 324 931 l 390 950 q 438 967 428 960 q 447 996 447 975 q 438 1027 447 1018 q 410 1038 429 1036 q 347 1040 392 1040 q 204 1033 271 1040 l 204 1122 q 287 1132 238 1128 q 376 1136 336 1136 q 484 1128 444 1136 q 546 1093 524 1121 q 568 1008 568 1065 q 548 933 568 954 q 474 896 528 911 l 449 889 q 406 872 414 879 q 399 846 399 865 l 299 846 l 299 854 z "},"ȇ":{"ha":772,"x_min":72,"x_max":699,"o":"m 699 299 l 257 299 q 268 193 257 224 q 318 152 279 163 q 456 142 357 142 q 671 153 538 142 l 671 11 q 554 -5 626 1 q 413 -11 482 -11 q 186 24 258 -11 q 93 132 114 58 q 72 353 72 206 q 94 570 72 496 q 184 682 115 644 q 397 719 253 719 q 603 683 539 719 q 683 574 667 646 q 699 353 699 503 l 699 299 m 394 572 q 304 560 332 572 q 267 517 276 549 q 257 413 258 485 l 524 413 q 513 518 524 485 q 475 562 501 551 q 394 572 449 572 m 181 833 q 194 946 181 903 q 253 1014 208 989 q 388 1039 299 1039 q 519 1014 475 1039 q 576 946 563 989 q 590 833 590 903 l 485 833 q 480 890 485 871 q 454 919 475 908 q 388 931 433 931 q 320 919 342 931 q 293 890 299 908 q 288 833 288 871 l 181 833 z "},"ē":{"ha":772,"x_min":72,"x_max":699,"o":"m 699 299 l 257 299 q 268 193 257 224 q 318 152 279 163 q 456 142 357 142 q 671 153 538 142 l 671 11 q 554 -5 626 1 q 413 -11 482 -11 q 186 24 258 -11 q 93 132 114 58 q 72 353 72 206 q 94 570 72 496 q 184 682 115 644 q 397 719 253 719 q 603 683 539 719 q 683 574 667 646 q 699 353 699 503 l 699 299 m 394 572 q 304 560 332 572 q 267 517 276 549 q 257 413 258 485 l 524 413 q 513 518 524 485 q 475 562 501 551 q 394 572 449 572 m 203 868 l 203 1031 l 568 1031 l 568 868 l 203 868 z "},"ę":{"ha":772,"x_min":72,"x_max":699,"o":"m 699 299 l 257 299 q 268 193 257 224 q 318 152 279 163 q 456 142 357 142 q 671 153 538 142 l 671 11 q 590 -49 628 -12 q 553 -121 553 -86 q 567 -152 553 -139 q 615 -165 582 -165 l 642 -164 l 642 -268 q 613 -270 639 -268 q 561 -272 588 -272 q 399 -162 399 -272 q 489 -10 399 -85 l 413 -11 q 186 24 258 -11 q 93 132 114 58 q 72 353 72 206 q 94 570 72 496 q 184 682 115 644 q 397 719 253 719 q 603 683 539 719 q 683 574 667 646 q 699 353 699 503 l 699 299 m 394 572 q 304 560 332 572 q 267 517 276 549 q 257 413 258 485 l 524 413 q 513 518 524 485 q 475 562 501 551 q 394 572 449 572 z "},"ẽ":{"ha":772,"x_min":72,"x_max":699,"o":"m 699 299 l 257 299 q 268 193 257 224 q 318 152 279 163 q 456 142 357 142 q 671 153 538 142 l 671 11 q 554 -5 626 1 q 413 -11 482 -11 q 186 24 258 -11 q 93 132 114 58 q 72 353 72 206 q 94 570 72 496 q 184 682 115 644 q 397 719 253 719 q 603 683 539 719 q 683 574 667 646 q 699 353 699 503 l 699 299 m 394 572 q 304 560 332 572 q 267 517 276 549 q 257 413 258 485 l 524 413 q 513 518 524 485 q 475 562 501 551 q 394 572 449 572 m 650 1033 q 643 924 650 961 q 610 865 636 886 q 531 844 585 844 q 460 851 494 844 q 367 872 426 857 q 318 884 356 875 q 256 893 281 893 q 224 881 229 893 q 218 829 218 869 l 121 829 q 128 938 121 900 q 160 997 135 976 q 242 1018 186 1018 q 313 1011 278 1018 q 404 990 347 1004 q 517 969 485 969 q 549 981 543 969 q 554 1033 554 993 l 650 1033 z "},"ə":{"ha":772,"x_min":74,"x_max":700,"o":"m 360 719 q 586 685 514 719 q 679 576 658 650 q 700 356 700 503 q 678 138 700 213 q 588 26 657 64 q 375 -11 519 -11 q 169 26 233 -11 q 90 134 106 63 q 74 356 74 206 l 74 410 l 515 410 q 504 515 515 485 q 454 556 493 546 q 317 567 415 567 q 101 556 235 567 l 101 697 q 218 713 146 707 q 360 719 290 719 m 378 136 q 468 148 440 136 q 505 192 496 160 q 515 296 514 224 l 249 296 q 260 190 249 224 q 297 147 271 157 q 378 136 324 136 z "},"f":{"ha":561,"x_min":31,"x_max":526,"o":"m 167 556 l 31 556 l 31 708 l 167 708 l 167 769 q 196 949 167 896 q 294 1017 225 1003 q 526 1031 364 1031 l 526 892 q 409 886 443 892 q 363 863 375 881 q 351 800 351 844 l 351 708 l 526 708 l 526 556 l 351 556 l 351 0 l 167 0 l 167 556 z "},"g":{"ha":811,"x_min":72,"x_max":713,"o":"m 369 -286 q 233 -281 303 -286 q 125 -269 164 -276 l 125 -128 q 325 -132 208 -132 q 464 -119 424 -132 q 516 -73 504 -107 q 528 46 528 -39 l 528 89 l 519 89 q 440 19 492 39 q 315 -1 389 -1 q 172 31 224 -1 q 96 140 119 63 q 72 357 72 217 q 97 576 72 497 q 173 687 121 654 q 315 719 225 719 q 524 621 472 719 l 535 621 l 540 708 l 713 708 l 713 83 q 691 -136 713 -61 q 597 -249 669 -211 q 369 -286 524 -286 m 394 163 q 466 173 440 163 q 506 207 492 183 q 524 264 519 229 q 528 357 528 299 q 524 451 528 415 q 507 507 519 486 q 466 544 492 533 q 394 556 440 556 q 302 543 329 556 q 267 492 275 531 q 258 357 258 453 q 267 225 258 263 q 302 175 275 188 q 394 163 329 163 z "},"ǵ":{"ha":811,"x_min":72,"x_max":713,"o":"m 369 -286 q 233 -281 303 -286 q 125 -269 164 -276 l 125 -128 q 325 -132 208 -132 q 464 -119 424 -132 q 516 -73 504 -107 q 528 46 528 -39 l 528 89 l 519 89 q 440 19 492 39 q 315 -1 389 -1 q 172 31 224 -1 q 96 140 119 63 q 72 357 72 217 q 97 576 72 497 q 173 687 121 654 q 315 719 225 719 q 524 621 472 719 l 535 621 l 540 708 l 713 708 l 713 83 q 691 -136 713 -61 q 597 -249 669 -211 q 369 -286 524 -286 m 394 163 q 466 173 440 163 q 506 207 492 183 q 524 264 519 229 q 528 357 528 299 q 524 451 528 415 q 507 507 519 486 q 466 544 492 533 q 394 556 440 556 q 302 543 329 556 q 267 492 275 531 q 258 357 258 453 q 267 225 258 263 q 302 175 275 188 q 394 163 329 163 m 328 832 l 328 839 l 458 1032 l 644 1032 l 644 1025 l 461 832 l 328 832 z "},"ğ":{"ha":811,"x_min":72,"x_max":713,"o":"m 369 -286 q 233 -281 303 -286 q 125 -269 164 -276 l 125 -128 q 325 -132 208 -132 q 464 -119 424 -132 q 516 -73 504 -107 q 528 46 528 -39 l 528 89 l 519 89 q 440 19 492 39 q 315 -1 389 -1 q 172 31 224 -1 q 96 140 119 63 q 72 357 72 217 q 97 576 72 497 q 173 687 121 654 q 315 719 225 719 q 524 621 472 719 l 535 621 l 540 708 l 713 708 l 713 83 q 691 -136 713 -61 q 597 -249 669 -211 q 369 -286 524 -286 m 394 163 q 466 173 440 163 q 506 207 492 183 q 524 264 519 229 q 528 357 528 299 q 524 451 528 415 q 507 507 519 486 q 466 544 492 533 q 394 556 440 556 q 302 543 329 556 q 267 492 275 531 q 258 357 258 453 q 267 225 258 263 q 302 175 275 188 q 394 163 329 163 m 610 1032 q 596 919 610 963 q 537 851 582 876 q 403 826 492 826 q 272 851 315 826 q 214 919 228 876 q 200 1032 200 963 l 306 1032 q 310 976 306 994 q 336 946 315 957 q 403 935 357 935 q 470 946 449 935 q 497 976 492 957 q 503 1032 503 994 l 610 1032 z "},"ǧ":{"ha":811,"x_min":72,"x_max":713,"o":"m 369 -286 q 233 -281 303 -286 q 125 -269 164 -276 l 125 -128 q 325 -132 208 -132 q 464 -119 424 -132 q 516 -73 504 -107 q 528 46 528 -39 l 528 89 l 519 89 q 440 19 492 39 q 315 -1 389 -1 q 172 31 224 -1 q 96 140 119 63 q 72 357 72 217 q 97 576 72 497 q 173 687 121 654 q 315 719 225 719 q 524 621 472 719 l 535 621 l 540 708 l 713 708 l 713 83 q 691 -136 713 -61 q 597 -249 669 -211 q 369 -286 524 -286 m 394 163 q 466 173 440 163 q 506 207 492 183 q 524 264 519 229 q 528 357 528 299 q 524 451 528 415 q 507 507 519 486 q 466 544 492 533 q 394 556 440 556 q 302 543 329 556 q 267 492 275 531 q 258 357 258 453 q 267 225 258 263 q 302 175 275 188 q 394 163 329 163 m 317 831 l 183 1022 l 183 1032 l 304 1032 l 406 914 l 507 1032 l 629 1032 l 629 1022 l 494 831 l 317 831 z "},"ĝ":{"ha":811,"x_min":72,"x_max":713,"o":"m 369 -286 q 233 -281 303 -286 q 125 -269 164 -276 l 125 -128 q 325 -132 208 -132 q 464 -119 424 -132 q 516 -73 504 -107 q 528 46 528 -39 l 528 89 l 519 89 q 440 19 492 39 q 315 -1 389 -1 q 172 31 224 -1 q 96 140 119 63 q 72 357 72 217 q 97 576 72 497 q 173 687 121 654 q 315 719 225 719 q 524 621 472 719 l 535 621 l 540 708 l 713 708 l 713 83 q 691 -136 713 -61 q 597 -249 669 -211 q 369 -286 524 -286 m 394 163 q 466 173 440 163 q 506 207 492 183 q 524 264 519 229 q 528 357 528 299 q 524 451 528 415 q 507 507 519 486 q 466 544 492 533 q 394 556 440 556 q 302 543 329 556 q 267 492 275 531 q 258 357 258 453 q 267 225 258 263 q 302 175 275 188 q 394 163 329 163 m 183 831 l 183 840 l 317 1032 l 494 1032 l 629 840 l 629 831 l 507 831 l 404 949 l 304 831 l 183 831 z "},"ģ":{"ha":811,"x_min":72,"x_max":713,"o":"m 369 -286 q 233 -281 303 -286 q 125 -269 164 -276 l 125 -128 q 325 -132 208 -132 q 464 -119 424 -132 q 516 -73 504 -107 q 528 46 528 -39 l 528 89 l 519 89 q 440 19 492 39 q 315 -1 389 -1 q 172 31 224 -1 q 96 140 119 63 q 72 357 72 217 q 97 576 72 497 q 173 687 121 654 q 315 719 225 719 q 524 621 472 719 l 535 621 l 540 708 l 713 708 l 713 83 q 691 -136 713 -61 q 597 -249 669 -211 q 369 -286 524 -286 m 394 163 q 466 173 440 163 q 506 207 492 183 q 524 264 519 229 q 528 357 528 299 q 524 451 528 415 q 507 507 519 486 q 466 544 492 533 q 394 556 440 556 q 302 543 329 556 q 267 492 275 531 q 258 357 258 453 q 267 225 258 263 q 302 175 275 188 q 394 163 329 163 m 517 1072 q 444 1062 463 1072 q 426 1018 426 1051 l 426 997 l 501 997 l 501 832 l 308 832 l 308 947 q 322 1076 308 1035 q 379 1133 336 1117 q 517 1149 422 1149 l 517 1072 z "},"ġ":{"ha":811,"x_min":72,"x_max":713,"o":"m 369 -286 q 233 -281 303 -286 q 125 -269 164 -276 l 125 -128 q 325 -132 208 -132 q 464 -119 424 -132 q 516 -73 504 -107 q 528 46 528 -39 l 528 89 l 519 89 q 440 19 492 39 q 315 -1 389 -1 q 172 31 224 -1 q 96 140 119 63 q 72 357 72 217 q 97 576 72 497 q 173 687 121 654 q 315 719 225 719 q 524 621 472 719 l 535 621 l 540 708 l 713 708 l 713 83 q 691 -136 713 -61 q 597 -249 669 -211 q 369 -286 524 -286 m 394 163 q 466 173 440 163 q 506 207 492 183 q 524 264 519 229 q 528 357 528 299 q 524 451 528 415 q 507 507 519 486 q 466 544 492 533 q 394 556 440 556 q 302 543 329 556 q 267 492 275 531 q 258 357 258 453 q 267 225 258 263 q 302 175 275 188 q 394 163 329 163 m 326 871 l 326 1014 l 483 1014 l 483 871 l 326 871 z "},"h":{"ha":822,"x_min":97,"x_max":724,"o":"m 539 375 q 531 499 539 464 q 500 544 524 533 q 417 554 476 554 q 328 536 357 554 q 291 479 300 518 q 282 367 282 440 l 282 0 l 97 0 l 97 1032 l 282 1032 l 282 625 l 293 625 q 372 696 321 674 q 501 718 422 718 q 643 688 594 718 q 708 599 692 657 q 724 443 724 542 l 724 0 l 539 0 l 539 375 z "},"ħ":{"ha":822,"x_min":10,"x_max":724,"o":"m 501 718 q 643 688 594 718 q 708 599 692 657 q 724 443 724 542 l 724 0 l 539 0 l 539 375 q 531 499 539 464 q 500 544 524 533 q 417 554 476 554 q 328 536 357 554 q 291 479 300 518 q 282 367 282 440 l 282 0 l 97 0 l 97 808 l 10 808 l 10 956 l 97 956 l 97 1032 l 282 1032 l 282 956 l 454 956 l 454 808 l 282 808 l 282 625 l 293 625 q 372 696 321 674 q 501 718 422 718 z "},"ĥ":{"ha":822,"x_min":-32,"x_max":724,"o":"m 539 375 q 531 499 539 464 q 500 544 524 533 q 417 554 476 554 q 328 536 357 554 q 291 479 300 518 q 282 367 282 440 l 282 0 l 97 0 l 97 1032 l 282 1032 l 282 625 l 293 625 q 372 696 321 674 q 501 718 422 718 q 643 688 594 718 q 708 599 692 657 q 724 443 724 542 l 724 0 l 539 0 l 539 375 m -32 1078 l -32 1088 l 101 1279 l 279 1279 l 414 1088 l 414 1078 l 292 1078 l 189 1196 l 89 1078 l -32 1078 z "},"ḥ":{"ha":822,"x_min":97,"x_max":724,"o":"m 539 375 q 531 499 539 464 q 500 544 524 533 q 417 554 476 554 q 328 536 357 554 q 291 479 300 518 q 282 367 282 440 l 282 0 l 97 0 l 97 1032 l 282 1032 l 282 625 l 293 625 q 372 696 321 674 q 501 718 422 718 q 643 688 594 718 q 708 599 692 657 q 724 443 724 542 l 724 0 l 539 0 l 539 375 m 310 -274 l 310 -86 l 513 -86 l 513 -274 l 310 -274 z "},"i":{"ha":382,"x_min":96,"x_max":286,"o":"m 96 864 l 96 1032 l 286 1032 l 286 864 l 96 864 m 97 0 l 97 708 l 283 708 l 283 0 l 97 0 z "},"ı":{"ha":382,"x_min":97,"x_max":283,"o":"m 97 0 l 97 708 l 283 708 l 283 0 l 97 0 z "},"í":{"ha":382,"x_min":97,"x_max":418,"o":"m 97 0 l 97 708 l 283 708 l 283 0 l 97 0 m 101 832 l 101 839 l 232 1032 l 418 1032 l 418 1025 l 235 832 l 101 832 z "},"ĭ":{"ha":382,"x_min":-15,"x_max":394,"o":"m 97 0 l 97 708 l 283 708 l 283 0 l 97 0 m 394 1032 q 381 919 394 963 q 322 851 367 876 q 188 826 276 826 q 56 851 100 826 q -1 919 13 876 q -15 1032 -15 963 l 90 1032 q 95 976 90 994 q 121 946 100 957 q 188 935 142 935 q 255 946 233 935 q 282 976 276 957 q 288 1032 288 994 l 394 1032 z "},"ǐ":{"ha":382,"x_min":-32,"x_max":414,"o":"m 97 0 l 97 708 l 283 708 l 283 0 l 97 0 m 101 831 l -32 1022 l -32 1032 l 89 1032 l 190 914 l 292 1032 l 414 1032 l 414 1022 l 279 831 l 101 831 z "},"î":{"ha":382,"x_min":-32,"x_max":414,"o":"m 97 0 l 97 708 l 283 708 l 283 0 l 97 0 m -32 831 l -32 840 l 101 1032 l 279 1032 l 414 840 l 414 831 l 292 831 l 189 949 l 89 831 l -32 831 z "},"ȉ":{"ha":382,"x_min":-140,"x_max":396,"o":"m 97 0 l 97 708 l 283 708 l 283 0 l 97 0 m 132 846 l 19 846 l -140 1013 l -140 1019 l 15 1019 l 132 851 l 132 846 m 396 846 l 285 846 l 125 1013 l 125 1019 l 279 1019 l 396 851 l 396 846 z "},"ï":{"ha":382,"x_min":-26,"x_max":408,"o":"m 97 0 l 97 708 l 283 708 l 283 0 l 97 0 m -26 871 l -26 1014 l 132 1014 l 132 871 l -26 871 m 250 871 l 250 1014 l 408 1014 l 408 871 l 250 871 z "},"ị":{"ha":382,"x_min":89,"x_max":292,"o":"m 96 864 l 96 1032 l 286 1032 l 286 864 l 96 864 m 97 0 l 97 708 l 283 708 l 283 0 l 97 0 m 89 -274 l 89 -86 l 292 -86 l 292 -274 l 89 -274 z "},"ì":{"ha":382,"x_min":-32,"x_max":285,"o":"m 97 0 l 97 708 l 283 708 l 283 0 l 97 0 m 150 832 l -32 1025 l -32 1032 l 153 1032 l 285 839 l 285 832 l 150 832 z "},"ỉ":{"ha":382,"x_min":8,"x_max":372,"o":"m 97 0 l 97 708 l 283 708 l 283 0 l 97 0 m 103 854 q 115 914 103 897 q 168 942 128 931 l 194 950 q 242 967 232 960 q 251 996 251 975 q 242 1027 251 1018 q 215 1038 233 1036 q 151 1040 196 1040 q 8 1033 75 1040 l 8 1122 q 91 1132 42 1128 q 181 1136 140 1136 q 288 1128 249 1136 q 350 1093 328 1121 q 372 1008 372 1065 q 352 933 372 954 q 278 896 332 911 l 253 889 q 210 872 218 879 q 203 846 203 865 l 103 846 l 103 854 z "},"ȋ":{"ha":382,"x_min":-15,"x_max":394,"o":"m 97 0 l 97 708 l 283 708 l 283 0 l 97 0 m -15 833 q -1 946 -15 903 q 58 1014 13 989 q 192 1039 103 1039 q 323 1014 279 1039 q 381 946 367 989 q 394 833 394 903 l 289 833 q 284 890 289 871 q 258 919 279 908 q 192 931 238 931 q 124 919 146 931 q 97 890 103 908 q 92 833 92 871 l -15 833 z "},"ĳ":{"ha":764,"x_min":96,"x_max":668,"o":"m 96 864 l 96 1032 l 286 1032 l 286 864 l 96 864 m 97 0 l 97 708 l 283 708 l 283 0 l 97 0 m 478 864 l 478 1032 l 668 1032 l 668 864 l 478 864 m 358 -136 q 440 -129 415 -136 q 472 -108 465 -122 q 479 -62 479 -94 l 479 708 l 665 708 l 665 -22 q 640 -193 665 -140 q 554 -262 615 -246 q 358 -278 493 -278 l 358 -136 z "},"ī":{"ha":382,"x_min":7,"x_max":372,"o":"m 97 0 l 97 708 l 283 708 l 283 0 l 97 0 m 7 868 l 7 1031 l 372 1031 l 372 868 l 7 868 z "},"į":{"ha":382,"x_min":42,"x_max":285,"o":"m 268 1014 l 268 871 l 111 871 l 111 1014 l 268 1014 m 285 -164 l 285 -268 q 204 -272 233 -272 q 42 -161 42 -272 q 126 0 42 -81 l 97 0 l 97 708 l 283 708 l 283 0 q 224 -53 251 -19 q 196 -119 196 -87 q 210 -152 196 -139 q 258 -165 225 -165 l 285 -164 z "},"ĩ":{"ha":382,"x_min":-75,"x_max":454,"o":"m 97 0 l 97 708 l 283 708 l 283 0 l 97 0 m 454 1033 q 447 924 454 961 q 415 865 440 886 q 335 844 389 844 q 265 851 299 844 q 171 872 231 857 q 122 884 160 875 q 60 893 85 893 q 28 881 33 893 q 22 829 22 869 l -75 829 q -68 938 -75 900 q -35 997 -61 976 q 46 1018 -10 1018 q 117 1011 82 1018 q 208 990 151 1004 q 321 969 289 969 q 353 981 347 969 q 358 1033 358 993 l 454 1033 z "},"j":{"ha":382,"x_min":-24,"x_max":286,"o":"m 96 864 l 96 1032 l 286 1032 l 286 864 l 96 864 m -24 -136 q 58 -129 33 -136 q 90 -108 83 -122 q 97 -62 97 -94 l 97 708 l 283 708 l 283 -22 q 258 -193 283 -140 q 172 -262 233 -246 q -24 -278 111 -278 l -24 -136 z "},"ȷ":{"ha":382,"x_min":-24,"x_max":283,"o":"m -24 -136 q 58 -129 33 -136 q 90 -108 83 -122 q 97 -62 97 -94 l 97 708 l 283 708 l 283 -22 q 258 -193 283 -140 q 172 -262 233 -246 q -24 -278 111 -278 l -24 -136 z "},"ĵ":{"ha":382,"x_min":-32,"x_max":414,"o":"m -24 -136 q 58 -129 33 -136 q 90 -108 83 -122 q 97 -62 97 -94 l 97 708 l 283 708 l 283 -22 q 258 -193 283 -140 q 172 -262 233 -246 q -24 -278 111 -278 l -24 -136 m -32 831 l -32 840 l 101 1032 l 279 1032 l 414 840 l 414 831 l 292 831 l 189 949 l 89 831 l -32 831 z "},"k":{"ha":774,"x_min":97,"x_max":747,"o":"m 540 0 l 340 278 l 282 278 l 282 0 l 97 0 l 97 1032 l 282 1032 l 282 431 l 340 431 l 543 708 l 743 708 l 489 368 l 747 0 l 540 0 z "},"ķ":{"ha":774,"x_min":97,"x_max":747,"o":"m 540 0 l 340 278 l 282 278 l 282 0 l 97 0 l 97 1032 l 282 1032 l 282 431 l 340 431 l 543 708 l 743 708 l 489 368 l 747 0 l 540 0 m 283 -325 q 356 -315 338 -325 q 374 -271 374 -304 l 374 -250 l 299 -250 l 299 -85 l 492 -85 l 492 -199 q 478 -327 492 -286 q 421 -385 464 -368 q 283 -401 378 -401 l 283 -325 z "},"ĸ":{"ha":774,"x_min":97,"x_max":747,"o":"m 540 0 l 340 278 l 282 278 l 282 0 l 97 0 l 97 708 l 282 708 l 282 431 l 340 431 l 543 708 l 743 708 l 489 368 l 747 0 l 540 0 z "},"l":{"ha":382,"x_min":97,"x_max":283,"o":"m 97 0 l 97 1032 l 283 1032 l 283 0 l 97 0 z "},"ĺ":{"ha":382,"x_min":97,"x_max":429,"o":"m 97 0 l 97 1032 l 283 1032 l 283 0 l 97 0 m 113 1079 l 113 1086 l 243 1279 l 429 1279 l 429 1272 l 246 1079 l 113 1079 z "},"ľ":{"ha":418,"x_min":97,"x_max":515,"o":"m 97 0 l 97 1032 l 283 1032 l 283 0 l 97 0 m 325 600 l 346 871 l 346 956 l 515 956 l 515 871 l 453 600 l 325 600 z "},"ļ":{"ha":382,"x_min":86,"x_max":294,"o":"m 97 0 l 97 1032 l 283 1032 l 283 0 l 97 0 m 86 -325 q 158 -315 140 -325 q 176 -271 176 -304 l 176 -250 l 101 -250 l 101 -85 l 294 -85 l 294 -199 q 281 -327 294 -286 q 224 -385 267 -368 q 86 -401 181 -401 l 86 -325 z "},"ŀ":{"ha":475,"x_min":97,"x_max":531,"o":"m 97 0 l 97 1032 l 283 1032 l 283 0 l 97 0 m 333 322 l 333 510 l 531 510 l 531 322 l 333 322 z "},"ǉ":{"ha":764,"x_min":97,"x_max":668,"o":"m 97 0 l 97 1032 l 283 1032 l 283 0 l 97 0 m 478 864 l 478 1032 l 668 1032 l 668 864 l 478 864 m 358 -136 q 440 -129 415 -136 q 472 -108 465 -122 q 479 -62 479 -94 l 479 708 l 665 708 l 665 -22 q 640 -193 665 -140 q 554 -262 615 -246 q 358 -278 493 -278 l 358 -136 z "},"ł":{"ha":399,"x_min":31,"x_max":367,"o":"m 106 0 l 106 413 l 31 386 l 31 531 l 106 558 l 106 1032 l 292 1032 l 292 626 l 367 656 l 367 508 l 292 481 l 292 0 l 106 0 z "},"m":{"ha":1208,"x_min":97,"x_max":1110,"o":"m 925 375 q 918 498 925 463 q 890 544 911 533 q 815 554 868 554 q 738 537 763 554 q 704 481 713 519 q 696 367 696 443 l 696 0 l 511 0 l 511 375 q 504 498 511 463 q 476 544 497 533 q 401 554 454 554 q 324 537 349 554 q 290 481 299 519 q 282 367 282 442 l 282 0 l 97 0 l 97 708 l 271 708 l 276 621 l 286 621 q 363 695 313 671 q 490 719 414 719 q 617 696 574 719 q 681 621 661 672 l 692 621 q 900 719 744 719 q 1032 689 986 719 q 1094 599 1078 658 q 1110 442 1110 540 l 1110 0 l 925 0 l 925 375 z "},"n":{"ha":822,"x_min":97,"x_max":724,"o":"m 539 375 q 531 499 539 464 q 500 544 524 533 q 417 554 476 554 q 328 536 357 554 q 291 479 300 518 q 282 367 282 440 l 282 0 l 97 0 l 97 708 l 271 708 l 276 621 l 288 621 q 367 696 314 672 q 501 719 419 719 q 643 689 594 719 q 708 600 692 658 q 724 443 724 542 l 724 0 l 539 0 l 539 375 z "},"ń":{"ha":822,"x_min":97,"x_max":724,"o":"m 539 375 q 531 499 539 464 q 500 544 524 533 q 417 554 476 554 q 328 536 357 554 q 291 479 300 518 q 282 367 282 440 l 282 0 l 97 0 l 97 708 l 271 708 l 276 621 l 288 621 q 367 696 314 672 q 501 719 419 719 q 643 689 594 719 q 708 600 692 658 q 724 443 724 542 l 724 0 l 539 0 l 539 375 m 333 832 l 333 839 l 464 1032 l 650 1032 l 650 1025 l 467 832 l 333 832 z "},"ŉ":{"ha":965,"x_min":18,"x_max":867,"o":"m 18 782 q 92 799 74 782 q 110 869 110 815 l 110 892 l 33 892 l 33 1032 l 226 1032 l 226 940 q 213 791 226 839 q 156 724 199 743 q 18 706 113 706 l 18 782 m 682 375 q 674 499 682 464 q 643 544 667 533 q 560 554 619 554 q 472 536 500 554 q 434 479 443 518 q 425 367 425 440 l 425 0 l 240 0 l 240 708 l 414 708 l 419 621 l 431 621 q 510 696 457 672 q 644 719 563 719 q 786 689 738 719 q 851 600 835 658 q 867 443 867 542 l 867 0 l 682 0 l 682 375 z "},"ň":{"ha":822,"x_min":97,"x_max":724,"o":"m 539 375 q 531 499 539 464 q 500 544 524 533 q 417 554 476 554 q 328 536 357 554 q 291 479 300 518 q 282 367 282 440 l 282 0 l 97 0 l 97 708 l 271 708 l 276 621 l 288 621 q 367 696 314 672 q 501 719 419 719 q 643 689 594 719 q 708 600 692 658 q 724 443 724 542 l 724 0 l 539 0 l 539 375 m 322 831 l 189 1022 l 189 1032 l 310 1032 l 411 914 l 513 1032 l 635 1032 l 635 1022 l 500 831 l 322 831 z "},"ņ":{"ha":822,"x_min":97,"x_max":724,"o":"m 539 375 q 531 499 539 464 q 500 544 524 533 q 417 554 476 554 q 328 536 357 554 q 291 479 300 518 q 282 367 282 440 l 282 0 l 97 0 l 97 708 l 271 708 l 276 621 l 288 621 q 367 696 314 672 q 501 719 419 719 q 643 689 594 719 q 708 600 692 658 q 724 443 724 542 l 724 0 l 539 0 l 539 375 m 307 -325 q 379 -315 361 -325 q 397 -271 397 -304 l 397 -250 l 322 -250 l 322 -85 l 515 -85 l 515 -199 q 501 -327 515 -286 q 444 -385 488 -368 q 307 -401 401 -401 l 307 -325 z "},"ṅ":{"ha":822,"x_min":97,"x_max":724,"o":"m 539 375 q 531 499 539 464 q 500 544 524 533 q 417 554 476 554 q 328 536 357 554 q 291 479 300 518 q 282 367 282 440 l 282 0 l 97 0 l 97 708 l 271 708 l 276 621 l 288 621 q 367 696 314 672 q 501 719 419 719 q 643 689 594 719 q 708 600 692 658 q 724 443 724 542 l 724 0 l 539 0 l 539 375 m 332 871 l 332 1014 l 489 1014 l 489 871 l 332 871 z "},"ŋ":{"ha":822,"x_min":97,"x_max":724,"o":"m 501 719 q 643 689 594 719 q 708 600 692 658 q 724 443 724 542 l 724 -22 q 699 -193 724 -140 q 613 -262 674 -246 q 418 -278 553 -278 l 418 -136 q 500 -129 475 -136 q 532 -108 525 -122 q 539 -62 539 -94 l 539 375 q 531 499 539 464 q 500 544 524 533 q 417 554 476 554 q 328 536 357 554 q 291 479 300 518 q 282 367 282 440 l 282 0 l 97 0 l 97 708 l 271 708 l 276 621 l 288 621 q 367 696 314 672 q 501 719 419 719 z "},"ɲ":{"ha":822,"x_min":-24,"x_max":724,"o":"m -24 -136 q 58 -129 33 -136 q 90 -108 83 -122 q 97 -62 97 -94 l 97 708 l 271 708 l 276 621 l 288 621 q 367 696 314 672 q 501 719 419 719 q 643 689 594 719 q 708 600 692 658 q 724 443 724 542 l 724 0 l 539 0 l 539 375 q 531 499 539 464 q 500 544 524 533 q 417 554 476 554 q 328 536 357 554 q 291 479 300 518 q 282 367 282 440 l 282 -22 q 257 -193 282 -140 q 172 -262 232 -246 q -24 -278 111 -278 l -24 -136 z "},"ǌ":{"ha":1204,"x_min":97,"x_max":1108,"o":"m 539 375 q 531 499 539 464 q 500 544 524 533 q 417 554 476 554 q 328 536 357 554 q 291 479 300 518 q 282 367 282 440 l 282 0 l 97 0 l 97 708 l 271 708 l 276 621 l 288 621 q 367 696 314 672 q 501 719 419 719 q 643 689 594 719 q 708 600 692 658 q 724 443 724 542 l 724 0 l 539 0 l 539 375 m 918 864 l 918 1032 l 1108 1032 l 1108 864 l 918 864 m 799 -136 q 881 -129 856 -136 q 913 -108 906 -122 q 919 -62 919 -94 l 919 708 l 1106 708 l 1106 -22 q 1081 -193 1106 -140 q 994 -262 1056 -246 q 799 -278 933 -278 l 799 -136 z "},"ñ":{"ha":822,"x_min":97,"x_max":724,"o":"m 539 375 q 531 499 539 464 q 500 544 524 533 q 417 554 476 554 q 328 536 357 554 q 291 479 300 518 q 282 367 282 440 l 282 0 l 97 0 l 97 708 l 271 708 l 276 621 l 288 621 q 367 696 314 672 q 501 719 419 719 q 643 689 594 719 q 708 600 692 658 q 724 443 724 542 l 724 0 l 539 0 l 539 375 m 679 1032 q 672 922 679 960 q 640 864 665 885 q 560 843 614 843 q 490 849 524 843 q 396 871 456 856 q 347 883 385 874 q 285 892 310 892 q 253 880 258 892 q 247 828 247 868 l 150 828 q 157 937 150 899 q 190 996 164 975 q 271 1017 215 1017 q 342 1010 307 1017 q 433 989 376 1003 q 546 968 514 968 q 578 980 572 968 q 583 1032 583 992 l 679 1032 z "},"o":{"ha":794,"x_min":72,"x_max":722,"o":"m 397 -11 q 177 20 244 -11 q 91 124 110 51 q 72 356 72 196 q 91 587 72 515 q 176 689 110 658 q 397 719 243 719 q 618 689 551 719 q 703 587 685 658 q 722 356 722 515 q 703 124 722 196 q 617 20 685 51 q 397 -11 550 -11 m 397 142 q 497 156 469 142 q 530 208 524 169 q 536 356 536 247 q 530 502 536 464 q 497 553 524 540 q 397 567 469 567 q 298 553 325 567 q 265 502 271 540 q 258 356 258 464 q 265 208 258 247 q 298 156 271 169 q 397 142 325 142 z "},"ó":{"ha":794,"x_min":72,"x_max":722,"o":"m 397 -11 q 177 20 244 -11 q 91 124 110 51 q 72 356 72 196 q 91 587 72 515 q 176 689 110 658 q 397 719 243 719 q 618 689 551 719 q 703 587 685 658 q 722 356 722 515 q 703 124 722 196 q 617 20 685 51 q 397 -11 550 -11 m 397 142 q 497 156 469 142 q 530 208 524 169 q 536 356 536 247 q 530 502 536 464 q 497 553 524 540 q 397 567 469 567 q 298 553 325 567 q 265 502 271 540 q 258 356 258 464 q 265 208 258 247 q 298 156 271 169 q 397 142 325 142 m 321 832 l 321 839 l 451 1032 l 638 1032 l 638 1025 l 454 832 l 321 832 z "},"ŏ":{"ha":794,"x_min":72,"x_max":722,"o":"m 397 -11 q 177 20 244 -11 q 91 124 110 51 q 72 356 72 196 q 91 587 72 515 q 176 689 110 658 q 397 719 243 719 q 618 689 551 719 q 703 587 685 658 q 722 356 722 515 q 703 124 722 196 q 617 20 685 51 q 397 -11 550 -11 m 397 142 q 497 156 469 142 q 530 208 524 169 q 536 356 536 247 q 530 502 536 464 q 497 553 524 540 q 397 567 469 567 q 298 553 325 567 q 265 502 271 540 q 258 356 258 464 q 265 208 258 247 q 298 156 271 169 q 397 142 325 142 m 601 1032 q 588 919 601 963 q 528 851 574 876 q 394 826 483 826 q 263 851 307 826 q 206 919 219 876 q 192 1032 192 963 l 297 1032 q 302 976 297 994 q 328 946 307 957 q 394 935 349 935 q 462 946 440 935 q 489 976 483 957 q 494 1032 494 994 l 601 1032 z "},"ǒ":{"ha":794,"x_min":72,"x_max":722,"o":"m 397 -11 q 177 20 244 -11 q 91 124 110 51 q 72 356 72 196 q 91 587 72 515 q 176 689 110 658 q 397 719 243 719 q 618 689 551 719 q 703 587 685 658 q 722 356 722 515 q 703 124 722 196 q 617 20 685 51 q 397 -11 550 -11 m 397 142 q 497 156 469 142 q 530 208 524 169 q 536 356 536 247 q 530 502 536 464 q 497 553 524 540 q 397 567 469 567 q 298 553 325 567 q 265 502 271 540 q 258 356 258 464 q 265 208 258 247 q 298 156 271 169 q 397 142 325 142 m 308 831 l 175 1022 l 175 1032 l 296 1032 l 397 914 l 499 1032 l 621 1032 l 621 1022 l 486 831 l 308 831 z "},"ô":{"ha":794,"x_min":72,"x_max":722,"o":"m 397 -11 q 177 20 244 -11 q 91 124 110 51 q 72 356 72 196 q 91 587 72 515 q 176 689 110 658 q 397 719 243 719 q 618 689 551 719 q 703 587 685 658 q 722 356 722 515 q 703 124 722 196 q 617 20 685 51 q 397 -11 550 -11 m 397 142 q 497 156 469 142 q 530 208 524 169 q 536 356 536 247 q 530 502 536 464 q 497 553 524 540 q 397 567 469 567 q 298 553 325 567 q 265 502 271 540 q 258 356 258 464 q 265 208 258 247 q 298 156 271 169 q 397 142 325 142 m 175 831 l 175 840 l 308 1032 l 486 1032 l 621 840 l 621 831 l 499 831 l 396 949 l 296 831 l 175 831 z "},"ố":{"ha":794,"x_min":72,"x_max":739,"o":"m 397 -11 q 177 20 244 -11 q 91 124 110 51 q 72 356 72 196 q 91 587 72 515 q 176 689 110 658 q 397 719 243 719 q 618 689 551 719 q 703 587 685 658 q 722 356 722 515 q 703 124 722 196 q 617 20 685 51 q 397 -11 550 -11 m 397 142 q 497 156 469 142 q 530 208 524 169 q 536 356 536 247 q 530 502 536 464 q 497 553 524 540 q 397 567 469 567 q 298 553 325 567 q 265 502 271 540 q 258 356 258 464 q 265 208 258 247 q 298 156 271 169 q 397 142 325 142 m 171 831 l 171 840 l 304 1032 l 482 1032 l 617 840 l 617 831 l 494 831 l 392 949 l 292 831 l 171 831 m 422 1072 l 422 1079 l 553 1272 l 739 1272 l 739 1265 l 556 1072 l 422 1072 z "},"ộ":{"ha":794,"x_min":72,"x_max":722,"o":"m 397 -11 q 177 20 244 -11 q 91 124 110 51 q 72 356 72 196 q 91 587 72 515 q 176 689 110 658 q 397 719 243 719 q 618 689 551 719 q 703 587 685 658 q 722 356 722 515 q 703 124 722 196 q 617 20 685 51 q 397 -11 550 -11 m 397 142 q 497 156 469 142 q 530 208 524 169 q 536 356 536 247 q 530 502 536 464 q 497 553 524 540 q 397 567 469 567 q 298 553 325 567 q 265 502 271 540 q 258 356 258 464 q 265 208 258 247 q 298 156 271 169 q 397 142 325 142 m 296 -274 l 296 -86 l 499 -86 l 499 -274 l 296 -274 m 175 831 l 175 840 l 308 1032 l 486 1032 l 621 840 l 621 831 l 499 831 l 396 949 l 296 831 l 175 831 z "},"ồ":{"ha":794,"x_min":72,"x_max":722,"o":"m 397 -11 q 177 20 244 -11 q 91 124 110 51 q 72 356 72 196 q 91 587 72 515 q 176 689 110 658 q 397 719 243 719 q 618 689 551 719 q 703 587 685 658 q 722 356 722 515 q 703 124 722 196 q 617 20 685 51 q 397 -11 550 -11 m 397 142 q 497 156 469 142 q 530 208 524 169 q 536 356 536 247 q 530 502 536 464 q 497 553 524 540 q 397 567 469 567 q 298 553 325 567 q 265 502 271 540 q 258 356 258 464 q 265 208 258 247 q 298 156 271 169 q 397 142 325 142 m 172 831 l 172 840 l 306 1032 l 483 1032 l 618 840 l 618 831 l 496 831 l 393 949 l 293 831 l 172 831 m 482 1072 l 300 1265 l 300 1272 l 485 1272 l 617 1079 l 617 1072 l 482 1072 z "},"ổ":{"ha":794,"x_min":72,"x_max":722,"o":"m 397 -11 q 177 20 244 -11 q 91 124 110 51 q 72 356 72 196 q 91 587 72 515 q 176 689 110 658 q 397 719 243 719 q 618 689 551 719 q 703 587 685 658 q 722 356 722 515 q 703 124 722 196 q 617 20 685 51 q 397 -11 550 -11 m 397 142 q 497 156 469 142 q 530 208 524 169 q 536 356 536 247 q 530 502 536 464 q 497 553 524 540 q 397 567 469 567 q 298 553 325 567 q 265 502 271 540 q 258 356 258 464 q 265 208 258 247 q 298 156 271 169 q 397 142 325 142 m 175 831 l 175 840 l 308 1032 l 486 1032 l 621 840 l 621 831 l 499 831 l 396 949 l 296 831 l 175 831 m 446 1067 q 458 1126 446 1110 q 511 1154 471 1143 l 538 1163 q 585 1180 575 1172 q 594 1208 594 1188 q 585 1240 594 1231 q 558 1251 576 1249 q 494 1253 539 1253 q 351 1246 418 1253 l 351 1335 q 434 1344 385 1340 q 524 1349 483 1349 q 631 1341 592 1349 q 693 1306 671 1333 q 715 1221 715 1278 q 695 1145 715 1167 q 621 1108 675 1124 l 596 1101 q 553 1085 561 1092 q 546 1058 546 1078 l 446 1058 l 446 1067 z "},"ỗ":{"ha":794,"x_min":72,"x_max":722,"o":"m 397 -11 q 177 20 244 -11 q 91 124 110 51 q 72 356 72 196 q 91 587 72 515 q 176 689 110 658 q 397 719 243 719 q 618 689 551 719 q 703 587 685 658 q 722 356 722 515 q 703 124 722 196 q 617 20 685 51 q 397 -11 550 -11 m 397 142 q 497 156 469 142 q 530 208 524 169 q 536 356 536 247 q 530 502 536 464 q 497 553 524 540 q 397 567 469 567 q 298 553 325 567 q 265 502 271 540 q 258 356 258 464 q 265 208 258 247 q 298 156 271 169 q 397 142 325 142 m 172 831 l 172 840 l 306 1032 l 483 1032 l 618 840 l 618 831 l 496 831 l 393 949 l 293 831 l 172 831 m 661 1274 q 654 1164 661 1201 q 622 1106 647 1126 q 542 1085 596 1085 q 472 1091 506 1085 q 378 1113 438 1097 q 329 1124 367 1115 q 267 1133 292 1133 q 235 1122 240 1133 q 229 1069 229 1110 l 132 1069 q 139 1178 132 1140 q 172 1238 146 1217 q 253 1258 197 1258 q 324 1251 289 1258 q 415 1231 358 1244 q 528 1210 496 1210 q 560 1222 554 1210 q 565 1274 565 1233 l 661 1274 z "},"ȍ":{"ha":794,"x_min":67,"x_max":722,"o":"m 397 -11 q 177 20 244 -11 q 91 124 110 51 q 72 356 72 196 q 91 587 72 515 q 176 689 110 658 q 397 719 243 719 q 618 689 551 719 q 703 587 685 658 q 722 356 722 515 q 703 124 722 196 q 617 20 685 51 q 397 -11 550 -11 m 397 142 q 497 156 469 142 q 530 208 524 169 q 536 356 536 247 q 530 502 536 464 q 497 553 524 540 q 397 567 469 567 q 298 553 325 567 q 265 502 271 540 q 258 356 258 464 q 265 208 258 247 q 298 156 271 169 q 397 142 325 142 m 339 846 l 226 846 l 67 1013 l 67 1019 l 222 1019 l 339 851 l 339 846 m 603 846 l 492 846 l 332 1013 l 332 1019 l 486 1019 l 603 851 l 603 846 z "},"ö":{"ha":794,"x_min":72,"x_max":722,"o":"m 397 -11 q 177 20 244 -11 q 91 124 110 51 q 72 356 72 196 q 91 587 72 515 q 176 689 110 658 q 397 719 243 719 q 618 689 551 719 q 703 587 685 658 q 722 356 722 515 q 703 124 722 196 q 617 20 685 51 q 397 -11 550 -11 m 397 142 q 497 156 469 142 q 530 208 524 169 q 536 356 536 247 q 530 502 536 464 q 497 553 524 540 q 397 567 469 567 q 298 553 325 567 q 265 502 271 540 q 258 356 258 464 q 265 208 258 247 q 298 156 271 169 q 397 142 325 142 m 182 871 l 182 1014 l 340 1014 l 340 871 l 182 871 m 458 871 l 458 1014 l 617 1014 l 617 871 l 458 871 z "},"ọ":{"ha":794,"x_min":72,"x_max":722,"o":"m 397 -11 q 177 20 244 -11 q 91 124 110 51 q 72 356 72 196 q 91 587 72 515 q 176 689 110 658 q 397 719 243 719 q 618 689 551 719 q 703 587 685 658 q 722 356 722 515 q 703 124 722 196 q 617 20 685 51 q 397 -11 550 -11 m 397 142 q 497 156 469 142 q 530 208 524 169 q 536 356 536 247 q 530 502 536 464 q 497 553 524 540 q 397 567 469 567 q 298 553 325 567 q 265 502 271 540 q 258 356 258 464 q 265 208 258 247 q 298 156 271 169 q 397 142 325 142 m 296 -274 l 296 -86 l 499 -86 l 499 -274 l 296 -274 z "},"ò":{"ha":794,"x_min":72,"x_max":722,"o":"m 397 -11 q 177 20 244 -11 q 91 124 110 51 q 72 356 72 196 q 91 587 72 515 q 176 689 110 658 q 397 719 243 719 q 618 689 551 719 q 703 587 685 658 q 722 356 722 515 q 703 124 722 196 q 617 20 685 51 q 397 -11 550 -11 m 397 142 q 497 156 469 142 q 530 208 524 169 q 536 356 536 247 q 530 502 536 464 q 497 553 524 540 q 397 567 469 567 q 298 553 325 567 q 265 502 271 540 q 258 356 258 464 q 265 208 258 247 q 298 156 271 169 q 397 142 325 142 m 346 832 l 164 1025 l 164 1032 l 349 1032 l 481 839 l 481 832 l 346 832 z "},"ỏ":{"ha":794,"x_min":72,"x_max":722,"o":"m 397 -11 q 177 20 244 -11 q 91 124 110 51 q 72 356 72 196 q 91 587 72 515 q 176 689 110 658 q 397 719 243 719 q 618 689 551 719 q 703 587 685 658 q 722 356 722 515 q 703 124 722 196 q 617 20 685 51 q 397 -11 550 -11 m 397 142 q 497 156 469 142 q 530 208 524 169 q 536 356 536 247 q 530 502 536 464 q 497 553 524 540 q 397 567 469 567 q 298 553 325 567 q 265 502 271 540 q 258 356 258 464 q 265 208 258 247 q 298 156 271 169 q 397 142 325 142 m 310 854 q 322 914 310 897 q 375 942 335 931 l 401 950 q 449 967 439 960 q 458 996 458 975 q 449 1027 458 1018 q 422 1038 440 1036 q 358 1040 403 1040 q 215 1033 282 1040 l 215 1122 q 298 1132 249 1128 q 388 1136 347 1136 q 495 1128 456 1136 q 557 1093 535 1121 q 579 1008 579 1065 q 559 933 579 954 q 485 896 539 911 l 460 889 q 417 872 425 879 q 410 846 410 865 l 310 846 l 310 854 z "},"ơ":{"ha":794,"x_min":72,"x_max":824,"o":"m 824 836 l 824 808 q 813 711 824 746 q 772 658 803 676 q 682 636 742 640 q 715 533 707 596 q 722 356 722 471 q 703 124 722 196 q 617 20 685 51 q 397 -11 550 -11 q 177 20 244 -11 q 91 124 110 51 q 72 356 72 196 q 91 587 72 515 q 176 689 110 658 q 397 719 243 719 q 553 708 497 719 l 614 708 q 671 716 653 708 q 694 742 689 724 q 700 797 700 760 l 700 836 l 824 836 m 397 142 q 497 156 469 142 q 530 208 524 169 q 536 356 536 247 q 530 502 536 464 q 497 553 524 540 q 397 567 469 567 q 298 553 325 567 q 265 502 271 540 q 258 356 258 464 q 265 208 258 247 q 298 156 271 169 q 397 142 325 142 z "},"ớ":{"ha":794,"x_min":72,"x_max":824,"o":"m 824 836 l 824 808 q 813 711 824 746 q 772 658 803 676 q 682 636 742 640 q 715 533 707 596 q 722 356 722 471 q 703 124 722 196 q 617 20 685 51 q 397 -11 550 -11 q 177 20 244 -11 q 91 124 110 51 q 72 356 72 196 q 91 587 72 515 q 176 689 110 658 q 397 719 243 719 q 553 708 497 719 l 614 708 q 671 716 653 708 q 694 742 689 724 q 700 797 700 760 l 700 836 l 824 836 m 397 142 q 497 156 469 142 q 530 208 524 169 q 536 356 536 247 q 530 502 536 464 q 497 553 524 540 q 397 567 469 567 q 298 553 325 567 q 265 502 271 540 q 258 356 258 464 q 265 208 258 247 q 298 156 271 169 q 397 142 325 142 m 319 832 l 319 839 l 450 1032 l 636 1032 l 636 1025 l 453 832 l 319 832 z "},"ợ":{"ha":794,"x_min":72,"x_max":824,"o":"m 824 836 l 824 808 q 813 711 824 746 q 772 658 803 676 q 682 636 742 640 q 715 533 707 596 q 722 356 722 471 q 703 124 722 196 q 617 20 685 51 q 397 -11 550 -11 q 177 20 244 -11 q 91 124 110 51 q 72 356 72 196 q 91 587 72 515 q 176 689 110 658 q 397 719 243 719 q 553 708 497 719 l 614 708 q 671 716 653 708 q 694 742 689 724 q 700 797 700 760 l 700 836 l 824 836 m 397 142 q 497 156 469 142 q 530 208 524 169 q 536 356 536 247 q 530 502 536 464 q 497 553 524 540 q 397 567 469 567 q 298 553 325 567 q 265 502 271 540 q 258 356 258 464 q 265 208 258 247 q 298 156 271 169 q 397 142 325 142 m 296 -274 l 296 -86 l 499 -86 l 499 -274 l 296 -274 z "},"ờ":{"ha":794,"x_min":72,"x_max":824,"o":"m 824 836 l 824 808 q 813 711 824 746 q 772 658 803 676 q 682 636 742 640 q 715 533 707 596 q 722 356 722 471 q 703 124 722 196 q 617 20 685 51 q 397 -11 550 -11 q 177 20 244 -11 q 91 124 110 51 q 72 356 72 196 q 91 587 72 515 q 176 689 110 658 q 397 719 243 719 q 553 708 497 719 l 614 708 q 671 716 653 708 q 694 742 689 724 q 700 797 700 760 l 700 836 l 824 836 m 397 142 q 497 156 469 142 q 530 208 524 169 q 536 356 536 247 q 530 502 536 464 q 497 553 524 540 q 397 567 469 567 q 298 553 325 567 q 265 502 271 540 q 258 356 258 464 q 265 208 258 247 q 298 156 271 169 q 397 142 325 142 m 343 832 l 161 1025 l 161 1032 l 346 1032 l 478 839 l 478 832 l 343 832 z "},"ở":{"ha":794,"x_min":72,"x_max":824,"o":"m 824 836 l 824 808 q 813 711 824 746 q 772 658 803 676 q 682 636 742 640 q 715 533 707 596 q 722 356 722 471 q 703 124 722 196 q 617 20 685 51 q 397 -11 550 -11 q 177 20 244 -11 q 91 124 110 51 q 72 356 72 196 q 91 587 72 515 q 176 689 110 658 q 397 719 243 719 q 553 708 497 719 l 614 708 q 671 716 653 708 q 694 742 689 724 q 700 797 700 760 l 700 836 l 824 836 m 397 142 q 497 156 469 142 q 530 208 524 169 q 536 356 536 247 q 530 502 536 464 q 497 553 524 540 q 397 567 469 567 q 298 553 325 567 q 265 502 271 540 q 258 356 258 464 q 265 208 258 247 q 298 156 271 169 q 397 142 325 142 m 310 854 q 322 914 310 897 q 375 942 335 931 l 401 950 q 449 967 439 960 q 458 996 458 975 q 449 1027 458 1018 q 422 1038 440 1036 q 358 1040 403 1040 q 215 1033 282 1040 l 215 1122 q 298 1132 249 1128 q 388 1136 347 1136 q 495 1128 456 1136 q 557 1093 535 1121 q 579 1008 579 1065 q 559 933 579 954 q 485 896 539 911 l 460 889 q 417 872 425 879 q 410 846 410 865 l 310 846 l 310 854 z "},"ỡ":{"ha":794,"x_min":72,"x_max":824,"o":"m 824 836 l 824 808 q 813 711 824 746 q 772 658 803 676 q 682 636 742 640 q 715 533 707 596 q 722 356 722 471 q 703 124 722 196 q 617 20 685 51 q 397 -11 550 -11 q 177 20 244 -11 q 91 124 110 51 q 72 356 72 196 q 91 587 72 515 q 176 689 110 658 q 397 719 243 719 q 553 708 497 719 l 614 708 q 671 716 653 708 q 694 742 689 724 q 700 797 700 760 l 700 836 l 824 836 m 397 142 q 497 156 469 142 q 530 208 524 169 q 536 356 536 247 q 530 502 536 464 q 497 553 524 540 q 397 567 469 567 q 298 553 325 567 q 265 502 271 540 q 258 356 258 464 q 265 208 258 247 q 298 156 271 169 q 397 142 325 142 m 661 1033 q 654 924 661 961 q 622 865 647 886 q 542 844 596 844 q 472 851 506 844 q 378 872 438 857 q 329 884 367 875 q 267 893 292 893 q 235 881 240 893 q 229 829 229 869 l 132 829 q 139 938 132 900 q 172 997 146 976 q 253 1018 197 1018 q 324 1011 289 1018 q 415 990 358 1004 q 528 969 496 969 q 560 981 554 969 q 565 1033 565 993 l 661 1033 z "},"ő":{"ha":794,"x_min":72,"x_max":750,"o":"m 397 -11 q 177 20 244 -11 q 91 124 110 51 q 72 356 72 196 q 91 587 72 515 q 176 689 110 658 q 397 719 243 719 q 618 689 551 719 q 703 587 685 658 q 722 356 722 515 q 703 124 722 196 q 617 20 685 51 q 397 -11 550 -11 m 397 142 q 497 156 469 142 q 530 208 524 169 q 536 356 536 247 q 530 502 536 464 q 497 553 524 540 q 397 567 469 567 q 298 553 325 567 q 265 502 271 540 q 258 356 258 464 q 265 208 258 247 q 298 156 271 169 q 397 142 325 142 m 214 846 l 214 851 l 331 1019 l 485 1019 l 485 1013 l 325 846 l 214 846 m 478 846 l 478 851 l 594 1019 l 750 1019 l 750 1013 l 590 846 l 478 846 z "},"ȏ":{"ha":794,"x_min":72,"x_max":722,"o":"m 397 -11 q 177 20 244 -11 q 91 124 110 51 q 72 356 72 196 q 91 587 72 515 q 176 689 110 658 q 397 719 243 719 q 618 689 551 719 q 703 587 685 658 q 722 356 722 515 q 703 124 722 196 q 617 20 685 51 q 397 -11 550 -11 m 397 142 q 497 156 469 142 q 530 208 524 169 q 536 356 536 247 q 530 502 536 464 q 497 553 524 540 q 397 567 469 567 q 298 553 325 567 q 265 502 271 540 q 258 356 258 464 q 265 208 258 247 q 298 156 271 169 q 397 142 325 142 m 192 833 q 206 946 192 903 q 265 1014 219 989 q 399 1039 310 1039 q 530 1014 486 1039 q 588 946 574 989 q 601 833 601 903 l 496 833 q 491 890 496 871 q 465 919 486 908 q 399 931 444 931 q 331 919 353 931 q 304 890 310 908 q 299 833 299 871 l 192 833 z "},"ō":{"ha":794,"x_min":72,"x_max":722,"o":"m 397 -11 q 177 20 244 -11 q 91 124 110 51 q 72 356 72 196 q 91 587 72 515 q 176 689 110 658 q 397 719 243 719 q 618 689 551 719 q 703 587 685 658 q 722 356 722 515 q 703 124 722 196 q 617 20 685 51 q 397 -11 550 -11 m 397 142 q 497 156 469 142 q 530 208 524 169 q 536 356 536 247 q 530 502 536 464 q 497 553 524 540 q 397 567 469 567 q 298 553 325 567 q 265 502 271 540 q 258 356 258 464 q 265 208 258 247 q 298 156 271 169 q 397 142 325 142 m 214 868 l 214 1031 l 579 1031 l 579 868 l 214 868 z "},"ǫ":{"ha":794,"x_min":72,"x_max":722,"o":"m 397 719 q 618 689 551 719 q 703 587 685 658 q 722 356 722 515 q 717 193 722 253 q 692 93 711 133 q 635 29 674 53 q 563 -35 596 7 q 531 -117 531 -76 q 593 -165 531 -165 l 618 -164 l 618 -268 q 590 -270 615 -268 q 538 -272 564 -272 q 376 -160 376 -272 q 440 -11 376 -86 l 396 -11 q 176 21 243 -10 q 91 123 110 51 q 72 356 72 194 q 91 587 72 515 q 176 689 110 658 q 397 719 243 719 m 397 142 q 497 156 469 142 q 530 208 524 169 q 536 356 536 247 q 530 502 536 464 q 497 553 524 540 q 397 567 469 567 q 298 553 325 567 q 265 502 271 540 q 258 356 258 464 q 265 208 258 247 q 298 156 271 169 q 397 142 325 142 z "},"ø":{"ha":794,"x_min":72,"x_max":722,"o":"m 653 667 q 710 563 697 631 q 722 356 722 494 q 703 124 722 196 q 617 20 685 51 q 397 -11 550 -11 q 258 -3 317 -11 l 215 -76 l 72 -76 l 142 42 q 85 147 97 78 q 72 356 72 215 q 91 587 72 515 q 176 689 110 658 q 397 719 243 719 q 536 711 478 719 l 579 785 l 722 785 l 653 667 m 258 356 q 260 243 258 272 l 450 565 q 397 567 435 567 q 298 553 325 567 q 265 502 271 540 q 258 356 258 464 m 397 142 q 497 156 469 142 q 530 208 524 169 q 536 356 536 247 q 535 465 536 438 l 344 143 q 397 142 360 142 z "},"ǿ":{"ha":794,"x_min":72,"x_max":722,"o":"m 653 667 q 710 563 697 631 q 722 356 722 494 q 703 124 722 196 q 617 20 685 51 q 397 -11 550 -11 q 258 -3 317 -11 l 215 -76 l 72 -76 l 142 42 q 85 147 97 78 q 72 356 72 215 q 91 587 72 515 q 176 689 110 658 q 397 719 243 719 q 536 711 478 719 l 579 785 l 722 785 l 653 667 m 258 356 q 260 243 258 272 l 450 565 q 397 567 435 567 q 298 553 325 567 q 265 502 271 540 q 258 356 258 464 m 397 142 q 497 156 469 142 q 530 208 524 169 q 536 356 536 247 q 535 465 536 438 l 344 143 q 397 142 360 142 m 319 832 l 319 839 l 450 1032 l 636 1032 l 636 1025 l 453 832 l 319 832 z "},"õ":{"ha":794,"x_min":72,"x_max":722,"o":"m 397 -11 q 177 20 244 -11 q 91 124 110 51 q 72 356 72 196 q 91 587 72 515 q 176 689 110 658 q 397 719 243 719 q 618 689 551 719 q 703 587 685 658 q 722 356 722 515 q 703 124 722 196 q 617 20 685 51 q 397 -11 550 -11 m 397 142 q 497 156 469 142 q 530 208 524 169 q 536 356 536 247 q 530 502 536 464 q 497 553 524 540 q 397 567 469 567 q 298 553 325 567 q 265 502 271 540 q 258 356 258 464 q 265 208 258 247 q 298 156 271 169 q 397 142 325 142 m 664 1032 q 657 922 664 960 q 624 864 650 885 q 544 843 599 843 q 474 849 508 843 q 381 871 440 856 q 332 883 369 874 q 269 892 294 892 q 238 880 243 892 q 232 828 232 868 l 135 828 q 142 937 135 899 q 174 996 149 975 q 256 1017 200 1017 q 326 1010 292 1017 q 418 989 361 1003 q 531 968 499 968 q 563 980 557 968 q 568 1032 568 992 l 664 1032 z "},"œ":{"ha":1242,"x_min":72,"x_max":1167,"o":"m 1167 299 l 725 299 q 735 192 725 222 q 785 152 746 163 q 924 142 825 142 q 1139 153 1006 142 l 1139 11 q 1023 -5 1094 1 q 883 -11 951 -11 q 732 3 793 -11 q 632 49 671 18 q 540 3 597 17 q 396 -11 483 -11 q 176 20 243 -11 q 91 124 110 51 q 72 356 72 196 q 91 587 72 515 q 176 689 110 658 q 396 719 243 719 q 540 705 483 719 q 632 658 597 690 q 867 719 706 719 q 1072 683 1008 719 q 1151 574 1135 646 q 1167 353 1167 503 l 1167 299 m 861 572 q 772 560 800 572 q 735 517 744 549 q 725 413 726 485 l 990 413 q 979 518 990 485 q 942 562 968 551 q 861 572 915 572 m 397 142 q 497 156 469 142 q 530 208 524 169 q 536 356 536 247 q 530 502 536 464 q 497 553 524 540 q 397 567 469 567 q 298 553 325 567 q 265 502 271 540 q 258 356 258 464 q 265 208 258 247 q 298 156 271 169 q 397 142 325 142 z "},"p":{"ha":811,"x_min":97,"x_max":738,"o":"m 97 708 l 271 708 l 276 621 l 286 621 q 370 698 315 676 q 496 719 425 719 q 638 687 586 719 q 714 576 690 654 q 738 356 738 497 q 714 135 738 214 q 640 22 690 56 q 500 -11 589 -11 q 374 8 425 -11 q 293 78 324 28 l 282 78 l 282 -276 l 97 -276 l 97 708 m 417 154 q 508 167 482 154 q 544 219 535 179 q 553 354 553 258 q 544 490 553 450 q 508 543 535 531 q 417 556 482 556 q 341 543 368 556 q 301 503 314 531 q 286 444 290 479 q 282 354 282 410 q 285 263 282 297 q 300 207 289 229 q 340 167 313 179 q 417 154 368 154 z "},"þ":{"ha":811,"x_min":97,"x_max":738,"o":"m 97 1032 l 282 1032 l 282 624 l 293 624 q 373 700 322 681 q 496 719 424 719 q 638 687 586 719 q 714 576 690 654 q 738 356 738 497 q 714 135 738 214 q 640 22 690 56 q 500 -11 589 -11 q 374 8 425 -11 q 293 78 324 28 l 282 78 l 282 -262 l 97 -262 l 97 1032 m 417 154 q 508 167 482 154 q 544 219 535 179 q 553 354 553 258 q 544 490 553 450 q 508 543 535 531 q 417 556 482 556 q 344 544 371 556 q 304 507 318 533 q 286 448 290 483 q 282 354 282 413 q 285 267 282 300 q 299 213 289 233 q 338 167 311 181 q 417 154 365 154 z "},"q":{"ha":813,"x_min":72,"x_max":713,"o":"m 528 78 l 519 78 q 437 8 488 26 q 311 -11 386 -11 q 171 22 222 -11 q 96 133 119 54 q 72 354 72 213 q 97 574 72 496 q 173 686 121 653 q 315 719 225 719 q 440 698 386 719 q 524 621 494 676 l 535 621 l 540 708 l 713 708 l 713 -276 l 528 -276 l 528 78 m 394 154 q 472 167 444 154 q 513 210 499 181 q 528 354 528 247 q 523 453 528 417 q 504 513 518 489 q 464 545 490 535 q 394 556 438 556 q 302 543 329 556 q 267 491 275 531 q 258 354 258 451 q 267 218 258 257 q 302 167 275 179 q 394 154 329 154 z "},"r":{"ha":547,"x_min":97,"x_max":514,"o":"m 97 708 l 271 708 l 276 586 l 288 586 q 368 690 314 661 q 514 719 422 719 l 514 538 q 372 513 422 538 q 302 433 322 489 q 282 278 282 378 l 282 0 l 97 0 l 97 708 z "},"ŕ":{"ha":547,"x_min":97,"x_max":514,"o":"m 97 708 l 271 708 l 276 586 l 288 586 q 368 690 314 661 q 514 719 422 719 l 514 538 q 372 513 422 538 q 302 433 322 489 q 282 278 282 378 l 282 0 l 97 0 l 97 708 m 196 832 l 196 839 l 326 1032 l 513 1032 l 513 1025 l 329 832 l 196 832 z "},"ř":{"ha":547,"x_min":51,"x_max":514,"o":"m 97 708 l 271 708 l 276 586 l 288 586 q 368 690 314 661 q 514 719 422 719 l 514 538 q 372 513 422 538 q 302 433 322 489 q 282 278 282 378 l 282 0 l 97 0 l 97 708 m 185 831 l 51 1022 l 51 1032 l 172 1032 l 274 914 l 375 1032 l 497 1032 l 497 1022 l 363 831 l 185 831 z "},"ŗ":{"ha":547,"x_min":86,"x_max":514,"o":"m 97 708 l 271 708 l 276 586 l 288 586 q 368 690 314 661 q 514 719 422 719 l 514 538 q 372 513 422 538 q 302 433 322 489 q 282 278 282 378 l 282 0 l 97 0 l 97 708 m 86 -325 q 158 -315 140 -325 q 176 -271 176 -304 l 176 -250 l 101 -250 l 101 -85 l 294 -85 l 294 -199 q 281 -327 294 -286 q 224 -385 267 -368 q 86 -401 181 -401 l 86 -325 z "},"ȑ":{"ha":547,"x_min":-57,"x_max":514,"o":"m 97 708 l 271 708 l 276 586 l 288 586 q 368 690 314 661 q 514 719 422 719 l 514 538 q 372 513 422 538 q 302 433 322 489 q 282 278 282 378 l 282 0 l 97 0 l 97 708 m 215 846 l 103 846 l -57 1013 l -57 1019 l 99 1019 l 215 851 l 215 846 m 479 846 l 368 846 l 208 1013 l 208 1019 l 363 1019 l 479 851 l 479 846 z "},"ṛ":{"ha":547,"x_min":89,"x_max":514,"o":"m 97 708 l 271 708 l 276 586 l 288 586 q 368 690 314 661 q 514 719 422 719 l 514 538 q 372 513 422 538 q 302 433 322 489 q 282 278 282 378 l 282 0 l 97 0 l 97 708 m 89 -274 l 89 -86 l 292 -86 l 292 -274 l 89 -274 z "},"ȓ":{"ha":547,"x_min":68,"x_max":514,"o":"m 97 708 l 271 708 l 276 586 l 288 586 q 368 690 314 661 q 514 719 422 719 l 514 538 q 372 513 422 538 q 302 433 322 489 q 282 278 282 378 l 282 0 l 97 0 l 97 708 m 68 833 q 82 946 68 903 q 141 1014 96 989 q 275 1039 186 1039 q 406 1014 363 1039 q 464 946 450 989 q 478 833 478 903 l 372 833 q 367 890 372 871 q 342 919 363 908 q 275 931 321 931 q 208 919 229 931 q 181 890 186 908 q 175 833 175 871 l 68 833 z "},"s":{"ha":692,"x_min":61,"x_max":629,"o":"m 357 -11 q 217 -6 294 -11 q 83 8 140 0 l 83 153 q 201 144 133 147 q 318 140 268 140 q 409 147 381 140 q 446 166 438 153 q 454 208 454 179 q 449 247 454 236 q 430 263 444 258 q 379 272 415 268 l 215 293 q 118 326 151 300 q 73 395 85 353 q 61 506 61 438 q 97 644 61 597 q 192 705 132 690 q 349 719 253 719 q 478 713 410 719 q 590 697 547 707 l 590 556 q 375 568 471 568 q 289 565 317 568 q 249 547 261 561 q 236 504 236 533 q 240 467 236 478 q 258 451 244 456 q 303 442 271 446 l 481 421 q 566 397 535 414 q 613 337 597 379 q 629 213 629 294 q 597 69 629 117 q 508 5 565 21 q 357 -11 451 -11 z "},"ś":{"ha":692,"x_min":61,"x_max":629,"o":"m 357 -11 q 217 -6 294 -11 q 83 8 140 0 l 83 153 q 201 144 133 147 q 318 140 268 140 q 409 147 381 140 q 446 166 438 153 q 454 208 454 179 q 449 247 454 236 q 430 263 444 258 q 379 272 415 268 l 215 293 q 118 326 151 300 q 73 395 85 353 q 61 506 61 438 q 97 644 61 597 q 192 705 132 690 q 349 719 253 719 q 478 713 410 719 q 590 697 547 707 l 590 556 q 375 568 471 568 q 289 565 317 568 q 249 547 261 561 q 236 504 236 533 q 240 467 236 478 q 258 451 244 456 q 303 442 271 446 l 481 421 q 566 397 535 414 q 613 337 597 379 q 629 213 629 294 q 597 69 629 117 q 508 5 565 21 q 357 -11 451 -11 m 268 832 l 268 839 l 399 1032 l 585 1032 l 585 1025 l 401 832 l 268 832 z "},"ꞌ":{"ha":261,"x_min":46,"x_max":215,"o":"m 46 378 l 46 1032 l 215 1032 l 215 711 l 174 378 l 46 378 z "},"š":{"ha":692,"x_min":61,"x_max":629,"o":"m 357 -11 q 217 -6 294 -11 q 83 8 140 0 l 83 153 q 201 144 133 147 q 318 140 268 140 q 409 147 381 140 q 446 166 438 153 q 454 208 454 179 q 449 247 454 236 q 430 263 444 258 q 379 272 415 268 l 215 293 q 118 326 151 300 q 73 395 85 353 q 61 506 61 438 q 97 644 61 597 q 192 705 132 690 q 349 719 253 719 q 478 713 410 719 q 590 697 547 707 l 590 556 q 375 568 471 568 q 289 565 317 568 q 249 547 261 561 q 236 504 236 533 q 240 467 236 478 q 258 451 244 456 q 303 442 271 446 l 481 421 q 566 397 535 414 q 613 337 597 379 q 629 213 629 294 q 597 69 629 117 q 508 5 565 21 q 357 -11 451 -11 m 261 831 l 128 1022 l 128 1032 l 249 1032 l 350 914 l 451 1032 l 574 1032 l 574 1022 l 439 831 l 261 831 z "},"ş":{"ha":692,"x_min":61,"x_max":629,"o":"m 629 213 q 603 78 629 126 q 530 12 578 31 q 406 -10 482 -7 l 357 -264 l 183 -264 l 183 -257 l 276 -10 q 83 8 147 -1 l 83 153 q 201 144 133 147 q 318 140 268 140 q 409 147 381 140 q 446 166 438 153 q 454 208 454 179 q 449 247 454 236 q 430 263 444 258 q 379 272 415 268 l 215 293 q 118 326 151 300 q 73 395 85 353 q 61 506 61 438 q 97 644 61 597 q 192 705 132 690 q 349 719 253 719 q 478 713 410 719 q 590 697 547 707 l 590 556 q 375 568 471 568 q 289 565 317 568 q 249 547 261 561 q 236 504 236 533 q 240 467 236 478 q 258 451 244 456 q 303 442 271 446 l 481 421 q 566 397 535 414 q 613 337 597 379 q 629 213 629 294 z "},"ŝ":{"ha":692,"x_min":61,"x_max":629,"o":"m 357 -11 q 217 -6 294 -11 q 83 8 140 0 l 83 153 q 201 144 133 147 q 318 140 268 140 q 409 147 381 140 q 446 166 438 153 q 454 208 454 179 q 449 247 454 236 q 430 263 444 258 q 379 272 415 268 l 215 293 q 118 326 151 300 q 73 395 85 353 q 61 506 61 438 q 97 644 61 597 q 192 705 132 690 q 349 719 253 719 q 478 713 410 719 q 590 697 547 707 l 590 556 q 375 568 471 568 q 289 565 317 568 q 249 547 261 561 q 236 504 236 533 q 240 467 236 478 q 258 451 244 456 q 303 442 271 446 l 481 421 q 566 397 535 414 q 613 337 597 379 q 629 213 629 294 q 597 69 629 117 q 508 5 565 21 q 357 -11 451 -11 m 124 831 l 124 840 l 257 1032 l 435 1032 l 569 840 l 569 831 l 447 831 l 344 949 l 244 831 l 124 831 z "},"ș":{"ha":692,"x_min":61,"x_max":629,"o":"m 357 -11 q 217 -6 294 -11 q 83 8 140 0 l 83 153 q 201 144 133 147 q 318 140 268 140 q 409 147 381 140 q 446 166 438 153 q 454 208 454 179 q 449 247 454 236 q 430 263 444 258 q 379 272 415 268 l 215 293 q 118 326 151 300 q 73 395 85 353 q 61 506 61 438 q 97 644 61 597 q 192 705 132 690 q 349 719 253 719 q 478 713 410 719 q 590 697 547 707 l 590 556 q 375 568 471 568 q 289 565 317 568 q 249 547 261 561 q 236 504 236 533 q 240 467 236 478 q 258 451 244 456 q 303 442 271 446 l 481 421 q 566 397 535 414 q 613 337 597 379 q 629 213 629 294 q 597 69 629 117 q 508 5 565 21 q 357 -11 451 -11 m 242 -325 q 314 -315 296 -325 q 332 -271 332 -304 l 332 -250 l 257 -250 l 257 -85 l 450 -85 l 450 -199 q 436 -327 450 -286 q 379 -385 422 -368 q 242 -401 336 -401 l 242 -325 z "},"ṣ":{"ha":692,"x_min":61,"x_max":629,"o":"m 357 -11 q 217 -6 294 -11 q 83 8 140 0 l 83 153 q 201 144 133 147 q 318 140 268 140 q 409 147 381 140 q 446 166 438 153 q 454 208 454 179 q 449 247 454 236 q 430 263 444 258 q 379 272 415 268 l 215 293 q 118 326 151 300 q 73 395 85 353 q 61 506 61 438 q 97 644 61 597 q 192 705 132 690 q 349 719 253 719 q 478 713 410 719 q 590 697 547 707 l 590 556 q 375 568 471 568 q 289 565 317 568 q 249 547 261 561 q 236 504 236 533 q 240 467 236 478 q 258 451 244 456 q 303 442 271 446 l 481 421 q 566 397 535 414 q 613 337 597 379 q 629 213 629 294 q 597 69 629 117 q 508 5 565 21 q 357 -11 451 -11 m 244 -274 l 244 -86 l 447 -86 l 447 -274 l 244 -274 z "},"ß":{"ha":836,"x_min":97,"x_max":763,"o":"m 381 0 l 381 153 l 426 153 q 529 163 501 153 q 567 208 557 172 q 576 339 576 244 q 564 459 576 422 q 522 508 551 496 q 428 519 492 519 l 400 519 l 400 674 l 428 674 q 513 681 485 674 q 553 710 542 689 q 564 771 564 731 q 552 847 564 822 q 511 881 540 872 q 422 889 482 889 q 339 879 368 889 q 296 839 310 869 q 282 744 282 808 l 282 0 l 97 0 l 97 768 q 128 924 97 864 q 231 1013 158 983 q 428 1042 303 1042 q 624 1014 554 1042 q 722 933 694 986 q 750 797 750 881 q 711 664 750 710 q 589 606 672 618 l 589 600 q 720 523 678 583 q 763 332 763 463 q 739 135 763 204 q 650 33 715 65 q 454 0 585 0 l 381 0 z "},"ſ":{"ha":533,"x_min":31,"x_max":526,"o":"m 167 556 l 31 556 l 31 708 l 167 708 l 167 769 q 196 949 167 896 q 294 1017 225 1003 q 526 1031 364 1031 l 526 892 q 409 886 443 892 q 363 863 375 881 q 351 800 351 844 l 351 0 l 167 0 l 167 556 z "},"t":{"ha":542,"x_min":29,"x_max":511,"o":"m 165 0 l 165 556 l 29 556 l 29 708 l 165 708 l 165 914 l 350 914 l 350 708 l 511 708 l 511 556 l 350 556 l 350 0 l 165 0 z "},"ŧ":{"ha":542,"x_min":29,"x_max":513,"o":"m 513 392 l 513 244 l 350 244 l 350 0 l 165 0 l 165 244 l 31 244 l 31 392 l 165 392 l 165 556 l 29 556 l 29 708 l 165 708 l 165 914 l 350 914 l 350 708 l 511 708 l 511 556 l 350 556 l 350 392 l 513 392 z "},"ť":{"ha":640,"x_min":29,"x_max":746,"o":"m 165 0 l 165 556 l 29 556 l 29 708 l 165 708 l 165 914 l 350 914 l 350 708 l 511 708 l 511 556 l 350 556 l 350 0 l 165 0 m 556 600 l 576 871 l 576 956 l 746 956 l 746 871 l 683 600 l 556 600 z "},"ţ":{"ha":542,"x_min":29,"x_max":511,"o":"m 350 708 l 511 708 l 511 556 l 350 556 l 350 0 l 319 0 l 269 -264 l 96 -264 l 96 -257 l 192 0 l 165 0 l 165 556 l 29 556 l 29 708 l 165 708 l 165 914 l 350 914 l 350 708 z "},"ț":{"ha":542,"x_min":29,"x_max":511,"o":"m 165 0 l 165 556 l 29 556 l 29 708 l 165 708 l 165 914 l 350 914 l 350 708 l 511 708 l 511 556 l 350 556 l 350 0 l 165 0 m 154 -325 q 226 -315 208 -325 q 244 -271 244 -304 l 244 -250 l 169 -250 l 169 -85 l 363 -85 l 363 -199 q 349 -327 363 -286 q 292 -385 335 -368 q 154 -401 249 -401 l 154 -325 z "},"ṭ":{"ha":542,"x_min":29,"x_max":511,"o":"m 165 0 l 165 556 l 29 556 l 29 708 l 165 708 l 165 914 l 350 914 l 350 708 l 511 708 l 511 556 l 350 556 l 350 0 l 165 0 m 157 -274 l 157 -86 l 360 -86 l 360 -274 l 157 -274 z "},"u":{"ha":822,"x_min":97,"x_max":724,"o":"m 546 88 l 535 88 q 456 13 508 36 q 321 -11 403 -11 q 179 19 228 -11 q 114 108 131 50 q 97 265 97 167 l 97 708 l 282 708 l 282 333 q 290 210 282 246 q 322 165 297 175 q 406 154 346 154 q 492 172 464 154 q 530 228 521 190 q 539 342 539 267 l 539 708 l 724 708 l 724 0 l 551 0 l 546 88 z "},"ú":{"ha":822,"x_min":97,"x_max":724,"o":"m 546 88 l 535 88 q 456 13 508 36 q 321 -11 403 -11 q 179 19 228 -11 q 114 108 131 50 q 97 265 97 167 l 97 708 l 282 708 l 282 333 q 290 210 282 246 q 322 165 297 175 q 406 154 346 154 q 492 172 464 154 q 530 228 521 190 q 539 342 539 267 l 539 708 l 724 708 l 724 0 l 551 0 l 546 88 m 347 832 l 347 839 l 478 1032 l 664 1032 l 664 1025 l 481 832 l 347 832 z "},"ŭ":{"ha":822,"x_min":97,"x_max":724,"o":"m 546 88 l 535 88 q 456 13 508 36 q 321 -11 403 -11 q 179 19 228 -11 q 114 108 131 50 q 97 265 97 167 l 97 708 l 282 708 l 282 333 q 290 210 282 246 q 322 165 297 175 q 406 154 346 154 q 492 172 464 154 q 530 228 521 190 q 539 342 539 267 l 539 708 l 724 708 l 724 0 l 551 0 l 546 88 m 615 1032 q 601 919 615 963 q 542 851 588 876 q 408 826 497 826 q 277 851 321 826 q 219 919 233 876 q 206 1032 206 963 l 311 1032 q 316 976 311 994 q 342 946 321 957 q 408 935 363 935 q 476 946 454 935 q 503 976 497 957 q 508 1032 508 994 l 615 1032 z "},"ǔ":{"ha":822,"x_min":97,"x_max":724,"o":"m 546 88 l 535 88 q 456 13 508 36 q 321 -11 403 -11 q 179 19 228 -11 q 114 108 131 50 q 97 265 97 167 l 97 708 l 282 708 l 282 333 q 290 210 282 246 q 322 165 297 175 q 406 154 346 154 q 492 172 464 154 q 530 228 521 190 q 539 342 539 267 l 539 708 l 724 708 l 724 0 l 551 0 l 546 88 m 322 831 l 189 1022 l 189 1032 l 310 1032 l 411 914 l 513 1032 l 635 1032 l 635 1022 l 500 831 l 322 831 z "},"û":{"ha":822,"x_min":97,"x_max":724,"o":"m 546 88 l 535 88 q 456 13 508 36 q 321 -11 403 -11 q 179 19 228 -11 q 114 108 131 50 q 97 265 97 167 l 97 708 l 282 708 l 282 333 q 290 210 282 246 q 322 165 297 175 q 406 154 346 154 q 492 172 464 154 q 530 228 521 190 q 539 342 539 267 l 539 708 l 724 708 l 724 0 l 551 0 l 546 88 m 189 831 l 189 840 l 322 1032 l 500 1032 l 635 840 l 635 831 l 513 831 l 410 949 l 310 831 l 189 831 z "},"ȕ":{"ha":822,"x_min":81,"x_max":724,"o":"m 546 88 l 535 88 q 456 13 508 36 q 321 -11 403 -11 q 179 19 228 -11 q 114 108 131 50 q 97 265 97 167 l 97 708 l 282 708 l 282 333 q 290 210 282 246 q 322 165 297 175 q 406 154 346 154 q 492 172 464 154 q 530 228 521 190 q 539 342 539 267 l 539 708 l 724 708 l 724 0 l 551 0 l 546 88 m 353 846 l 240 846 l 81 1013 l 81 1019 l 236 1019 l 353 851 l 353 846 m 617 846 l 506 846 l 346 1013 l 346 1019 l 500 1019 l 617 851 l 617 846 z "},"ü":{"ha":822,"x_min":97,"x_max":724,"o":"m 546 88 l 535 88 q 456 13 508 36 q 321 -11 403 -11 q 179 19 228 -11 q 114 108 131 50 q 97 265 97 167 l 97 708 l 282 708 l 282 333 q 290 210 282 246 q 322 165 297 175 q 406 154 346 154 q 492 172 464 154 q 530 228 521 190 q 539 342 539 267 l 539 708 l 724 708 l 724 0 l 551 0 l 546 88 m 193 871 l 193 1014 l 351 1014 l 351 871 l 193 871 m 469 871 l 469 1014 l 628 1014 l 628 871 l 469 871 z "},"ǘ":{"ha":822,"x_min":97,"x_max":724,"o":"m 546 88 l 535 88 q 456 13 508 36 q 321 -11 403 -11 q 179 19 228 -11 q 114 108 131 50 q 97 265 97 167 l 97 708 l 282 708 l 282 333 q 290 210 282 246 q 322 165 297 175 q 406 154 346 154 q 492 172 464 154 q 530 228 521 190 q 539 342 539 267 l 539 708 l 724 708 l 724 0 l 551 0 l 546 88 m 193 871 l 193 1014 l 351 1014 l 351 871 l 193 871 m 469 871 l 469 1014 l 628 1014 l 628 871 l 469 871 m 336 1054 l 336 1061 l 467 1254 l 653 1254 l 653 1247 l 469 1054 l 336 1054 z "},"ǚ":{"ha":822,"x_min":97,"x_max":724,"o":"m 546 88 l 535 88 q 456 13 508 36 q 321 -11 403 -11 q 179 19 228 -11 q 114 108 131 50 q 97 265 97 167 l 97 708 l 282 708 l 282 333 q 290 210 282 246 q 322 165 297 175 q 406 154 346 154 q 492 172 464 154 q 530 228 521 190 q 539 342 539 267 l 539 708 l 724 708 l 724 0 l 551 0 l 546 88 m 193 871 l 193 1014 l 351 1014 l 351 871 l 193 871 m 469 871 l 469 1014 l 628 1014 l 628 871 l 469 871 m 325 1053 l 192 1244 l 192 1254 l 313 1254 l 414 1136 l 515 1254 l 638 1254 l 638 1244 l 503 1053 l 325 1053 z "}}}
